# MagicaVoxel @ Ephtracy

# group
g Arbre

# material
mtllib Arbre.mtl
usemtl palette

# normals
vn -1 0 0
vn 1 0 0
vn 0 0 1
vn 0 0 -1
vn 0 -1 0
vn 0 1 0

# texcoords
vt 0.306641 0.5
vt 0.373047 0.5
vt 0.490234 0.5
vt 0.884766 0.5
vt 0.892578 0.5

# verts
v -15 19 15
v -15 19 -15
v -15 27 15
v -15 27 -15
v -15 33 15
v -15 33 -15
v -15 47 15
v -15 47 -15
v -15 53 15
v -15 53 -15
v -15 68 15
v -15 68 -15
v -15 74 15
v -15 74 -15
v -15 80 15
v -15 80 -15
v -8 0 8
v -8 0 -8
v -8 19 8
v -8 19 -8
v 8 0 8
v 8 0 -8
v 8 19 8
v 8 19 -8
v 15 19 15
v 15 19 -15
v 15 27 15
v 15 27 -15
v 15 33 15
v 15 33 -15
v 15 47 15
v 15 47 -15
v 15 53 15
v 15 53 -15
v 15 68 15
v 15 68 -15
v 15 74 15
v 15 74 -15
v 15 80 15
v 15 80 -15
v -15 19 15
v -15 27 15
v -15 33 15
v -15 47 15
v -15 53 15
v -15 68 15
v -15 74 15
v -15 80 15
v 15 19 15
v 15 27 15
v 15 33 15
v 15 47 15
v 15 53 15
v 15 68 15
v 15 74 15
v 15 80 15
v -8 0 8
v -8 19 8
v 8 0 8
v 8 19 8
v -8 0 -8
v -8 19 -8
v 8 0 -8
v 8 19 -8
v -15 19 -15
v -15 27 -15
v -15 33 -15
v -15 47 -15
v -15 53 -15
v -15 68 -15
v -15 74 -15
v -15 80 -15
v 15 19 -15
v 15 27 -15
v 15 33 -15
v 15 47 -15
v 15 53 -15
v 15 68 -15
v 15 74 -15
v 15 80 -15
v -8 0 8
v 8 0 8
v -8 0 -8
v 8 0 -8
v -15 19 15
v 15 19 15
v -8 19 8
v 8 19 8
v -8 19 -8
v 8 19 -8
v -15 19 -15
v 15 19 -15
v -15 80 15
v 15 80 15
v -15 80 -15
v 15 80 -15

# faces
f 3/4/1 2/4/1 1/4/1
f 4/4/1 2/4/1 3/4/1
f 5/3/1 4/3/1 3/3/1
f 6/3/1 4/3/1 5/3/1
f 7/4/1 6/4/1 5/4/1
f 8/4/1 6/4/1 7/4/1
f 9/3/1 8/3/1 7/3/1
f 10/3/1 8/3/1 9/3/1
f 11/4/1 10/4/1 9/4/1
f 12/4/1 10/4/1 11/4/1
f 13/3/1 12/3/1 11/3/1
f 14/3/1 12/3/1 13/3/1
f 15/4/1 14/4/1 13/4/1
f 16/4/1 14/4/1 15/4/1
f 19/2/1 18/2/1 17/2/1
f 20/2/1 18/2/1 19/2/1
f 21/2/2 22/2/2 23/2/2
f 23/2/2 22/2/2 24/2/2
f 25/4/2 26/4/2 27/4/2
f 27/4/2 26/4/2 28/4/2
f 27/3/2 28/3/2 29/3/2
f 29/3/2 28/3/2 30/3/2
f 29/4/2 30/4/2 31/4/2
f 31/4/2 30/4/2 32/4/2
f 31/3/2 32/3/2 33/3/2
f 33/3/2 32/3/2 34/3/2
f 33/4/2 34/4/2 35/4/2
f 35/4/2 34/4/2 36/4/2
f 35/3/2 36/3/2 37/3/2
f 37/3/2 36/3/2 38/3/2
f 37/4/2 38/4/2 39/4/2
f 39/4/2 38/4/2 40/4/2
f 49/4/3 42/4/3 41/4/3
f 50/3/3 43/3/3 42/3/3
f 50/4/3 42/4/3 49/4/3
f 51/4/3 44/4/3 43/4/3
f 51/3/3 43/3/3 50/3/3
f 52/3/3 45/3/3 44/3/3
f 52/4/3 44/4/3 51/4/3
f 53/4/3 46/4/3 45/4/3
f 53/3/3 45/3/3 52/3/3
f 54/3/3 47/3/3 46/3/3
f 54/4/3 46/4/3 53/4/3
f 55/4/3 48/4/3 47/4/3
f 55/3/3 47/3/3 54/3/3
f 56/4/3 48/4/3 55/4/3
f 59/2/3 58/2/3 57/2/3
f 60/2/3 58/2/3 59/2/3
f 61/2/4 62/2/4 63/2/4
f 63/2/4 62/2/4 64/2/4
f 65/4/4 66/4/4 73/4/4
f 66/3/4 67/3/4 74/3/4
f 73/4/4 66/4/4 74/4/4
f 67/4/4 68/4/4 75/4/4
f 74/3/4 67/3/4 75/3/4
f 68/3/4 69/3/4 76/3/4
f 75/4/4 68/4/4 76/4/4
f 69/4/4 70/4/4 77/4/4
f 76/3/4 69/3/4 77/3/4
f 70/3/4 71/3/4 78/3/4
f 77/4/4 70/4/4 78/4/4
f 71/4/4 72/4/4 79/4/4
f 78/3/4 71/3/4 79/3/4
f 79/4/4 72/4/4 80/4/4
f 83/2/5 82/2/5 81/2/5
f 84/2/5 82/2/5 83/2/5
f 87/4/5 86/4/5 85/4/5
f 88/4/5 86/4/5 87/4/5
f 89/4/5 87/4/5 85/4/5
f 90/4/5 86/4/5 88/4/5
f 91/4/5 89/4/5 85/4/5
f 91/4/5 90/4/5 89/4/5
f 92/4/5 86/4/5 90/4/5
f 92/4/5 90/4/5 91/4/5
f 93/4/6 94/4/6 95/4/6
f 95/4/6 94/4/6 96/4/6
