# MagicaVoxel @ Ephtracy

# group
g CamioBack

# material
mtllib CamioBack.mtl
usemtl palette

# normals
vn -1 0 0
vn 1 0 0
vn 0 0 1
vn 0 0 -1
vn 0 -1 0
vn 0 1 0

# texcoords
vt 0.00195313 0.5
vt 0.306641 0.5
vt 0.587891 0.5
vt 0.685547 0.5
vt 0.751953 0.5
vt 0.775391 0.5
vt 0.779297 0.5
vt 0.958984 0.5
vt 0.966797 0.5
vt 0.974609 0.5
vt 0.978516 0.5
vt 0.994141 0.5

# verts
v -60 4 18
v -60 4 -18
v -60 10 20
v -60 10 18
v -60 10 -18
v -60 10 -20
v -60 13 17
v -60 13 -17
v -60 56 17
v -60 56 -17
v -60 59 20
v -60 59 -20
v -48 0 18
v -48 0 14
v -48 0 -14
v -48 0 -18
v -48 4 18
v -48 4 14
v -48 4 -14
v -48 4 -18
v 32 0 18
v 32 0 14
v 32 0 -14
v 32 0 -18
v 32 4 18
v 32 4 14
v 32 4 -14
v 32 4 -18
v -33 0 18
v -33 0 14
v -33 0 -14
v -33 0 -18
v -33 4 18
v -33 4 14
v -33 4 -14
v -33 4 -18
v 47 0 18
v 47 0 14
v 47 0 -14
v 47 0 -18
v 47 4 18
v 47 4 14
v 47 4 -14
v 47 4 -18
v 58 4 18
v 58 4 -18
v 58 10 18
v 58 10 -18
v 60 10 20
v 60 10 -20
v 60 13 17
v 60 13 -17
v 60 56 17
v 60 56 -17
v 60 59 20
v 60 59 -20
v -60 10 20
v -60 59 20
v -57 13 20
v -57 56 20
v 57 13 20
v 57 56 20
v 60 10 20
v 60 59 20
v -60 4 18
v -60 10 18
v -59 10 18
v -48 0 18
v -48 4 18
v -48 10 18
v -44 4 18
v -44 9 18
v -37 4 18
v -37 9 18
v -33 0 18
v -33 4 18
v -33 10 18
v 32 0 18
v 32 4 18
v 32 10 18
v 36 4 18
v 36 9 18
v 43 4 18
v 43 9 18
v 47 0 18
v 47 4 18
v 47 10 18
v 58 4 18
v 58 10 18
v -48 0 -14
v -48 4 -14
v -33 0 -14
v -33 4 -14
v 32 0 -14
v 32 4 -14
v 47 0 -14
v 47 4 -14
v -48 0 14
v -48 4 14
v -33 0 14
v -33 4 14
v 32 0 14
v 32 4 14
v 47 0 14
v 47 4 14
v -60 4 -18
v -60 10 -18
v -59 10 -18
v -48 0 -18
v -48 4 -18
v -48 10 -18
v -44 4 -18
v -44 9 -18
v -37 4 -18
v -37 9 -18
v -33 0 -18
v -33 4 -18
v -33 10 -18
v 32 0 -18
v 32 4 -18
v 32 10 -18
v 36 4 -18
v 36 9 -18
v 43 4 -18
v 43 9 -18
v 47 0 -18
v 47 4 -18
v 47 10 -18
v 58 4 -18
v 58 10 -18
v -60 10 -20
v -60 59 -20
v -57 13 -20
v -57 56 -20
v 57 13 -20
v 57 56 -20
v 60 10 -20
v 60 59 -20
v -48 0 18
v -33 0 18
v 32 0 18
v 47 0 18
v -48 0 14
v -33 0 14
v 32 0 14
v 47 0 14
v -48 0 -14
v -33 0 -14
v 32 0 -14
v 47 0 -14
v -48 0 -18
v -33 0 -18
v 32 0 -18
v 47 0 -18
v -60 4 18
v -48 4 18
v -33 4 18
v 32 4 18
v 47 4 18
v 58 4 18
v -48 4 14
v -33 4 14
v 32 4 14
v 47 4 14
v -48 4 -14
v -33 4 -14
v 32 4 -14
v 47 4 -14
v -60 4 -18
v -48 4 -18
v -33 4 -18
v 32 4 -18
v 47 4 -18
v 58 4 -18
v -60 10 20
v 60 10 20
v -59 10 19
v 59 10 19
v -60 10 18
v -59 10 18
v -48 10 18
v -33 10 18
v 32 10 18
v 47 10 18
v 58 10 18
v -60 10 -18
v -59 10 -18
v -48 10 -18
v -33 10 -18
v 32 10 -18
v 47 10 -18
v 58 10 -18
v -59 10 -19
v 59 10 -19
v -60 10 -20
v 60 10 -20
v -60 59 20
v 60 59 20
v -59 59 19
v 59 59 19
v -59 59 -19
v 59 59 -19
v -60 59 -20
v 60 59 -20

# faces
f 4/10/1 2/10/1 1/10/1
f 5/10/1 2/10/1 4/10/1
f 7/3/1 4/3/1 3/3/1
f 7/3/1 6/3/1 5/3/1
f 7/3/1 5/3/1 4/3/1
f 8/3/1 6/3/1 7/3/1
f 9/3/1 7/3/1 3/3/1
f 9/1/1 8/1/1 7/1/1
f 10/3/1 6/3/1 8/3/1
f 10/1/1 8/1/1 9/1/1
f 11/3/1 9/3/1 3/3/1
f 11/3/1 10/3/1 9/3/1
f 12/3/1 6/3/1 10/3/1
f 12/3/1 10/3/1 11/3/1
f 17/12/1 14/12/1 13/12/1
f 18/12/1 14/12/1 17/12/1
f 19/12/1 16/12/1 15/12/1
f 20/12/1 16/12/1 19/12/1
f 25/12/1 22/12/1 21/12/1
f 26/12/1 22/12/1 25/12/1
f 27/12/1 24/12/1 23/12/1
f 28/12/1 24/12/1 27/12/1
f 29/12/2 30/12/2 33/12/2
f 33/12/2 30/12/2 34/12/2
f 31/12/2 32/12/2 35/12/2
f 35/12/2 32/12/2 36/12/2
f 37/12/2 38/12/2 41/12/2
f 41/12/2 38/12/2 42/12/2
f 39/12/2 40/12/2 43/12/2
f 43/12/2 40/12/2 44/12/2
f 45/10/2 46/10/2 47/10/2
f 47/10/2 46/10/2 48/10/2
f 49/3/2 50/3/2 51/3/2
f 51/3/2 50/3/2 52/3/2
f 49/3/2 51/3/2 53/3/2
f 51/1/2 52/1/2 53/1/2
f 52/3/2 50/3/2 54/3/2
f 53/1/2 52/1/2 54/1/2
f 49/3/2 53/3/2 55/3/2
f 53/3/2 54/3/2 55/3/2
f 54/3/2 50/3/2 56/3/2
f 55/3/2 54/3/2 56/3/2
f 59/3/3 58/3/3 57/3/3
f 60/3/3 58/3/3 59/3/3
f 61/3/3 59/3/3 57/3/3
f 61/1/3 60/1/3 59/1/3
f 62/3/3 58/3/3 60/3/3
f 62/1/3 60/1/3 61/1/3
f 63/3/3 61/3/3 57/3/3
f 63/3/3 62/3/3 61/3/3
f 64/3/3 58/3/3 62/3/3
f 64/3/3 62/3/3 63/3/3
f 67/10/3 66/10/3 65/10/3
f 69/10/3 67/10/3 65/10/3
f 70/10/3 67/10/3 69/10/3
f 71/12/3 69/12/3 68/12/3
f 71/12/3 70/12/3 69/12/3
f 72/12/3 70/12/3 71/12/3
f 73/12/3 71/12/3 68/12/3
f 73/11/3 72/11/3 71/11/3
f 74/12/3 70/12/3 72/12/3
f 74/11/3 72/11/3 73/11/3
f 75/12/3 73/12/3 68/12/3
f 75/12/3 74/12/3 73/12/3
f 76/12/3 74/12/3 75/12/3
f 77/12/3 70/12/3 74/12/3
f 77/12/3 74/12/3 76/12/3
f 79/10/3 77/10/3 76/10/3
f 80/10/3 77/10/3 79/10/3
f 81/12/3 79/12/3 78/12/3
f 81/12/3 80/12/3 79/12/3
f 82/12/3 80/12/3 81/12/3
f 83/12/3 81/12/3 78/12/3
f 83/11/3 82/11/3 81/11/3
f 84/12/3 80/12/3 82/12/3
f 84/11/3 82/11/3 83/11/3
f 85/12/3 83/12/3 78/12/3
f 85/12/3 84/12/3 83/12/3
f 86/12/3 84/12/3 85/12/3
f 87/12/3 80/12/3 84/12/3
f 87/12/3 84/12/3 86/12/3
f 88/10/3 87/10/3 86/10/3
f 89/10/3 87/10/3 88/10/3
f 92/12/3 91/12/3 90/12/3
f 93/12/3 91/12/3 92/12/3
f 96/12/3 95/12/3 94/12/3
f 97/12/3 95/12/3 96/12/3
f 98/12/4 99/12/4 100/12/4
f 100/12/4 99/12/4 101/12/4
f 102/12/4 103/12/4 104/12/4
f 104/12/4 103/12/4 105/12/4
f 106/10/4 107/10/4 108/10/4
f 106/10/4 108/10/4 110/10/4
f 110/10/4 108/10/4 111/10/4
f 109/12/4 110/12/4 112/12/4
f 110/12/4 111/12/4 112/12/4
f 112/12/4 111/12/4 113/12/4
f 109/12/4 112/12/4 114/12/4
f 112/11/4 113/11/4 114/11/4
f 113/12/4 111/12/4 115/12/4
f 114/11/4 113/11/4 115/11/4
f 109/12/4 114/12/4 116/12/4
f 114/12/4 115/12/4 116/12/4
f 116/12/4 115/12/4 117/12/4
f 115/12/4 111/12/4 118/12/4
f 117/12/4 115/12/4 118/12/4
f 117/10/4 118/10/4 120/10/4
f 120/10/4 118/10/4 121/10/4
f 119/12/4 120/12/4 122/12/4
f 120/12/4 121/12/4 122/12/4
f 122/12/4 121/12/4 123/12/4
f 119/12/4 122/12/4 124/12/4
f 122/11/4 123/11/4 124/11/4
f 123/12/4 121/12/4 125/12/4
f 124/11/4 123/11/4 125/11/4
f 119/12/4 124/12/4 126/12/4
f 124/12/4 125/12/4 126/12/4
f 126/12/4 125/12/4 127/12/4
f 125/12/4 121/12/4 128/12/4
f 127/12/4 125/12/4 128/12/4
f 127/10/4 128/10/4 129/10/4
f 129/10/4 128/10/4 130/10/4
f 131/3/4 132/3/4 133/3/4
f 133/3/4 132/3/4 134/3/4
f 131/3/4 133/3/4 135/3/4
f 133/1/4 134/1/4 135/1/4
f 134/3/4 132/3/4 136/3/4
f 135/1/4 134/1/4 136/1/4
f 131/3/4 135/3/4 137/3/4
f 135/3/4 136/3/4 137/3/4
f 136/3/4 132/3/4 138/3/4
f 137/3/4 136/3/4 138/3/4
f 143/12/5 140/12/5 139/12/5
f 144/12/5 140/12/5 143/12/5
f 145/12/5 142/12/5 141/12/5
f 146/12/5 142/12/5 145/12/5
f 151/12/5 148/12/5 147/12/5
f 152/12/5 148/12/5 151/12/5
f 153/12/5 150/12/5 149/12/5
f 154/12/5 150/12/5 153/12/5
f 161/10/5 156/10/5 155/10/5
f 162/10/5 158/10/5 157/10/5
f 163/10/5 158/10/5 162/10/5
f 164/10/5 160/10/5 159/10/5
f 165/10/5 163/10/5 162/10/5
f 165/10/5 164/10/5 163/10/5
f 165/10/5 161/10/5 155/10/5
f 165/10/5 162/10/5 161/10/5
f 166/10/5 164/10/5 165/10/5
f 167/10/5 164/10/5 166/10/5
f 168/10/5 160/10/5 164/10/5
f 168/10/5 164/10/5 167/10/5
f 169/10/5 165/10/5 155/10/5
f 170/10/5 165/10/5 169/10/5
f 171/10/5 167/10/5 166/10/5
f 172/10/5 167/10/5 171/10/5
f 173/10/5 160/10/5 168/10/5
f 174/10/5 160/10/5 173/10/5
f 177/3/5 176/3/5 175/3/5
f 178/3/5 176/3/5 177/3/5
f 179/3/5 177/3/5 175/3/5
f 180/1/5 178/1/5 177/1/5
f 180/3/5 177/3/5 179/3/5
f 181/1/5 178/1/5 180/1/5
f 182/1/5 178/1/5 181/1/5
f 183/1/5 178/1/5 182/1/5
f 184/1/5 178/1/5 183/1/5
f 185/1/5 178/1/5 184/1/5
f 192/1/5 178/1/5 185/1/5
f 193/1/5 191/1/5 190/1/5
f 193/1/5 192/1/5 191/1/5
f 193/3/5 187/3/5 186/3/5
f 193/1/5 188/1/5 187/1/5
f 193/1/5 190/1/5 189/1/5
f 193/1/5 189/1/5 188/1/5
f 194/3/5 176/3/5 178/3/5
f 194/1/5 192/1/5 193/1/5
f 194/1/5 178/1/5 192/1/5
f 195/3/5 193/3/5 186/3/5
f 195/3/5 194/3/5 193/3/5
f 196/3/5 176/3/5 194/3/5
f 196/3/5 194/3/5 195/3/5
f 197/3/6 198/3/6 199/3/6
f 199/3/6 198/3/6 200/3/6
f 197/3/6 199/3/6 201/3/6
f 199/1/6 200/1/6 201/1/6
f 200/3/6 198/3/6 202/3/6
f 201/1/6 200/1/6 202/1/6
f 197/3/6 201/3/6 203/3/6
f 201/3/6 202/3/6 203/3/6
f 202/3/6 198/3/6 204/3/6
f 203/3/6 202/3/6 204/3/6
