# MagicaVoxel @ Ephtracy

# material
mtllib Chicken.mtl
usemtl palette

# normals
vn -1 0 0
vn 1 0 0
vn 0 0 1
vn 0 0 -1
vn 0 -1 0
vn 0 1 0

# texcoords
vt 0.00195313 0.5
vt 0.0644531 0.5
vt 0.0917969 0.5
vt 0.138672 0.5
vt 0.255859 0.5
vt 0.306641 0.5
vt 0.994141 0.5

# verts
v -13 10 9
v -13 10 -9
v -13 20 9
v -13 20 -9
v -9 8 14
v -9 8 -16
v -9 10 9
v -9 10 -9
v -9 20 9
v -9 20 -9
v -9 22 -4
v -9 22 -16
v -9 30 10
v -9 30 7
v -9 33 10
v -9 33 7
v -9 37 14
v -9 37 -4
v -8 0 8
v -8 0 -4
v -8 2 8
v -8 2 -4
v -7 8 -16
v -7 8 -18
v -7 22 -16
v -7 22 -18
v -6 2 2
v -6 2 -0
v -6 8 2
v -6 8 -0
v -4 0 8
v -4 0 5
v -4 2 8
v -4 2 5
v -3 23 18
v -3 23 14
v -3 27 20
v -3 27 18
v -3 32 20
v -3 32 14
v -3 37 11
v -3 37 1
v -3 40 11
v -3 40 1
v 2 0 8
v 2 0 -4
v 2 2 8
v 2 2 -4
v 4 2 2
v 4 2 -0
v 4 8 2
v 4 8 -0
v 6 0 8
v 6 0 5
v 6 2 8
v 6 2 5
v -6 0 8
v -6 0 5
v -6 2 8
v -6 2 5
v -4 2 2
v -4 2 -0
v -4 8 2
v -4 8 -0
v -2 0 8
v -2 0 -4
v -2 2 8
v -2 2 -4
v 3 23 18
v 3 23 14
v 3 27 20
v 3 27 18
v 3 32 20
v 3 32 14
v 3 37 11
v 3 37 1
v 3 40 11
v 3 40 1
v 4 0 8
v 4 0 5
v 4 2 8
v 4 2 5
v 6 2 2
v 6 2 -0
v 6 8 2
v 6 8 -0
v 7 8 -16
v 7 8 -18
v 7 22 -16
v 7 22 -18
v 8 0 8
v 8 0 -4
v 8 2 8
v 8 2 -4
v 9 8 14
v 9 8 -16
v 9 10 9
v 9 10 -9
v 9 20 9
v 9 20 -9
v 9 22 -4
v 9 22 -16
v 9 30 10
v 9 30 7
v 9 33 10
v 9 33 7
v 9 37 14
v 9 37 -4
v 13 10 9
v 13 10 -9
v 13 20 9
v 13 20 -9
v -3 27 20
v -3 32 20
v 3 27 20
v 3 32 20
v -3 23 18
v -3 27 18
v -2 27 18
v 2 27 18
v 3 23 18
v 3 27 18
v -9 8 14
v -9 37 14
v -3 23 14
v -3 32 14
v -2 23 14
v 2 23 14
v 3 23 14
v 3 32 14
v 9 8 14
v 9 37 14
v -3 37 11
v -3 40 11
v 3 37 11
v 3 40 11
v -13 10 9
v -13 20 9
v -9 10 9
v -9 20 9
v 9 10 9
v 9 20 9
v 13 10 9
v 13 20 9
v -8 0 8
v -8 2 8
v -6 0 8
v -6 2 8
v -4 0 8
v -4 2 8
v -2 0 8
v -2 2 8
v 2 0 8
v 2 2 8
v 4 0 8
v 4 2 8
v 6 0 8
v 6 2 8
v 8 0 8
v 8 2 8
v -6 0 5
v -6 2 5
v -4 0 5
v -4 2 5
v 4 0 5
v 4 2 5
v 6 0 5
v 6 2 5
v -6 2 2
v -6 8 2
v -4 2 2
v -4 8 2
v 4 2 2
v 4 8 2
v 6 2 2
v 6 8 2
v -3 37 1
v -3 40 1
v 3 37 1
v 3 40 1
v -6 2 -0
v -6 8 -0
v -4 2 -0
v -4 8 -0
v 4 2 -0
v 4 8 -0
v 6 2 -0
v 6 8 -0
v -9 22 -4
v -9 37 -4
v -8 0 -4
v -8 2 -4
v -2 0 -4
v -2 2 -4
v 2 0 -4
v 2 2 -4
v 8 0 -4
v 8 2 -4
v 9 22 -4
v 9 37 -4
v -13 10 -9
v -13 20 -9
v -9 10 -9
v -9 20 -9
v 9 10 -9
v 9 20 -9
v 13 10 -9
v 13 20 -9
v -9 8 -16
v -9 22 -16
v -7 8 -16
v -7 22 -16
v 7 8 -16
v 7 22 -16
v 9 8 -16
v 9 22 -16
v -7 8 -18
v -7 22 -18
v 7 8 -18
v 7 22 -18
v -8 0 8
v -6 0 8
v -4 0 8
v -2 0 8
v 2 0 8
v 4 0 8
v 6 0 8
v 8 0 8
v -6 0 5
v -4 0 5
v 4 0 5
v 6 0 5
v -8 0 -4
v -2 0 -4
v 2 0 -4
v 8 0 -4
v -9 8 14
v 9 8 14
v -6 8 2
v -4 8 2
v 4 8 2
v 6 8 2
v -6 8 -0
v -4 8 -0
v 4 8 -0
v 6 8 -0
v -9 8 -16
v -7 8 -16
v 7 8 -16
v 9 8 -16
v -7 8 -18
v 7 8 -18
v -13 10 9
v -9 10 9
v 9 10 9
v 13 10 9
v -13 10 -9
v -9 10 -9
v 9 10 -9
v 13 10 -9
v -3 23 18
v 3 23 18
v -2 23 17
v 2 23 17
v -3 23 14
v -2 23 14
v 2 23 14
v 3 23 14
v -3 27 20
v 3 27 20
v -2 27 19
v 2 27 19
v -3 27 18
v -2 27 18
v 2 27 18
v 3 27 18
v -8 2 8
v -6 2 8
v -4 2 8
v -2 2 8
v 2 2 8
v 4 2 8
v 6 2 8
v 8 2 8
v -6 2 5
v -4 2 5
v 4 2 5
v 6 2 5
v -6 2 2
v -4 2 2
v 4 2 2
v 6 2 2
v -6 2 -0
v -4 2 -0
v 4 2 -0
v 6 2 -0
v -8 2 -4
v -2 2 -4
v 2 2 -4
v 8 2 -4
v -13 20 9
v -9 20 9
v 9 20 9
v 13 20 9
v -13 20 -9
v -9 20 -9
v 9 20 -9
v 13 20 -9
v -9 22 -4
v 9 22 -4
v -9 22 -16
v -7 22 -16
v 7 22 -16
v 9 22 -16
v -7 22 -18
v 7 22 -18
v -3 32 20
v 3 32 20
v -3 32 14
v 3 32 14
v -9 37 14
v 9 37 14
v -3 37 11
v 3 37 11
v -3 37 1
v 3 37 1
v -9 37 -4
v 9 37 -4
v -3 40 11
v 3 40 11
v -3 40 1
v 3 40 1

# faces
f 3/1/1 2/1/1 1/1/1
f 4/1/1 2/1/1 3/1/1
f 7/1/1 6/1/1 5/1/1
f 8/1/1 6/1/1 7/1/1
f 9/1/1 7/1/1 5/1/1
f 10/1/1 6/1/1 8/1/1
f 11/1/1 10/1/1 9/1/1
f 12/1/1 6/1/1 10/1/1
f 12/1/1 10/1/1 11/1/1
f 13/1/1 9/1/1 5/1/1
f 13/1/1 11/1/1 9/1/1
f 14/1/1 11/1/1 13/1/1
f 15/1/1 13/1/1 5/1/1
f 15/7/1 14/7/1 13/7/1
f 16/1/1 11/1/1 14/1/1
f 16/7/1 14/7/1 15/7/1
f 17/1/1 15/1/1 5/1/1
f 17/1/1 16/1/1 15/1/1
f 18/1/1 11/1/1 16/1/1
f 18/1/1 16/1/1 17/1/1
f 21/2/1 20/2/1 19/2/1
f 22/2/1 20/2/1 21/2/1
f 25/1/1 24/1/1 23/1/1
f 26/1/1 24/1/1 25/1/1
f 29/2/1 28/2/1 27/2/1
f 30/2/1 28/2/1 29/2/1
f 33/2/1 32/2/1 31/2/1
f 34/2/1 32/2/1 33/2/1
f 38/3/1 36/3/1 35/3/1
f 39/3/1 38/3/1 37/3/1
f 40/3/1 36/3/1 38/3/1
f 40/3/1 38/3/1 39/3/1
f 43/4/1 42/4/1 41/4/1
f 44/4/1 42/4/1 43/4/1
f 47/2/1 46/2/1 45/2/1
f 48/2/1 46/2/1 47/2/1
f 51/2/1 50/2/1 49/2/1
f 52/2/1 50/2/1 51/2/1
f 55/2/1 54/2/1 53/2/1
f 56/2/1 54/2/1 55/2/1
f 57/2/2 58/2/2 59/2/2
f 59/2/2 58/2/2 60/2/2
f 61/2/2 62/2/2 63/2/2
f 63/2/2 62/2/2 64/2/2
f 65/2/2 66/2/2 67/2/2
f 67/2/2 66/2/2 68/2/2
f 69/3/2 70/3/2 72/3/2
f 71/3/2 72/3/2 73/3/2
f 72/3/2 70/3/2 74/3/2
f 73/3/2 72/3/2 74/3/2
f 75/4/2 76/4/2 77/4/2
f 77/4/2 76/4/2 78/4/2
f 79/2/2 80/2/2 81/2/2
f 81/2/2 80/2/2 82/2/2
f 83/2/2 84/2/2 85/2/2
f 85/2/2 84/2/2 86/2/2
f 87/1/2 88/1/2 89/1/2
f 89/1/2 88/1/2 90/1/2
f 91/2/2 92/2/2 93/2/2
f 93/2/2 92/2/2 94/2/2
f 95/1/2 96/1/2 97/1/2
f 97/1/2 96/1/2 98/1/2
f 95/1/2 97/1/2 99/1/2
f 98/1/2 96/1/2 100/1/2
f 99/1/2 100/1/2 101/1/2
f 100/1/2 96/1/2 102/1/2
f 101/1/2 100/1/2 102/1/2
f 95/1/2 99/1/2 103/1/2
f 99/1/2 101/1/2 103/1/2
f 103/1/2 101/1/2 104/1/2
f 95/1/2 103/1/2 105/1/2
f 103/7/2 104/7/2 105/7/2
f 104/1/2 101/1/2 106/1/2
f 105/7/2 104/7/2 106/7/2
f 95/1/2 105/1/2 107/1/2
f 105/1/2 106/1/2 107/1/2
f 106/1/2 101/1/2 108/1/2
f 107/1/2 106/1/2 108/1/2
f 109/1/2 110/1/2 111/1/2
f 111/1/2 110/1/2 112/1/2
f 115/3/3 114/3/3 113/3/3
f 116/3/3 114/3/3 115/3/3
f 119/3/3 118/3/3 117/3/3
f 120/3/3 119/3/3 117/3/3
f 121/3/3 120/3/3 117/3/3
f 122/3/3 120/3/3 121/3/3
f 125/1/3 124/1/3 123/1/3
f 126/1/3 124/1/3 125/1/3
f 127/1/3 125/1/3 123/1/3
f 128/1/3 127/1/3 123/1/3
f 129/1/3 128/1/3 123/1/3
f 130/1/3 124/1/3 126/1/3
f 131/1/3 129/1/3 123/1/3
f 131/1/3 130/1/3 129/1/3
f 132/1/3 124/1/3 130/1/3
f 132/1/3 130/1/3 131/1/3
f 135/4/3 134/4/3 133/4/3
f 136/4/3 134/4/3 135/4/3
f 139/1/3 138/1/3 137/1/3
f 140/1/3 138/1/3 139/1/3
f 143/1/3 142/1/3 141/1/3
f 144/1/3 142/1/3 143/1/3
f 147/2/3 146/2/3 145/2/3
f 148/2/3 146/2/3 147/2/3
f 151/2/3 150/2/3 149/2/3
f 152/2/3 150/2/3 151/2/3
f 155/2/3 154/2/3 153/2/3
f 156/2/3 154/2/3 155/2/3
f 159/2/3 158/2/3 157/2/3
f 160/2/3 158/2/3 159/2/3
f 163/2/3 162/2/3 161/2/3
f 164/2/3 162/2/3 163/2/3
f 167/2/3 166/2/3 165/2/3
f 168/2/3 166/2/3 167/2/3
f 171/2/3 170/2/3 169/2/3
f 172/2/3 170/2/3 171/2/3
f 175/2/3 174/2/3 173/2/3
f 176/2/3 174/2/3 175/2/3
f 177/4/4 178/4/4 179/4/4
f 179/4/4 178/4/4 180/4/4
f 181/2/4 182/2/4 183/2/4
f 183/2/4 182/2/4 184/2/4
f 185/2/4 186/2/4 187/2/4
f 187/2/4 186/2/4 188/2/4
f 191/2/4 192/2/4 193/2/4
f 193/2/4 192/2/4 194/2/4
f 195/2/4 196/2/4 197/2/4
f 197/2/4 196/2/4 198/2/4
f 189/1/4 190/1/4 199/1/4
f 199/1/4 190/1/4 200/1/4
f 201/1/4 202/1/4 203/1/4
f 203/1/4 202/1/4 204/1/4
f 205/1/4 206/1/4 207/1/4
f 207/1/4 206/1/4 208/1/4
f 209/1/4 210/1/4 211/1/4
f 211/1/4 210/1/4 212/1/4
f 213/1/4 214/1/4 215/1/4
f 215/1/4 214/1/4 216/1/4
f 217/1/4 218/1/4 219/1/4
f 219/1/4 218/1/4 220/1/4
f 229/2/5 222/2/5 221/2/5
f 230/2/5 224/2/5 223/2/5
f 231/2/5 226/2/5 225/2/5
f 232/2/5 228/2/5 227/2/5
f 233/2/5 229/2/5 221/2/5
f 233/2/5 230/2/5 229/2/5
f 234/2/5 224/2/5 230/2/5
f 234/2/5 230/2/5 233/2/5
f 235/2/5 231/2/5 225/2/5
f 235/2/5 232/2/5 231/2/5
f 236/2/5 228/2/5 232/2/5
f 236/2/5 232/2/5 235/2/5
f 239/1/5 238/1/5 237/1/5
f 240/1/5 238/1/5 239/1/5
f 241/1/5 238/1/5 240/1/5
f 242/1/5 238/1/5 241/1/5
f 243/1/5 239/1/5 237/1/5
f 244/1/5 241/1/5 240/1/5
f 245/1/5 241/1/5 244/1/5
f 246/1/5 238/1/5 242/1/5
f 247/1/5 245/1/5 244/1/5
f 247/1/5 246/1/5 245/1/5
f 247/1/5 243/1/5 237/1/5
f 247/1/5 244/1/5 243/1/5
f 248/1/5 246/1/5 247/1/5
f 249/1/5 238/1/5 246/1/5
f 249/1/5 246/1/5 248/1/5
f 250/1/5 238/1/5 249/1/5
f 251/1/5 249/1/5 248/1/5
f 252/1/5 249/1/5 251/1/5
f 257/1/5 254/1/5 253/1/5
f 258/1/5 254/1/5 257/1/5
f 259/1/5 256/1/5 255/1/5
f 260/1/5 256/1/5 259/1/5
f 263/3/5 262/3/5 261/3/5
f 264/3/5 262/3/5 263/3/5
f 265/3/5 263/3/5 261/3/5
f 266/5/5 264/5/5 263/5/5
f 266/3/5 263/3/5 265/3/5
f 267/3/5 262/3/5 264/3/5
f 267/5/5 264/5/5 266/5/5
f 268/3/5 262/3/5 267/3/5
f 271/3/5 270/3/5 269/3/5
f 272/3/5 270/3/5 271/3/5
f 273/3/5 271/3/5 269/3/5
f 274/5/5 272/5/5 271/5/5
f 274/3/5 271/3/5 273/3/5
f 275/3/5 270/3/5 272/3/5
f 275/5/5 272/5/5 274/5/5
f 276/3/5 270/3/5 275/3/5
f 277/2/6 278/2/6 285/2/6
f 279/2/6 280/2/6 286/2/6
f 281/2/6 282/2/6 287/2/6
f 283/2/6 284/2/6 288/2/6
f 277/2/6 285/2/6 289/2/6
f 285/2/6 286/2/6 289/2/6
f 286/2/6 280/2/6 290/2/6
f 289/2/6 286/2/6 290/2/6
f 281/2/6 287/2/6 291/2/6
f 287/2/6 288/2/6 291/2/6
f 288/2/6 284/2/6 292/2/6
f 291/2/6 288/2/6 292/2/6
f 277/2/6 289/2/6 293/2/6
f 290/2/6 280/2/6 294/2/6
f 281/2/6 291/2/6 295/2/6
f 292/2/6 284/2/6 296/2/6
f 277/2/6 293/2/6 297/2/6
f 293/2/6 294/2/6 297/2/6
f 294/2/6 280/2/6 298/2/6
f 297/2/6 294/2/6 298/2/6
f 295/2/6 296/2/6 299/2/6
f 281/2/6 295/2/6 299/2/6
f 296/2/6 284/2/6 300/2/6
f 299/2/6 296/2/6 300/2/6
f 301/1/6 302/1/6 305/1/6
f 305/1/6 302/1/6 306/1/6
f 303/1/6 304/1/6 307/1/6
f 307/1/6 304/1/6 308/1/6
f 309/1/6 310/1/6 311/1/6
f 311/1/6 310/1/6 312/1/6
f 312/1/6 310/1/6 313/1/6
f 313/1/6 310/1/6 314/1/6
f 312/1/6 313/1/6 315/1/6
f 315/1/6 313/1/6 316/1/6
f 317/3/6 318/3/6 319/3/6
f 319/3/6 318/3/6 320/3/6
f 321/1/6 322/1/6 323/1/6
f 323/1/6 322/1/6 324/1/6
f 321/1/6 323/1/6 325/1/6
f 324/1/6 322/1/6 326/1/6
f 321/1/6 325/1/6 327/1/6
f 325/1/6 326/1/6 327/1/6
f 326/1/6 322/1/6 328/1/6
f 327/1/6 326/1/6 328/1/6
f 329/4/6 330/4/6 331/4/6
f 331/4/6 330/4/6 332/4/6
