# MagicaVoxel @ Ephtracy

# group
g Cotxe

# material
mtllib Cotxe.mtl
usemtl palette

# normals
vn -1 0 0
vn 1 0 0
vn 0 0 1
vn 0 0 -1
vn 0 -1 0
vn 0 1 0

# texcoords
vt 0.306641 0.5
vt 0.685547 0.5
vt 0.751953 0.5
vt 0.775391 0.5
vt 0.779297 0.5
vt 0.958984 0.5
vt 0.966797 0.5
vt 0.974609 0.5
vt 0.978516 0.5
vt 0.994141 0.5

# verts
v -58 4 18
v -58 4 -18
v -58 7 18
v -58 7 -18
v -58 14 18
v -58 14 -18
v -58 16 16
v -58 16 7
v -58 16 -7
v -58 16 -16
v -58 19 16
v -58 19 7
v -58 19 -7
v -58 19 -16
v -58 25 18
v -58 25 -18
v -53 25 15
v -53 25 13
v -53 25 -13
v -53 25 -15
v -53 36 13
v -53 36 -13
v -53 40 15
v -53 40 -15
v -48 0 18
v -48 0 14
v -48 0 -14
v -48 0 -18
v -48 4 18
v -48 4 17
v -48 4 14
v -48 4 -14
v -48 4 -17
v -48 4 -18
v -5 20 20
v -5 20 18
v -5 20 -18
v -5 20 -20
v -5 25 20
v -5 25 18
v -5 25 -18
v -5 25 -20
v 32 0 18
v 32 0 14
v 32 0 -14
v 32 0 -18
v 32 4 18
v 32 4 17
v 32 4 14
v 32 4 -14
v 32 4 -17
v 32 4 -18
v -33 0 18
v -33 0 14
v -33 0 -14
v -33 0 -18
v -33 4 18
v -33 4 17
v -33 4 14
v -33 4 -14
v -33 4 -17
v -33 4 -18
v 7 20 20
v 7 20 18
v 7 20 -18
v 7 20 -20
v 7 25 20
v 7 25 18
v 7 25 15
v 7 25 14
v 7 25 7
v 7 25 -7
v 7 25 -14
v 7 25 -15
v 7 25 -18
v 7 25 -20
v 7 36 14
v 7 36 -14
v 7 40 15
v 7 40 -15
v 47 0 18
v 47 0 14
v 47 0 -14
v 47 0 -18
v 47 4 18
v 47 4 17
v 47 4 14
v 47 4 -14
v 47 4 -17
v 47 4 -18
v 58 4 18
v 58 4 -18
v 58 7 18
v 58 7 -18
v 58 14 18
v 58 14 16
v 58 14 7
v 58 14 -7
v 58 14 -16
v 58 14 -18
v 58 19 16
v 58 19 7
v 58 19 -7
v 58 19 -16
v 58 25 18
v 58 25 7
v 58 25 -7
v 58 25 -18
v -5 20 20
v -5 25 20
v 7 20 20
v 7 25 20
v -58 4 18
v -58 7 18
v -58 14 18
v -58 25 18
v -48 0 18
v -48 4 18
v -48 7 18
v -48 12 18
v -44 4 18
v -44 9 18
v -37 4 18
v -37 9 18
v -33 0 18
v -33 4 18
v -33 7 18
v -33 12 18
v -5 20 18
v -5 25 18
v 7 20 18
v 7 25 18
v 32 0 18
v 32 4 18
v 32 7 18
v 32 13 18
v 36 4 18
v 36 9 18
v 43 4 18
v 43 9 18
v 47 0 18
v 47 4 18
v 47 7 18
v 47 13 18
v 58 4 18
v 58 7 18
v 58 14 18
v 58 25 18
v -53 25 15
v -53 40 15
v -51 25 15
v -51 36 15
v -26 25 15
v -26 36 15
v -22 25 15
v -22 36 15
v 4 25 15
v 4 36 15
v 7 25 15
v 7 40 15
v -48 0 -14
v -48 4 -14
v -33 0 -14
v -33 4 -14
v 32 0 -14
v 32 4 -14
v 47 0 -14
v 47 4 -14
v -48 0 14
v -48 4 14
v -33 0 14
v -33 4 14
v 32 0 14
v 32 4 14
v 47 0 14
v 47 4 14
v -53 25 -15
v -53 40 -15
v -51 25 -15
v -51 36 -15
v -26 25 -15
v -26 36 -15
v -22 25 -15
v -22 36 -15
v 4 25 -15
v 4 36 -15
v 7 25 -15
v 7 40 -15
v -58 4 -18
v -58 7 -18
v -58 14 -18
v -58 25 -18
v -48 0 -18
v -48 4 -18
v -48 7 -18
v -48 12 -18
v -44 4 -18
v -44 9 -18
v -37 4 -18
v -37 9 -18
v -33 0 -18
v -33 4 -18
v -33 7 -18
v -33 12 -18
v -5 20 -18
v -5 25 -18
v 7 20 -18
v 7 25 -18
v 32 0 -18
v 32 4 -18
v 32 7 -18
v 32 13 -18
v 36 4 -18
v 36 9 -18
v 43 4 -18
v 43 9 -18
v 47 0 -18
v 47 4 -18
v 47 7 -18
v 47 13 -18
v 58 4 -18
v 58 7 -18
v 58 14 -18
v 58 25 -18
v -5 20 -20
v -5 25 -20
v 7 20 -20
v 7 25 -20
v -48 0 18
v -33 0 18
v 32 0 18
v 47 0 18
v -48 0 14
v -33 0 14
v 32 0 14
v 47 0 14
v -48 0 -14
v -33 0 -14
v 32 0 -14
v 47 0 -14
v -48 0 -18
v -33 0 -18
v 32 0 -18
v 47 0 -18
v -58 4 18
v -48 4 18
v -33 4 18
v 32 4 18
v 47 4 18
v 58 4 18
v -57 4 17
v -48 4 17
v -33 4 17
v 32 4 17
v 47 4 17
v 57 4 17
v -48 4 14
v -33 4 14
v 32 4 14
v 47 4 14
v -48 4 -14
v -33 4 -14
v 32 4 -14
v 47 4 -14
v -57 4 -17
v -48 4 -17
v -33 4 -17
v 32 4 -17
v 47 4 -17
v 57 4 -17
v -58 4 -18
v -48 4 -18
v -33 4 -18
v 32 4 -18
v 47 4 -18
v 58 4 -18
v -5 20 20
v 7 20 20
v -5 20 18
v 7 20 18
v -5 20 -18
v 7 20 -18
v -5 20 -20
v 7 20 -20
v -5 25 20
v 7 25 20
v -58 25 18
v -5 25 18
v 7 25 18
v 58 25 18
v -53 25 15
v -51 25 15
v -26 25 15
v -22 25 15
v 4 25 15
v 7 25 15
v 7 25 14
v -53 25 13
v 7 25 7
v 58 25 7
v 7 25 -7
v 58 25 -7
v -53 25 -13
v 7 25 -14
v -53 25 -15
v -51 25 -15
v -26 25 -15
v -22 25 -15
v 4 25 -15
v 7 25 -15
v -58 25 -18
v -5 25 -18
v 7 25 -18
v 58 25 -18
v -5 25 -20
v 7 25 -20
v -53 40 15
v 7 40 15
v -53 40 -15
v 7 40 -15

# faces
f 3/8/1 2/8/1 1/8/1
f 4/8/1 2/8/1 3/8/1
f 5/2/1 4/2/1 3/2/1
f 6/2/1 4/2/1 5/2/1
f 7/4/1 6/4/1 5/4/1
f 8/4/1 6/4/1 7/4/1
f 9/4/1 6/4/1 8/4/1
f 10/4/1 6/4/1 9/4/1
f 11/4/1 7/4/1 5/4/1
f 11/7/1 8/7/1 7/7/1
f 12/4/1 9/4/1 8/4/1
f 12/7/1 8/7/1 11/7/1
f 13/7/1 10/7/1 9/7/1
f 13/4/1 9/4/1 12/4/1
f 14/4/1 6/4/1 10/4/1
f 14/7/1 10/7/1 13/7/1
f 15/4/1 13/4/1 12/4/1
f 15/4/1 12/4/1 11/4/1
f 15/4/1 14/4/1 13/4/1
f 15/4/1 11/4/1 5/4/1
f 16/4/1 6/4/1 14/4/1
f 16/4/1 14/4/1 15/4/1
f 21/3/1 18/3/1 17/3/1
f 21/6/1 19/6/1 18/6/1
f 22/3/1 20/3/1 19/3/1
f 22/6/1 19/6/1 21/6/1
f 23/3/1 21/3/1 17/3/1
f 23/3/1 22/3/1 21/3/1
f 24/3/1 20/3/1 22/3/1
f 24/3/1 22/3/1 23/3/1
f 29/10/1 26/10/1 25/10/1
f 30/10/1 26/10/1 29/10/1
f 31/10/1 26/10/1 30/10/1
f 32/10/1 28/10/1 27/10/1
f 33/10/1 28/10/1 32/10/1
f 34/10/1 28/10/1 33/10/1
f 39/5/1 36/5/1 35/5/1
f 40/5/1 36/5/1 39/5/1
f 41/5/1 38/5/1 37/5/1
f 42/5/1 38/5/1 41/5/1
f 47/10/1 44/10/1 43/10/1
f 48/10/1 44/10/1 47/10/1
f 49/10/1 44/10/1 48/10/1
f 50/10/1 46/10/1 45/10/1
f 51/10/1 46/10/1 50/10/1
f 52/10/1 46/10/1 51/10/1
f 53/10/2 54/10/2 57/10/2
f 57/10/2 54/10/2 58/10/2
f 58/10/2 54/10/2 59/10/2
f 55/10/2 56/10/2 60/10/2
f 60/10/2 56/10/2 61/10/2
f 61/10/2 56/10/2 62/10/2
f 63/5/2 64/5/2 67/5/2
f 67/5/2 64/5/2 68/5/2
f 65/5/2 66/5/2 75/5/2
f 75/5/2 66/5/2 76/5/2
f 69/3/2 70/3/2 77/3/2
f 70/6/2 71/6/2 77/6/2
f 72/6/2 73/6/2 77/6/2
f 71/6/2 72/6/2 77/6/2
f 73/3/2 74/3/2 78/3/2
f 77/6/2 73/6/2 78/6/2
f 69/3/2 77/3/2 79/3/2
f 77/3/2 78/3/2 79/3/2
f 78/3/2 74/3/2 80/3/2
f 79/3/2 78/3/2 80/3/2
f 81/10/2 82/10/2 85/10/2
f 85/10/2 82/10/2 86/10/2
f 86/10/2 82/10/2 87/10/2
f 83/10/2 84/10/2 88/10/2
f 88/10/2 84/10/2 89/10/2
f 89/10/2 84/10/2 90/10/2
f 91/8/2 92/8/2 93/8/2
f 93/8/2 92/8/2 94/8/2
f 93/2/2 94/2/2 95/2/2
f 95/2/2 94/2/2 96/2/2
f 96/2/2 94/2/2 97/2/2
f 97/2/2 94/2/2 98/2/2
f 98/2/2 94/2/2 99/2/2
f 99/2/2 94/2/2 100/2/2
f 95/4/2 96/4/2 101/4/2
f 96/7/2 97/7/2 101/7/2
f 97/2/2 98/2/2 102/2/2
f 101/7/2 97/7/2 102/7/2
f 98/7/2 99/7/2 103/7/2
f 102/2/2 98/2/2 103/2/2
f 99/4/2 100/4/2 104/4/2
f 103/7/2 99/7/2 104/7/2
f 95/4/2 101/4/2 105/4/2
f 101/4/2 102/4/2 105/4/2
f 102/2/2 103/2/2 106/2/2
f 105/4/2 102/4/2 106/4/2
f 103/4/2 104/4/2 107/4/2
f 106/2/2 103/2/2 107/2/2
f 104/4/2 100/4/2 108/4/2
f 107/4/2 104/4/2 108/4/2
f 111/5/3 110/5/3 109/5/3
f 112/5/3 110/5/3 111/5/3
f 118/8/3 114/8/3 113/8/3
f 119/2/3 115/2/3 114/2/3
f 119/8/3 114/8/3 118/8/3
f 120/2/3 115/2/3 119/2/3
f 121/10/3 118/10/3 117/10/3
f 121/10/3 119/10/3 118/10/3
f 121/10/3 120/10/3 119/10/3
f 122/10/3 120/10/3 121/10/3
f 123/10/3 121/10/3 117/10/3
f 123/9/3 122/9/3 121/9/3
f 124/10/3 120/10/3 122/10/3
f 124/9/3 122/9/3 123/9/3
f 125/10/3 123/10/3 117/10/3
f 125/10/3 124/10/3 123/10/3
f 126/10/3 124/10/3 125/10/3
f 127/10/3 124/10/3 126/10/3
f 128/2/3 115/2/3 120/2/3
f 128/10/3 124/10/3 127/10/3
f 128/10/3 120/10/3 124/10/3
f 129/4/3 116/4/3 115/4/3
f 130/4/3 116/4/3 129/4/3
f 131/4/3 129/4/3 115/4/3
f 134/8/3 127/8/3 126/8/3
f 135/2/3 128/2/3 127/2/3
f 135/8/3 127/8/3 134/8/3
f 136/2/3 115/2/3 128/2/3
f 136/2/3 128/2/3 135/2/3
f 137/10/3 135/10/3 134/10/3
f 137/10/3 134/10/3 133/10/3
f 137/10/3 136/10/3 135/10/3
f 138/10/3 136/10/3 137/10/3
f 139/10/3 137/10/3 133/10/3
f 139/9/3 138/9/3 137/9/3
f 140/10/3 136/10/3 138/10/3
f 140/9/3 138/9/3 139/9/3
f 141/10/3 139/10/3 133/10/3
f 141/10/3 140/10/3 139/10/3
f 142/10/3 140/10/3 141/10/3
f 143/10/3 140/10/3 142/10/3
f 144/2/3 115/2/3 136/2/3
f 144/10/3 140/10/3 143/10/3
f 144/10/3 136/10/3 140/10/3
f 145/8/3 143/8/3 142/8/3
f 146/2/3 144/2/3 143/2/3
f 146/8/3 143/8/3 145/8/3
f 147/2/3 115/2/3 144/2/3
f 147/2/3 144/2/3 146/2/3
f 147/4/3 132/4/3 131/4/3
f 147/4/3 131/4/3 115/4/3
f 148/4/3 132/4/3 147/4/3
f 151/3/3 150/3/3 149/3/3
f 152/3/3 150/3/3 151/3/3
f 153/6/3 152/6/3 151/6/3
f 154/3/3 150/3/3 152/3/3
f 154/6/3 152/6/3 153/6/3
f 155/3/3 154/3/3 153/3/3
f 156/3/3 150/3/3 154/3/3
f 156/3/3 154/3/3 155/3/3
f 157/6/3 156/6/3 155/6/3
f 158/3/3 150/3/3 156/3/3
f 158/6/3 156/6/3 157/6/3
f 159/3/3 158/3/3 157/3/3
f 160/3/3 150/3/3 158/3/3
f 160/3/3 158/3/3 159/3/3
f 163/10/3 162/10/3 161/10/3
f 164/10/3 162/10/3 163/10/3
f 167/10/3 166/10/3 165/10/3
f 168/10/3 166/10/3 167/10/3
f 169/10/4 170/10/4 171/10/4
f 171/10/4 170/10/4 172/10/4
f 173/10/4 174/10/4 175/10/4
f 175/10/4 174/10/4 176/10/4
f 177/3/4 178/3/4 179/3/4
f 179/3/4 178/3/4 180/3/4
f 179/6/4 180/6/4 181/6/4
f 180/3/4 178/3/4 182/3/4
f 181/6/4 180/6/4 182/6/4
f 181/3/4 182/3/4 183/3/4
f 182/3/4 178/3/4 184/3/4
f 183/3/4 182/3/4 184/3/4
f 183/6/4 184/6/4 185/6/4
f 184/3/4 178/3/4 186/3/4
f 185/6/4 184/6/4 186/6/4
f 185/3/4 186/3/4 187/3/4
f 186/3/4 178/3/4 188/3/4
f 187/3/4 186/3/4 188/3/4
f 189/8/4 190/8/4 194/8/4
f 190/2/4 191/2/4 195/2/4
f 194/8/4 190/8/4 195/8/4
f 195/2/4 191/2/4 196/2/4
f 193/10/4 194/10/4 197/10/4
f 194/10/4 195/10/4 197/10/4
f 195/10/4 196/10/4 197/10/4
f 197/10/4 196/10/4 198/10/4
f 193/10/4 197/10/4 199/10/4
f 197/9/4 198/9/4 199/9/4
f 198/10/4 196/10/4 200/10/4
f 199/9/4 198/9/4 200/9/4
f 193/10/4 199/10/4 201/10/4
f 199/10/4 200/10/4 201/10/4
f 201/10/4 200/10/4 202/10/4
f 202/10/4 200/10/4 203/10/4
f 196/2/4 191/2/4 204/2/4
f 203/10/4 200/10/4 204/10/4
f 200/10/4 196/10/4 204/10/4
f 191/4/4 192/4/4 205/4/4
f 205/4/4 192/4/4 206/4/4
f 191/4/4 205/4/4 207/4/4
f 202/8/4 203/8/4 210/8/4
f 203/2/4 204/2/4 211/2/4
f 210/8/4 203/8/4 211/8/4
f 204/2/4 191/2/4 212/2/4
f 211/2/4 204/2/4 212/2/4
f 210/10/4 211/10/4 213/10/4
f 209/10/4 210/10/4 213/10/4
f 211/10/4 212/10/4 213/10/4
f 213/10/4 212/10/4 214/10/4
f 209/10/4 213/10/4 215/10/4
f 213/9/4 214/9/4 215/9/4
f 214/10/4 212/10/4 216/10/4
f 215/9/4 214/9/4 216/9/4
f 209/10/4 215/10/4 217/10/4
f 215/10/4 216/10/4 217/10/4
f 217/10/4 216/10/4 218/10/4
f 218/10/4 216/10/4 219/10/4
f 212/2/4 191/2/4 220/2/4
f 219/10/4 216/10/4 220/10/4
f 216/10/4 212/10/4 220/10/4
f 218/8/4 219/8/4 221/8/4
f 219/2/4 220/2/4 222/2/4
f 221/8/4 219/8/4 222/8/4
f 220/2/4 191/2/4 223/2/4
f 222/2/4 220/2/4 223/2/4
f 207/4/4 208/4/4 223/4/4
f 191/4/4 207/4/4 223/4/4
f 223/4/4 208/4/4 224/4/4
f 225/5/4 226/5/4 227/5/4
f 227/5/4 226/5/4 228/5/4
f 233/10/5 230/10/5 229/10/5
f 234/10/5 230/10/5 233/10/5
f 235/10/5 232/10/5 231/10/5
f 236/10/5 232/10/5 235/10/5
f 241/10/5 238/10/5 237/10/5
f 242/10/5 238/10/5 241/10/5
f 243/10/5 240/10/5 239/10/5
f 244/10/5 240/10/5 243/10/5
f 251/8/5 246/8/5 245/8/5
f 252/8/5 246/8/5 251/8/5
f 253/8/5 248/8/5 247/8/5
f 254/8/5 248/8/5 253/8/5
f 255/8/5 250/8/5 249/8/5
f 256/8/5 250/8/5 255/8/5
f 257/4/5 252/4/5 251/4/5
f 258/4/5 254/4/5 253/4/5
f 259/4/5 254/4/5 258/4/5
f 260/4/5 256/4/5 255/4/5
f 261/4/5 257/4/5 251/4/5
f 261/4/5 260/4/5 259/4/5
f 261/4/5 259/4/5 258/4/5
f 261/4/5 258/4/5 257/4/5
f 262/4/5 260/4/5 261/4/5
f 263/4/5 260/4/5 262/4/5
f 264/4/5 256/4/5 260/4/5
f 264/4/5 260/4/5 263/4/5
f 265/8/5 251/8/5 245/8/5
f 265/4/5 261/4/5 251/4/5
f 266/4/5 261/4/5 265/4/5
f 267/4/5 263/4/5 262/4/5
f 268/4/5 263/4/5 267/4/5
f 269/4/5 256/4/5 264/4/5
f 270/8/5 250/8/5 256/8/5
f 270/4/5 256/4/5 269/4/5
f 271/8/5 266/8/5 265/8/5
f 271/8/5 265/8/5 245/8/5
f 272/8/5 266/8/5 271/8/5
f 273/8/5 268/8/5 267/8/5
f 274/8/5 268/8/5 273/8/5
f 275/8/5 270/8/5 269/8/5
f 276/8/5 250/8/5 270/8/5
f 276/8/5 270/8/5 275/8/5
f 279/5/5 278/5/5 277/5/5
f 280/5/5 278/5/5 279/5/5
f 283/5/5 282/5/5 281/5/5
f 284/5/5 282/5/5 283/5/5
f 285/5/6 286/5/6 288/5/6
f 288/5/6 286/5/6 289/5/6
f 287/4/6 288/4/6 291/4/6
f 289/4/6 290/4/6 291/4/6
f 288/4/6 289/4/6 291/4/6
f 291/4/6 290/4/6 292/4/6
f 292/4/6 290/4/6 293/4/6
f 293/4/6 290/4/6 294/4/6
f 294/4/6 290/4/6 295/4/6
f 295/4/6 290/4/6 296/4/6
f 296/4/6 290/4/6 297/4/6
f 287/4/6 291/4/6 298/4/6
f 297/4/6 290/4/6 299/4/6
f 299/4/6 290/4/6 300/4/6
f 299/2/6 300/2/6 301/2/6
f 301/2/6 300/2/6 302/2/6
f 287/4/6 298/4/6 303/4/6
f 301/4/6 302/4/6 304/4/6
f 287/4/6 303/4/6 305/4/6
f 304/4/6 302/4/6 310/4/6
f 308/4/6 309/4/6 311/4/6
f 309/4/6 310/4/6 311/4/6
f 287/4/6 305/4/6 311/4/6
f 305/4/6 306/4/6 311/4/6
f 307/4/6 308/4/6 311/4/6
f 306/4/6 307/4/6 311/4/6
f 311/4/6 310/4/6 312/4/6
f 310/4/6 302/4/6 313/4/6
f 312/4/6 310/4/6 313/4/6
f 313/4/6 302/4/6 314/4/6
f 312/5/6 313/5/6 315/5/6
f 315/5/6 313/5/6 316/5/6
f 317/3/6 318/3/6 319/3/6
f 319/3/6 318/3/6 320/3/6
