# MagicaVoxel @ Ephtracy

# group
g GrassWinter

# material
mtllib GrassWinter.mtl
usemtl palette

# normals
vn -1 0 0
vn 1 0 0
vn 0 0 1
vn 0 0 -1
vn 0 -1 0
vn 0 1 0

# texcoords
vt 0.341797 0.5
vt 0.560547 0.5
vt 0.916016 0.5

# verts
v -20 0 20
v -20 0 -20
v -20 4 20
v -20 4 -20
v -20 8 20
v -20 8 -20
v -15 8 17
v -15 8 10
v -15 9 17
v -15 9 10
v -14 8 -0
v -14 8 -12
v -14 9 -0
v -14 9 -12
v -7 8 10
v -7 8 3
v -7 9 10
v -7 9 3
v 0 8 -9
v 0 8 -19
v 0 9 -9
v 0 9 -19
v 4 8 15
v 4 8 14
v 4 9 15
v 4 9 14
v 13 8 -2
v 13 8 -11
v 13 9 -2
v 13 9 -11
v -7 8 17
v -7 8 14
v -7 9 17
v -7 9 14
v -2 8 -0
v -2 8 -12
v -2 9 -0
v -2 9 -12
v 9 8 -9
v 9 8 -19
v 9 9 -9
v 9 9 -19
v 17 8 15
v 17 8 3
v 17 9 15
v 17 9 3
v 20 0 20
v 20 0 -20
v 20 4 20
v 20 4 -20
v 20 8 20
v 20 8 -2
v 20 8 -11
v 20 8 -20
v 20 9 -2
v 20 9 -11
v -20 0 20
v -20 4 20
v -20 8 20
v 20 0 20
v 20 4 20
v 20 8 20
v -15 8 17
v -15 9 17
v -7 8 17
v -7 9 17
v 4 8 15
v 4 9 15
v 17 8 15
v 17 9 15
v -7 8 14
v -7 9 14
v 4 8 14
v 4 9 14
v -14 8 -0
v -14 9 -0
v -2 8 -0
v -2 9 -0
v 13 8 -2
v 13 9 -2
v 20 8 -2
v 20 9 -2
v 0 8 -9
v 0 9 -9
v 9 8 -9
v 9 9 -9
v -15 8 10
v -15 9 10
v -7 8 10
v -7 9 10
v -7 8 3
v -7 9 3
v 17 8 3
v 17 9 3
v 13 8 -11
v 13 9 -11
v 20 8 -11
v 20 9 -11
v -14 8 -12
v -14 9 -12
v -2 8 -12
v -2 9 -12
v 0 8 -19
v 0 9 -19
v 9 8 -19
v 9 9 -19
v -20 0 -20
v -20 4 -20
v -20 8 -20
v 20 0 -20
v 20 4 -20
v 20 8 -20
v -20 0 20
v 20 0 20
v -20 0 -20
v 20 0 -20
v -20 8 20
v 20 8 20
v -15 8 17
v -7 8 17
v 4 8 15
v 17 8 15
v -7 8 14
v 4 8 14
v -15 8 10
v -7 8 10
v -7 8 3
v 17 8 3
v -14 8 -0
v -2 8 -0
v 13 8 -2
v 20 8 -2
v 0 8 -9
v 9 8 -9
v 13 8 -11
v 20 8 -11
v -14 8 -12
v -2 8 -12
v 0 8 -19
v 9 8 -19
v -20 8 -20
v 20 8 -20
v -15 9 17
v -7 9 17
v 4 9 15
v 17 9 15
v -7 9 14
v 4 9 14
v -15 9 10
v -7 9 10
v -7 9 3
v 17 9 3
v -14 9 -0
v -2 9 -0
v 13 9 -2
v 20 9 -2
v 0 9 -9
v 9 9 -9
v 13 9 -11
v 20 9 -11
v -14 9 -12
v -2 9 -12
v 0 9 -19
v 9 9 -19

# faces
f 3/1/1 2/1/1 1/1/1
f 4/1/1 2/1/1 3/1/1
f 5/2/1 4/2/1 3/2/1
f 6/2/1 4/2/1 5/2/1
f 9/3/1 8/3/1 7/3/1
f 10/3/1 8/3/1 9/3/1
f 13/3/1 12/3/1 11/3/1
f 14/3/1 12/3/1 13/3/1
f 17/3/1 16/3/1 15/3/1
f 18/3/1 16/3/1 17/3/1
f 21/3/1 20/3/1 19/3/1
f 22/3/1 20/3/1 21/3/1
f 25/3/1 24/3/1 23/3/1
f 26/3/1 24/3/1 25/3/1
f 29/3/1 28/3/1 27/3/1
f 30/3/1 28/3/1 29/3/1
f 31/3/2 32/3/2 33/3/2
f 33/3/2 32/3/2 34/3/2
f 35/3/2 36/3/2 37/3/2
f 37/3/2 36/3/2 38/3/2
f 39/3/2 40/3/2 41/3/2
f 41/3/2 40/3/2 42/3/2
f 43/3/2 44/3/2 45/3/2
f 45/3/2 44/3/2 46/3/2
f 47/1/2 48/1/2 49/1/2
f 49/1/2 48/1/2 50/1/2
f 49/2/2 50/2/2 51/2/2
f 51/2/2 50/2/2 52/2/2
f 52/2/2 50/2/2 53/2/2
f 53/2/2 50/2/2 54/2/2
f 52/3/2 53/3/2 55/3/2
f 55/3/2 53/3/2 56/3/2
f 60/1/3 58/1/3 57/1/3
f 61/2/3 59/2/3 58/2/3
f 61/1/3 58/1/3 60/1/3
f 62/2/3 59/2/3 61/2/3
f 65/3/3 64/3/3 63/3/3
f 66/3/3 64/3/3 65/3/3
f 69/3/3 68/3/3 67/3/3
f 70/3/3 68/3/3 69/3/3
f 73/3/3 72/3/3 71/3/3
f 74/3/3 72/3/3 73/3/3
f 77/3/3 76/3/3 75/3/3
f 78/3/3 76/3/3 77/3/3
f 81/3/3 80/3/3 79/3/3
f 82/3/3 80/3/3 81/3/3
f 85/3/3 84/3/3 83/3/3
f 86/3/3 84/3/3 85/3/3
f 87/3/4 88/3/4 89/3/4
f 89/3/4 88/3/4 90/3/4
f 91/3/4 92/3/4 93/3/4
f 93/3/4 92/3/4 94/3/4
f 95/3/4 96/3/4 97/3/4
f 97/3/4 96/3/4 98/3/4
f 99/3/4 100/3/4 101/3/4
f 101/3/4 100/3/4 102/3/4
f 103/3/4 104/3/4 105/3/4
f 105/3/4 104/3/4 106/3/4
f 107/1/4 108/1/4 110/1/4
f 108/2/4 109/2/4 111/2/4
f 110/1/4 108/1/4 111/1/4
f 111/2/4 109/2/4 112/2/4
f 115/1/5 114/1/5 113/1/5
f 116/1/5 114/1/5 115/1/5
f 117/2/6 118/2/6 119/2/6
f 119/2/6 118/2/6 120/2/6
f 120/2/6 118/2/6 121/2/6
f 121/2/6 118/2/6 122/2/6
f 120/2/6 121/2/6 123/2/6
f 123/2/6 121/2/6 124/2/6
f 117/2/6 119/2/6 125/2/6
f 125/2/6 126/2/6 127/2/6
f 122/2/6 118/2/6 128/2/6
f 125/2/6 127/2/6 129/2/6
f 127/2/6 128/2/6 129/2/6
f 129/2/6 128/2/6 130/2/6
f 130/2/6 128/2/6 131/2/6
f 128/2/6 118/2/6 132/2/6
f 131/2/6 128/2/6 132/2/6
f 130/2/6 131/2/6 133/2/6
f 133/2/6 131/2/6 134/2/6
f 134/2/6 131/2/6 135/2/6
f 125/2/6 129/2/6 137/2/6
f 130/2/6 133/2/6 138/2/6
f 138/2/6 133/2/6 139/2/6
f 137/2/6 138/2/6 139/2/6
f 135/2/6 136/2/6 140/2/6
f 134/2/6 135/2/6 140/2/6
f 117/2/6 125/2/6 141/2/6
f 139/2/6 140/2/6 141/2/6
f 137/2/6 139/2/6 141/2/6
f 125/2/6 137/2/6 141/2/6
f 140/2/6 136/2/6 142/2/6
f 141/2/6 140/2/6 142/2/6
f 143/3/6 144/3/6 147/3/6
f 145/3/6 146/3/6 148/3/6
f 143/3/6 147/3/6 149/3/6
f 147/3/6 148/3/6 149/3/6
f 149/3/6 148/3/6 150/3/6
f 150/3/6 148/3/6 151/3/6
f 148/3/6 146/3/6 152/3/6
f 151/3/6 148/3/6 152/3/6
f 155/3/6 156/3/6 159/3/6
f 159/3/6 156/3/6 160/3/6
f 153/3/6 154/3/6 161/3/6
f 161/3/6 154/3/6 162/3/6
f 157/3/6 158/3/6 163/3/6
f 163/3/6 158/3/6 164/3/6
