# MagicaVoxel @ Ephtracy

# group
g GrassWinter2

# material
mtllib GrassWinter2.mtl
usemtl palette

# normals
vn -1 0 0
vn 1 0 0
vn 0 0 1
vn 0 0 -1
vn 0 -1 0
vn 0 1 0

# texcoords
vt 0.341797 0.5
vt 0.626953 0.5
vt 0.916016 0.5

# verts
v -20 0 20
v -20 0 -20
v -20 4 20
v -20 4 -20
v -20 8 20
v -20 8 -20
v -19 8 -6
v -19 8 -17
v -19 9 -6
v -19 9 -17
v -17 8 19
v -17 8 15
v -17 9 19
v -17 9 15
v -16 8 13
v -16 8 3
v -16 9 13
v -16 9 3
v -4 8 -1
v -4 8 -13
v -4 9 -1
v -4 9 -13
v 2 8 19
v 2 8 6
v 2 9 19
v 2 9 6
v 9 8 -7
v 9 8 -20
v 9 9 -7
v 9 9 -20
v -7 8 19
v -7 8 15
v -7 8 -6
v -7 8 -17
v -7 9 19
v -7 9 15
v -7 9 -6
v -7 9 -17
v -4 8 13
v -4 8 3
v -4 9 13
v -4 9 3
v 6 8 -1
v 6 8 -13
v 6 9 -1
v 6 9 -13
v 14 8 19
v 14 8 6
v 14 9 19
v 14 9 6
v 19 8 -7
v 19 8 -20
v 19 9 -7
v 19 9 -20
v 20 0 20
v 20 0 -20
v 20 4 20
v 20 4 -20
v 20 8 20
v 20 8 -20
v -20 0 20
v -20 4 20
v -20 8 20
v 20 0 20
v 20 4 20
v 20 8 20
v -17 8 19
v -17 9 19
v -7 8 19
v -7 9 19
v 2 8 19
v 2 9 19
v 14 8 19
v 14 9 19
v -16 8 13
v -16 9 13
v -4 8 13
v -4 9 13
v -4 8 -1
v -4 9 -1
v 6 8 -1
v 6 9 -1
v -19 8 -6
v -19 9 -6
v -7 8 -6
v -7 9 -6
v 9 8 -7
v 9 9 -7
v 19 8 -7
v 19 9 -7
v -17 8 15
v -17 9 15
v -7 8 15
v -7 9 15
v 2 8 6
v 2 9 6
v 14 8 6
v 14 9 6
v -16 8 3
v -16 9 3
v -4 8 3
v -4 9 3
v -4 8 -13
v -4 9 -13
v 6 8 -13
v 6 9 -13
v -19 8 -17
v -19 9 -17
v -7 8 -17
v -7 9 -17
v -20 0 -20
v -20 4 -20
v -20 8 -20
v 9 8 -20
v 9 9 -20
v 19 8 -20
v 19 9 -20
v 20 0 -20
v 20 4 -20
v 20 8 -20
v -20 0 20
v 20 0 20
v -20 0 -20
v 20 0 -20
v -20 8 20
v 20 8 20
v -17 8 19
v -7 8 19
v 2 8 19
v 14 8 19
v -17 8 15
v -7 8 15
v -16 8 13
v -4 8 13
v 2 8 6
v 14 8 6
v -16 8 3
v -4 8 3
v -4 8 -1
v 6 8 -1
v -19 8 -6
v -7 8 -6
v 9 8 -7
v 19 8 -7
v -4 8 -13
v 6 8 -13
v -19 8 -17
v -7 8 -17
v -20 8 -20
v 9 8 -20
v 19 8 -20
v 20 8 -20
v -17 9 19
v -7 9 19
v 2 9 19
v 14 9 19
v -17 9 15
v -7 9 15
v -16 9 13
v -4 9 13
v 2 9 6
v 14 9 6
v -16 9 3
v -4 9 3
v -4 9 -1
v 6 9 -1
v -19 9 -6
v -7 9 -6
v 9 9 -7
v 19 9 -7
v -4 9 -13
v 6 9 -13
v -19 9 -17
v -7 9 -17
v 9 9 -20
v 19 9 -20

# faces
f 3/1/1 2/1/1 1/1/1
f 4/1/1 2/1/1 3/1/1
f 5/2/1 4/2/1 3/2/1
f 6/2/1 4/2/1 5/2/1
f 9/3/1 8/3/1 7/3/1
f 10/3/1 8/3/1 9/3/1
f 13/3/1 12/3/1 11/3/1
f 14/3/1 12/3/1 13/3/1
f 17/3/1 16/3/1 15/3/1
f 18/3/1 16/3/1 17/3/1
f 21/3/1 20/3/1 19/3/1
f 22/3/1 20/3/1 21/3/1
f 25/3/1 24/3/1 23/3/1
f 26/3/1 24/3/1 25/3/1
f 29/3/1 28/3/1 27/3/1
f 30/3/1 28/3/1 29/3/1
f 31/3/2 32/3/2 35/3/2
f 35/3/2 32/3/2 36/3/2
f 33/3/2 34/3/2 37/3/2
f 37/3/2 34/3/2 38/3/2
f 39/3/2 40/3/2 41/3/2
f 41/3/2 40/3/2 42/3/2
f 43/3/2 44/3/2 45/3/2
f 45/3/2 44/3/2 46/3/2
f 47/3/2 48/3/2 49/3/2
f 49/3/2 48/3/2 50/3/2
f 51/3/2 52/3/2 53/3/2
f 53/3/2 52/3/2 54/3/2
f 55/1/2 56/1/2 57/1/2
f 57/1/2 56/1/2 58/1/2
f 57/2/2 58/2/2 59/2/2
f 59/2/2 58/2/2 60/2/2
f 64/1/3 62/1/3 61/1/3
f 65/2/3 63/2/3 62/2/3
f 65/1/3 62/1/3 64/1/3
f 66/2/3 63/2/3 65/2/3
f 69/3/3 68/3/3 67/3/3
f 70/3/3 68/3/3 69/3/3
f 73/3/3 72/3/3 71/3/3
f 74/3/3 72/3/3 73/3/3
f 77/3/3 76/3/3 75/3/3
f 78/3/3 76/3/3 77/3/3
f 81/3/3 80/3/3 79/3/3
f 82/3/3 80/3/3 81/3/3
f 85/3/3 84/3/3 83/3/3
f 86/3/3 84/3/3 85/3/3
f 89/3/3 88/3/3 87/3/3
f 90/3/3 88/3/3 89/3/3
f 91/3/4 92/3/4 93/3/4
f 93/3/4 92/3/4 94/3/4
f 95/3/4 96/3/4 97/3/4
f 97/3/4 96/3/4 98/3/4
f 99/3/4 100/3/4 101/3/4
f 101/3/4 100/3/4 102/3/4
f 103/3/4 104/3/4 105/3/4
f 105/3/4 104/3/4 106/3/4
f 107/3/4 108/3/4 109/3/4
f 109/3/4 108/3/4 110/3/4
f 112/2/4 113/2/4 114/2/4
f 112/2/4 114/2/4 116/2/4
f 114/3/4 115/3/4 116/3/4
f 116/3/4 115/3/4 117/3/4
f 111/1/4 112/1/4 118/1/4
f 112/2/4 116/2/4 119/2/4
f 118/1/4 112/1/4 119/1/4
f 119/2/4 116/2/4 120/2/4
f 123/1/5 122/1/5 121/1/5
f 124/1/5 122/1/5 123/1/5
f 125/2/6 126/2/6 127/2/6
f 127/2/6 126/2/6 128/2/6
f 128/2/6 126/2/6 129/2/6
f 129/2/6 126/2/6 130/2/6
f 125/2/6 127/2/6 131/2/6
f 128/2/6 129/2/6 132/2/6
f 131/2/6 132/2/6 133/2/6
f 132/2/6 129/2/6 134/2/6
f 133/2/6 132/2/6 134/2/6
f 134/2/6 129/2/6 135/2/6
f 130/2/6 126/2/6 136/2/6
f 131/2/6 133/2/6 137/2/6
f 134/2/6 135/2/6 138/2/6
f 135/2/6 136/2/6 138/2/6
f 138/2/6 136/2/6 139/2/6
f 137/2/6 138/2/6 139/2/6
f 139/2/6 136/2/6 140/2/6
f 131/2/6 137/2/6 141/2/6
f 125/2/6 131/2/6 141/2/6
f 137/2/6 139/2/6 141/2/6
f 141/2/6 139/2/6 142/2/6
f 140/2/6 136/2/6 143/2/6
f 136/2/6 126/2/6 144/2/6
f 143/2/6 136/2/6 144/2/6
f 142/2/6 139/2/6 145/2/6
f 140/2/6 143/2/6 146/2/6
f 125/2/6 141/2/6 147/2/6
f 142/2/6 145/2/6 148/2/6
f 145/2/6 146/2/6 148/2/6
f 125/2/6 147/2/6 149/2/6
f 147/2/6 148/2/6 149/2/6
f 148/2/6 146/2/6 150/2/6
f 149/2/6 148/2/6 150/2/6
f 146/2/6 143/2/6 150/2/6
f 144/2/6 126/2/6 151/2/6
f 151/2/6 126/2/6 152/2/6
f 153/3/6 154/3/6 157/3/6
f 157/3/6 154/3/6 158/3/6
f 155/3/6 156/3/6 161/3/6
f 161/3/6 156/3/6 162/3/6
f 159/3/6 160/3/6 163/3/6
f 163/3/6 160/3/6 164/3/6
f 165/3/6 166/3/6 171/3/6
f 171/3/6 166/3/6 172/3/6
f 167/3/6 168/3/6 173/3/6
f 173/3/6 168/3/6 174/3/6
f 169/3/6 170/3/6 175/3/6
f 175/3/6 170/3/6 176/3/6
