# MagicaVoxel @ Ephtracy

# group
g GreenCar

# material
mtllib GreenCar.mtl
usemtl palette

# normals
vn -1 0 0
vn 1 0 0
vn 0 0 1
vn 0 0 -1
vn 0 -1 0
vn 0 1 0

# texcoords
vt 0.00195313 0.5
vt 0.306641 0.5
vt 0.794922 0.5
vt 0.908203 0.5
vt 0.958984 0.5
vt 0.974609 0.5
vt 0.994141 0.5

# verts
v -35 10 15
v -35 10 -15
v -35 25 15
v -35 25 -15
v -30 25 10
v -30 25 -10
v -30 40 10
v -30 40 -10
v -25 0 15
v -25 0 10
v -25 0 -10
v -25 0 -15
v -25 10 15
v -25 10 10
v -25 10 -10
v -25 10 -15
v -5 20 20
v -5 20 15
v -5 20 -15
v -5 20 -20
v -5 25 20
v -5 25 15
v -5 25 -15
v -5 25 -20
v 10 0 15
v 10 0 10
v 10 0 -10
v 10 0 -15
v 10 10 15
v 10 10 10
v 10 10 -10
v 10 10 -15
v -10 0 15
v -10 0 10
v -10 0 -10
v -10 0 -15
v -10 10 15
v -10 10 10
v -10 10 -10
v -10 10 -15
v 5 20 20
v 5 20 15
v 5 20 -15
v 5 20 -20
v 5 25 20
v 5 25 15
v 5 25 -15
v 5 25 -20
v 10 25 10
v 10 25 5
v 10 25 -5
v 10 25 -10
v 10 35 5
v 10 35 -5
v 10 40 10
v 10 40 -10
v 25 0 15
v 25 0 10
v 25 0 -10
v 25 0 -15
v 25 10 15
v 25 10 10
v 25 10 -10
v 25 10 -15
v 35 10 15
v 35 10 -15
v 35 15 10
v 35 15 5
v 35 15 -5
v 35 15 -10
v 35 20 10
v 35 20 5
v 35 20 -5
v 35 20 -10
v 35 25 15
v 35 25 5
v 35 25 -5
v 35 25 -15
v -5 20 20
v -5 25 20
v 5 20 20
v 5 25 20
v -35 10 15
v -35 25 15
v -25 0 15
v -25 10 15
v -25 15 15
v -20 5 15
v -20 10 15
v -15 5 15
v -15 10 15
v -10 0 15
v -10 10 15
v -10 15 15
v -5 20 15
v -5 25 15
v 5 20 15
v 5 25 15
v 10 0 15
v 10 10 15
v 10 15 15
v 15 5 15
v 15 10 15
v 20 5 15
v 20 10 15
v 25 0 15
v 25 10 15
v 25 15 15
v 35 10 15
v 35 25 15
v -30 25 10
v -30 40 10
v -25 25 10
v -25 35 10
v -15 25 10
v -15 35 10
v -5 25 10
v -5 35 10
v 5 25 10
v 5 35 10
v 10 25 10
v 10 40 10
v -25 0 -10
v -25 10 -10
v -10 0 -10
v -10 10 -10
v 10 0 -10
v 10 10 -10
v 25 0 -10
v 25 10 -10
v -25 0 10
v -25 10 10
v -10 0 10
v -10 10 10
v 10 0 10
v 10 10 10
v 25 0 10
v 25 10 10
v -30 25 -10
v -30 40 -10
v -25 25 -10
v -25 35 -10
v -15 25 -10
v -15 35 -10
v -5 25 -10
v -5 35 -10
v 5 25 -10
v 5 35 -10
v 10 25 -10
v 10 40 -10
v -35 10 -15
v -35 25 -15
v -25 0 -15
v -25 10 -15
v -25 15 -15
v -20 5 -15
v -20 10 -15
v -15 5 -15
v -15 10 -15
v -10 0 -15
v -10 10 -15
v -10 15 -15
v -5 20 -15
v -5 25 -15
v 5 20 -15
v 5 25 -15
v 10 0 -15
v 10 10 -15
v 10 15 -15
v 15 5 -15
v 15 10 -15
v 20 5 -15
v 20 10 -15
v 25 0 -15
v 25 10 -15
v 25 15 -15
v 35 10 -15
v 35 25 -15
v -5 20 -20
v -5 25 -20
v 5 20 -20
v 5 25 -20
v -25 0 15
v -10 0 15
v 10 0 15
v 25 0 15
v -25 0 10
v -10 0 10
v 10 0 10
v 25 0 10
v -25 0 -10
v -10 0 -10
v 10 0 -10
v 25 0 -10
v -25 0 -15
v -10 0 -15
v 10 0 -15
v 25 0 -15
v -35 10 15
v -25 10 15
v -10 10 15
v 10 10 15
v 25 10 15
v 35 10 15
v -25 10 10
v -10 10 10
v 10 10 10
v 25 10 10
v -25 10 -10
v -10 10 -10
v 10 10 -10
v 25 10 -10
v -35 10 -15
v -25 10 -15
v -10 10 -15
v 10 10 -15
v 25 10 -15
v 35 10 -15
v -5 20 20
v 5 20 20
v -5 20 15
v 5 20 15
v -5 20 -15
v 5 20 -15
v -5 20 -20
v 5 20 -20
v -5 25 20
v 5 25 20
v -35 25 15
v -5 25 15
v 5 25 15
v 35 25 15
v -30 25 10
v -25 25 10
v -15 25 10
v -5 25 10
v 5 25 10
v 10 25 10
v 10 25 5
v 35 25 5
v 10 25 -5
v 35 25 -5
v -30 25 -10
v -25 25 -10
v -15 25 -10
v -5 25 -10
v 5 25 -10
v 10 25 -10
v -35 25 -15
v -5 25 -15
v 5 25 -15
v 35 25 -15
v -5 25 -20
v 5 25 -20
v -30 40 10
v 10 40 10
v -30 40 -10
v 10 40 -10

# faces
f 3/3/1 2/3/1 1/3/1
f 4/3/1 2/3/1 3/3/1
f 7/6/1 6/6/1 5/6/1
f 8/6/1 6/6/1 7/6/1
f 13/7/1 10/7/1 9/7/1
f 14/7/1 10/7/1 13/7/1
f 15/7/1 12/7/1 11/7/1
f 16/7/1 12/7/1 15/7/1
f 21/4/1 18/4/1 17/4/1
f 22/4/1 18/4/1 21/4/1
f 23/4/1 20/4/1 19/4/1
f 24/4/1 20/4/1 23/4/1
f 29/7/1 26/7/1 25/7/1
f 30/7/1 26/7/1 29/7/1
f 31/7/1 28/7/1 27/7/1
f 32/7/1 28/7/1 31/7/1
f 33/7/2 34/7/2 37/7/2
f 37/7/2 34/7/2 38/7/2
f 35/7/2 36/7/2 39/7/2
f 39/7/2 36/7/2 40/7/2
f 41/4/2 42/4/2 45/4/2
f 45/4/2 42/4/2 46/4/2
f 43/4/2 44/4/2 47/4/2
f 47/4/2 44/4/2 48/4/2
f 49/6/2 50/6/2 53/6/2
f 50/7/2 51/7/2 53/7/2
f 51/6/2 52/6/2 54/6/2
f 53/7/2 51/7/2 54/7/2
f 49/6/2 53/6/2 55/6/2
f 53/6/2 54/6/2 55/6/2
f 54/6/2 52/6/2 56/6/2
f 55/6/2 54/6/2 56/6/2
f 57/7/2 58/7/2 61/7/2
f 61/7/2 58/7/2 62/7/2
f 59/7/2 60/7/2 63/7/2
f 63/7/2 60/7/2 64/7/2
f 65/3/2 66/3/2 67/3/2
f 67/3/2 66/3/2 68/3/2
f 68/3/2 66/3/2 69/3/2
f 69/3/2 66/3/2 70/3/2
f 65/3/2 67/3/2 71/3/2
f 67/5/2 68/5/2 71/5/2
f 68/3/2 69/3/2 72/3/2
f 71/5/2 68/5/2 72/5/2
f 69/5/2 70/5/2 73/5/2
f 72/3/2 69/3/2 73/3/2
f 70/3/2 66/3/2 74/3/2
f 73/5/2 70/5/2 74/5/2
f 71/3/2 72/3/2 75/3/2
f 65/3/2 71/3/2 75/3/2
f 72/4/2 73/4/2 76/4/2
f 75/3/2 72/3/2 76/3/2
f 73/3/2 74/3/2 77/3/2
f 76/4/2 73/4/2 77/4/2
f 74/3/2 66/3/2 78/3/2
f 77/3/2 74/3/2 78/3/2
f 81/4/3 80/4/3 79/4/3
f 82/4/3 80/4/3 81/4/3
f 86/3/3 84/3/3 83/3/3
f 87/3/3 84/3/3 86/3/3
f 88/7/3 86/7/3 85/7/3
f 88/7/3 87/7/3 86/7/3
f 89/7/3 87/7/3 88/7/3
f 90/7/3 88/7/3 85/7/3
f 90/1/3 89/1/3 88/1/3
f 91/7/3 87/7/3 89/7/3
f 91/1/3 89/1/3 90/1/3
f 92/7/3 90/7/3 85/7/3
f 92/7/3 91/7/3 90/7/3
f 93/7/3 87/7/3 91/7/3
f 93/7/3 91/7/3 92/7/3
f 94/3/3 84/3/3 87/3/3
f 94/7/3 87/7/3 93/7/3
f 95/3/3 84/3/3 94/3/3
f 95/3/3 94/3/3 93/3/3
f 96/3/3 84/3/3 95/3/3
f 97/3/3 95/3/3 93/3/3
f 100/3/3 97/3/3 93/3/3
f 100/3/3 98/3/3 97/3/3
f 101/3/3 98/3/3 100/3/3
f 102/7/3 100/7/3 99/7/3
f 102/7/3 101/7/3 100/7/3
f 103/7/3 101/7/3 102/7/3
f 104/7/3 102/7/3 99/7/3
f 104/1/3 103/1/3 102/1/3
f 105/7/3 101/7/3 103/7/3
f 105/1/3 103/1/3 104/1/3
f 106/7/3 104/7/3 99/7/3
f 106/7/3 105/7/3 104/7/3
f 107/7/3 101/7/3 105/7/3
f 107/7/3 105/7/3 106/7/3
f 108/3/3 98/3/3 101/3/3
f 108/7/3 101/7/3 107/7/3
f 109/3/3 108/3/3 107/3/3
f 110/3/3 98/3/3 108/3/3
f 110/3/3 108/3/3 109/3/3
f 113/6/3 112/6/3 111/6/3
f 114/6/3 112/6/3 113/6/3
f 115/7/3 114/7/3 113/7/3
f 116/6/3 112/6/3 114/6/3
f 116/7/3 114/7/3 115/7/3
f 117/6/3 116/6/3 115/6/3
f 118/6/3 112/6/3 116/6/3
f 118/6/3 116/6/3 117/6/3
f 119/7/3 118/7/3 117/7/3
f 120/6/3 112/6/3 118/6/3
f 120/7/3 118/7/3 119/7/3
f 121/6/3 120/6/3 119/6/3
f 122/6/3 112/6/3 120/6/3
f 122/6/3 120/6/3 121/6/3
f 125/7/3 124/7/3 123/7/3
f 126/7/3 124/7/3 125/7/3
f 129/7/3 128/7/3 127/7/3
f 130/7/3 128/7/3 129/7/3
f 131/7/4 132/7/4 133/7/4
f 133/7/4 132/7/4 134/7/4
f 135/7/4 136/7/4 137/7/4
f 137/7/4 136/7/4 138/7/4
f 139/6/4 140/6/4 141/6/4
f 141/6/4 140/6/4 142/6/4
f 141/7/4 142/7/4 143/7/4
f 142/6/4 140/6/4 144/6/4
f 143/7/4 142/7/4 144/7/4
f 143/6/4 144/6/4 145/6/4
f 144/6/4 140/6/4 146/6/4
f 145/6/4 144/6/4 146/6/4
f 145/7/4 146/7/4 147/7/4
f 146/6/4 140/6/4 148/6/4
f 147/7/4 146/7/4 148/7/4
f 147/6/4 148/6/4 149/6/4
f 148/6/4 140/6/4 150/6/4
f 149/6/4 148/6/4 150/6/4
f 151/3/4 152/3/4 154/3/4
f 154/3/4 152/3/4 155/3/4
f 153/7/4 154/7/4 156/7/4
f 154/7/4 155/7/4 156/7/4
f 156/7/4 155/7/4 157/7/4
f 153/7/4 156/7/4 158/7/4
f 156/1/4 157/1/4 158/1/4
f 157/7/4 155/7/4 159/7/4
f 158/1/4 157/1/4 159/1/4
f 153/7/4 158/7/4 160/7/4
f 158/7/4 159/7/4 160/7/4
f 159/7/4 155/7/4 161/7/4
f 160/7/4 159/7/4 161/7/4
f 155/3/4 152/3/4 162/3/4
f 161/7/4 155/7/4 162/7/4
f 162/3/4 152/3/4 163/3/4
f 161/3/4 162/3/4 163/3/4
f 163/3/4 152/3/4 164/3/4
f 161/3/4 163/3/4 165/3/4
f 161/3/4 165/3/4 168/3/4
f 165/3/4 166/3/4 168/3/4
f 168/3/4 166/3/4 169/3/4
f 167/7/4 168/7/4 170/7/4
f 168/7/4 169/7/4 170/7/4
f 170/7/4 169/7/4 171/7/4
f 167/7/4 170/7/4 172/7/4
f 170/1/4 171/1/4 172/1/4
f 171/7/4 169/7/4 173/7/4
f 172/1/4 171/1/4 173/1/4
f 167/7/4 172/7/4 174/7/4
f 172/7/4 173/7/4 174/7/4
f 173/7/4 169/7/4 175/7/4
f 174/7/4 173/7/4 175/7/4
f 169/3/4 166/3/4 176/3/4
f 175/7/4 169/7/4 176/7/4
f 175/3/4 176/3/4 177/3/4
f 176/3/4 166/3/4 178/3/4
f 177/3/4 176/3/4 178/3/4
f 179/4/4 180/4/4 181/4/4
f 181/4/4 180/4/4 182/4/4
f 187/7/5 184/7/5 183/7/5
f 188/7/5 184/7/5 187/7/5
f 189/7/5 186/7/5 185/7/5
f 190/7/5 186/7/5 189/7/5
f 195/7/5 192/7/5 191/7/5
f 196/7/5 192/7/5 195/7/5
f 197/7/5 194/7/5 193/7/5
f 198/7/5 194/7/5 197/7/5
f 205/3/5 200/3/5 199/3/5
f 206/3/5 202/3/5 201/3/5
f 207/3/5 202/3/5 206/3/5
f 208/3/5 204/3/5 203/3/5
f 209/3/5 207/3/5 206/3/5
f 209/3/5 208/3/5 207/3/5
f 209/3/5 205/3/5 199/3/5
f 209/3/5 206/3/5 205/3/5
f 210/3/5 208/3/5 209/3/5
f 211/3/5 208/3/5 210/3/5
f 212/3/5 204/3/5 208/3/5
f 212/3/5 208/3/5 211/3/5
f 213/3/5 209/3/5 199/3/5
f 214/3/5 209/3/5 213/3/5
f 215/3/5 211/3/5 210/3/5
f 216/3/5 211/3/5 215/3/5
f 217/3/5 204/3/5 212/3/5
f 218/3/5 204/3/5 217/3/5
f 221/4/5 220/4/5 219/4/5
f 222/4/5 220/4/5 221/4/5
f 225/4/5 224/4/5 223/4/5
f 226/4/5 224/4/5 225/4/5
f 227/4/6 228/4/6 230/4/6
f 230/4/6 228/4/6 231/4/6
f 229/3/6 230/3/6 233/3/6
f 231/3/6 232/3/6 233/3/6
f 230/3/6 231/3/6 233/3/6
f 233/3/6 232/3/6 234/3/6
f 234/3/6 232/3/6 235/3/6
f 235/3/6 232/3/6 236/3/6
f 236/3/6 232/3/6 237/3/6
f 237/3/6 232/3/6 238/3/6
f 238/3/6 232/3/6 239/3/6
f 239/3/6 232/3/6 240/3/6
f 239/4/6 240/4/6 241/4/6
f 241/4/6 240/4/6 242/4/6
f 229/3/6 233/3/6 243/3/6
f 241/3/6 242/3/6 248/3/6
f 246/3/6 247/3/6 249/3/6
f 247/3/6 248/3/6 249/3/6
f 229/3/6 243/3/6 249/3/6
f 243/3/6 244/3/6 249/3/6
f 245/3/6 246/3/6 249/3/6
f 244/3/6 245/3/6 249/3/6
f 249/3/6 248/3/6 250/3/6
f 250/3/6 248/3/6 251/3/6
f 248/3/6 242/3/6 252/3/6
f 251/3/6 248/3/6 252/3/6
f 250/4/6 251/4/6 253/4/6
f 253/4/6 251/4/6 254/4/6
f 255/6/6 256/6/6 257/6/6
f 257/6/6 256/6/6 258/6/6
