# MagicaVoxel @ Ephtracy

# group
g GreenTruck

# material
mtllib GreenTruck.mtl
usemtl palette

# normals
vn -1 0 0
vn 1 0 0
vn 0 0 1
vn 0 0 -1
vn 0 -1 0
vn 0 1 0

# texcoords
vt 0.00195313 0.5
vt 0.904297 0.5
vt 0.958984 0.5
vt 0.966797 0.5
vt 0.970703 0.5
vt 0.986328 0.5
vt 0.994141 0.5

# verts
v -60 10 15
v -60 10 -15
v -60 15 15
v -60 15 -15
v -60 35 15
v -60 35 -15
v -60 40 15
v -60 40 -15
v -50 0 15
v -50 0 10
v -50 0 -10
v -50 0 -15
v -50 10 15
v -50 10 13
v -50 10 10
v -50 10 -10
v -50 10 -14
v -50 10 -15
v -5 0 15
v -5 0 10
v -5 0 -10
v -5 0 -15
v -5 10 15
v -5 10 13
v -5 10 10
v -5 10 -10
v -5 10 -14
v -5 10 -15
v 25 10 15
v 25 10 -15
v 25 35 15
v 25 35 10
v 25 35 -10
v 25 35 -15
v 25 40 10
v 25 40 -10
v 30 0 15
v 30 0 10
v 30 0 -10
v 30 0 -15
v 30 10 15
v 30 10 10
v 30 10 -10
v 30 10 -15
v 45 10 20
v 45 10 15
v 45 10 -15
v 45 10 -20
v 45 15 15
v 45 15 -15
v 45 20 20
v 45 20 15
v 45 20 -15
v 45 20 -20
v -35 0 15
v -35 0 10
v -35 0 -10
v -35 0 -15
v -35 10 15
v -35 10 13
v -35 10 10
v -35 10 -10
v -35 10 -14
v -35 10 -15
v 10 0 15
v 10 0 10
v 10 0 -10
v 10 0 -15
v 10 10 15
v 10 10 13
v 10 10 10
v 10 10 -10
v 10 10 -14
v 10 10 -15
v 20 10 15
v 20 10 13
v 20 10 -14
v 20 10 -15
v 20 15 15
v 20 15 13
v 20 15 -14
v 20 15 -15
v 20 35 15
v 20 35 14
v 20 35 -14
v 20 35 -15
v 20 40 15
v 20 40 14
v 20 40 -14
v 20 40 -15
v 40 38 10
v 40 38 -10
v 40 40 10
v 40 40 -10
v 45 0 15
v 45 0 10
v 45 0 -10
v 45 0 -15
v 45 10 15
v 45 10 10
v 45 10 -10
v 45 10 -15
v 45 35 10
v 45 35 -10
v 45 38 10
v 45 38 -10
v 50 10 20
v 50 10 15
v 50 10 -15
v 50 10 -20
v 50 20 20
v 50 20 15
v 50 20 -15
v 50 20 -20
v 60 10 15
v 60 10 10
v 60 10 5
v 60 10 -5
v 60 10 -10
v 60 10 -15
v 60 15 10
v 60 15 5
v 60 15 -5
v 60 15 -10
v 60 20 15
v 60 20 -15
v 60 30 15
v 60 30 -15
v 60 35 15
v 60 35 -15
v 45 10 20
v 45 20 20
v 50 10 20
v 50 20 20
v -60 10 15
v -60 15 15
v -60 35 15
v -60 40 15
v -50 0 15
v -50 10 15
v -45 5 15
v -45 10 15
v -40 5 15
v -40 10 15
v -35 0 15
v -35 10 15
v -5 0 15
v -5 10 15
v 0 5 15
v 0 10 15
v 5 5 15
v 5 10 15
v 10 0 15
v 10 10 15
v 20 10 15
v 20 15 15
v 20 35 15
v 20 40 15
v 25 10 15
v 25 35 15
v 30 0 15
v 30 10 15
v 30 15 15
v 35 5 15
v 35 10 15
v 40 5 15
v 40 10 15
v 45 0 15
v 45 10 15
v 45 15 15
v 45 20 15
v 45 30 15
v 50 10 15
v 50 20 15
v 60 10 15
v 60 20 15
v 60 30 15
v 60 35 15
v 25 35 10
v 25 40 10
v 40 38 10
v 40 40 10
v 45 35 10
v 45 38 10
v -50 0 -10
v -50 10 -10
v -35 0 -10
v -35 10 -10
v -5 0 -10
v -5 10 -10
v 10 0 -10
v 10 10 -10
v 30 0 -10
v 30 10 -10
v 45 0 -10
v 45 10 -10
v -50 0 10
v -50 10 10
v -35 0 10
v -35 10 10
v -5 0 10
v -5 10 10
v 10 0 10
v 10 10 10
v 30 0 10
v 30 10 10
v 45 0 10
v 45 10 10
v 25 35 -10
v 25 40 -10
v 40 38 -10
v 40 40 -10
v 45 35 -10
v 45 38 -10
v -60 10 -15
v -60 15 -15
v -60 35 -15
v -60 40 -15
v -50 0 -15
v -50 10 -15
v -45 5 -15
v -45 10 -15
v -40 5 -15
v -40 10 -15
v -35 0 -15
v -35 10 -15
v -5 0 -15
v -5 10 -15
v 0 5 -15
v 0 10 -15
v 5 5 -15
v 5 10 -15
v 10 0 -15
v 10 10 -15
v 20 10 -15
v 20 15 -15
v 20 35 -15
v 20 40 -15
v 25 10 -15
v 25 35 -15
v 30 0 -15
v 30 10 -15
v 30 15 -15
v 35 5 -15
v 35 10 -15
v 40 5 -15
v 40 10 -15
v 45 0 -15
v 45 10 -15
v 45 15 -15
v 45 20 -15
v 45 30 -15
v 50 10 -15
v 50 20 -15
v 60 10 -15
v 60 20 -15
v 60 30 -15
v 60 35 -15
v 45 10 -20
v 45 20 -20
v 50 10 -20
v 50 20 -20
v -50 0 15
v -35 0 15
v -5 0 15
v 10 0 15
v 30 0 15
v 45 0 15
v -50 0 10
v -35 0 10
v -5 0 10
v 10 0 10
v 30 0 10
v 45 0 10
v -50 0 -10
v -35 0 -10
v -5 0 -10
v 10 0 -10
v 30 0 -10
v 45 0 -10
v -50 0 -15
v -35 0 -15
v -5 0 -15
v 10 0 -15
v 30 0 -15
v 45 0 -15
v 45 10 20
v 50 10 20
v -60 10 15
v -50 10 15
v -35 10 15
v -5 10 15
v 10 10 15
v 20 10 15
v 25 10 15
v 30 10 15
v 45 10 15
v 50 10 15
v 60 10 15
v -59 10 13
v -50 10 13
v -35 10 13
v -5 10 13
v 10 10 13
v 20 10 13
v -50 10 10
v -35 10 10
v -5 10 10
v 10 10 10
v 30 10 10
v 45 10 10
v 59 10 10
v 60 10 10
v 59 10 5
v 60 10 5
v 59 10 -5
v 60 10 -5
v -50 10 -10
v -35 10 -10
v -5 10 -10
v 10 10 -10
v 30 10 -10
v 45 10 -10
v 59 10 -10
v 60 10 -10
v -59 10 -14
v -50 10 -14
v -35 10 -14
v -5 10 -14
v 10 10 -14
v 20 10 -14
v -60 10 -15
v -50 10 -15
v -35 10 -15
v -5 10 -15
v 10 10 -15
v 20 10 -15
v 25 10 -15
v 30 10 -15
v 45 10 -15
v 50 10 -15
v 60 10 -15
v 45 10 -20
v 50 10 -20
v 45 20 20
v 50 20 20
v 45 20 15
v 50 20 15
v 45 20 -15
v 50 20 -15
v 45 20 -20
v 50 20 -20
v 25 35 15
v 60 35 15
v 25 35 10
v 45 35 10
v 25 35 -10
v 45 35 -10
v 25 35 -15
v 60 35 -15
v 40 38 10
v 45 38 10
v 40 38 -10
v 45 38 -10
v -60 40 15
v 20 40 15
v -59 40 14
v 20 40 14
v 25 40 10
v 40 40 10
v 25 40 -10
v 40 40 -10
v -59 40 -14
v 20 40 -14
v -60 40 -15
v 20 40 -15

# faces
f 3/4/1 2/4/1 1/4/1
f 4/4/1 2/4/1 3/4/1
f 5/3/1 4/3/1 3/3/1
f 6/3/1 4/3/1 5/3/1
f 7/4/1 6/4/1 5/4/1
f 8/4/1 6/4/1 7/4/1
f 13/7/1 10/7/1 9/7/1
f 14/7/1 10/7/1 13/7/1
f 15/7/1 10/7/1 14/7/1
f 16/7/1 12/7/1 11/7/1
f 17/7/1 12/7/1 16/7/1
f 18/7/1 12/7/1 17/7/1
f 23/7/1 20/7/1 19/7/1
f 24/7/1 20/7/1 23/7/1
f 25/7/1 20/7/1 24/7/1
f 26/7/1 22/7/1 21/7/1
f 27/7/1 22/7/1 26/7/1
f 28/7/1 22/7/1 27/7/1
f 31/2/1 30/2/1 29/2/1
f 32/2/1 30/2/1 31/2/1
f 33/2/1 30/2/1 32/2/1
f 34/2/1 30/2/1 33/2/1
f 35/3/1 33/3/1 32/3/1
f 36/3/1 33/3/1 35/3/1
f 41/7/1 38/7/1 37/7/1
f 42/7/1 38/7/1 41/7/1
f 43/7/1 40/7/1 39/7/1
f 44/7/1 40/7/1 43/7/1
f 49/2/1 46/2/1 45/2/1
f 50/2/1 48/2/1 47/2/1
f 51/2/1 49/2/1 45/2/1
f 52/2/1 49/2/1 51/2/1
f 53/2/1 48/2/1 50/2/1
f 54/2/1 48/2/1 53/2/1
f 55/7/2 56/7/2 59/7/2
f 59/7/2 56/7/2 60/7/2
f 60/7/2 56/7/2 61/7/2
f 57/7/2 58/7/2 62/7/2
f 62/7/2 58/7/2 63/7/2
f 63/7/2 58/7/2 64/7/2
f 65/7/2 66/7/2 69/7/2
f 69/7/2 66/7/2 70/7/2
f 70/7/2 66/7/2 71/7/2
f 67/7/2 68/7/2 72/7/2
f 72/7/2 68/7/2 73/7/2
f 73/7/2 68/7/2 74/7/2
f 75/4/2 76/4/2 79/4/2
f 76/3/2 77/3/2 80/3/2
f 79/4/2 76/4/2 80/4/2
f 77/4/2 78/4/2 81/4/2
f 80/3/2 77/3/2 81/3/2
f 81/4/2 78/4/2 82/4/2
f 79/3/2 80/3/2 83/3/2
f 80/3/2 81/3/2 83/3/2
f 81/3/2 82/3/2 83/3/2
f 83/3/2 82/3/2 84/3/2
f 84/3/2 82/3/2 85/3/2
f 85/3/2 82/3/2 86/3/2
f 83/4/2 84/4/2 87/4/2
f 84/3/2 85/3/2 88/3/2
f 87/4/2 84/4/2 88/4/2
f 85/4/2 86/4/2 89/4/2
f 88/3/2 85/3/2 89/3/2
f 89/4/2 86/4/2 90/4/2
f 91/3/2 92/3/2 93/3/2
f 93/3/2 92/3/2 94/3/2
f 95/7/2 96/7/2 99/7/2
f 99/7/2 96/7/2 100/7/2
f 97/7/2 98/7/2 101/7/2
f 101/7/2 98/7/2 102/7/2
f 103/3/2 104/3/2 105/3/2
f 105/3/2 104/3/2 106/3/2
f 107/2/2 108/2/2 111/2/2
f 111/2/2 108/2/2 112/2/2
f 109/2/2 110/2/2 113/2/2
f 113/2/2 110/2/2 114/2/2
f 115/2/2 116/2/2 121/2/2
f 116/1/2 117/1/2 121/1/2
f 117/2/2 118/2/2 122/2/2
f 121/1/2 117/1/2 122/1/2
f 118/1/2 119/1/2 123/1/2
f 122/2/2 118/2/2 123/2/2
f 119/2/2 120/2/2 124/2/2
f 123/1/2 119/1/2 124/1/2
f 122/2/2 123/2/2 125/2/2
f 121/2/2 122/2/2 125/2/2
f 123/2/2 124/2/2 125/2/2
f 115/2/2 121/2/2 125/2/2
f 124/2/2 120/2/2 126/2/2
f 125/2/2 124/2/2 126/2/2
f 125/6/2 126/6/2 127/6/2
f 127/6/2 126/6/2 128/6/2
f 127/2/2 128/2/2 129/2/2
f 129/2/2 128/2/2 130/2/2
f 133/2/3 132/2/3 131/2/3
f 134/2/3 132/2/3 133/2/3
f 140/4/3 136/4/3 135/4/3
f 141/7/3 140/7/3 139/7/3
f 142/4/3 136/4/3 140/4/3
f 142/7/3 140/7/3 141/7/3
f 143/7/3 141/7/3 139/7/3
f 143/3/3 142/3/3 141/3/3
f 144/4/3 136/4/3 142/4/3
f 144/3/3 142/3/3 143/3/3
f 145/7/3 143/7/3 139/7/3
f 145/7/3 144/7/3 143/7/3
f 146/4/3 136/4/3 144/4/3
f 146/7/3 144/7/3 145/7/3
f 148/4/3 136/4/3 146/4/3
f 149/7/3 148/7/3 147/7/3
f 150/4/3 136/4/3 148/4/3
f 150/7/3 148/7/3 149/7/3
f 151/7/3 149/7/3 147/7/3
f 151/3/3 150/3/3 149/3/3
f 152/4/3 136/4/3 150/4/3
f 152/3/3 150/3/3 151/3/3
f 153/7/3 151/7/3 147/7/3
f 153/7/3 152/7/3 151/7/3
f 154/4/3 136/4/3 152/4/3
f 154/7/3 152/7/3 153/7/3
f 155/4/3 136/4/3 154/4/3
f 156/3/3 137/3/3 136/3/3
f 156/4/3 136/4/3 155/4/3
f 157/4/3 138/4/3 137/4/3
f 157/3/3 137/3/3 156/3/3
f 158/4/3 138/4/3 157/4/3
f 162/2/3 160/2/3 159/2/3
f 163/2/3 160/2/3 162/2/3
f 164/7/3 162/7/3 161/7/3
f 164/7/3 163/7/3 162/7/3
f 165/7/3 163/7/3 164/7/3
f 166/7/3 164/7/3 161/7/3
f 166/3/3 165/3/3 164/3/3
f 167/7/3 163/7/3 165/7/3
f 167/3/3 165/3/3 166/3/3
f 168/7/3 166/7/3 161/7/3
f 168/7/3 167/7/3 166/7/3
f 169/7/3 163/7/3 167/7/3
f 169/7/3 167/7/3 168/7/3
f 170/2/3 160/2/3 163/2/3
f 170/7/3 163/7/3 169/7/3
f 171/2/3 160/2/3 170/2/3
f 172/2/3 160/2/3 171/2/3
f 174/6/3 172/6/3 171/6/3
f 175/2/3 174/2/3 173/2/3
f 176/6/3 172/6/3 174/6/3
f 176/2/3 174/2/3 175/2/3
f 177/2/3 160/2/3 172/2/3
f 177/6/3 172/6/3 176/6/3
f 178/2/3 160/2/3 177/2/3
f 181/3/3 180/3/3 179/3/3
f 182/3/3 180/3/3 181/3/3
f 183/3/3 181/3/3 179/3/3
f 184/3/3 181/3/3 183/3/3
f 187/7/3 186/7/3 185/7/3
f 188/7/3 186/7/3 187/7/3
f 191/7/3 190/7/3 189/7/3
f 192/7/3 190/7/3 191/7/3
f 195/7/3 194/7/3 193/7/3
f 196/7/3 194/7/3 195/7/3
f 197/7/4 198/7/4 199/7/4
f 199/7/4 198/7/4 200/7/4
f 201/7/4 202/7/4 203/7/4
f 203/7/4 202/7/4 204/7/4
f 205/7/4 206/7/4 207/7/4
f 207/7/4 206/7/4 208/7/4
f 209/3/4 210/3/4 211/3/4
f 211/3/4 210/3/4 212/3/4
f 209/3/4 211/3/4 213/3/4
f 213/3/4 211/3/4 214/3/4
f 215/4/4 216/4/4 220/4/4
f 219/7/4 220/7/4 221/7/4
f 220/4/4 216/4/4 222/4/4
f 221/7/4 220/7/4 222/7/4
f 219/7/4 221/7/4 223/7/4
f 221/3/4 222/3/4 223/3/4
f 222/4/4 216/4/4 224/4/4
f 223/3/4 222/3/4 224/3/4
f 219/7/4 223/7/4 225/7/4
f 223/7/4 224/7/4 225/7/4
f 224/4/4 216/4/4 226/4/4
f 225/7/4 224/7/4 226/7/4
f 226/4/4 216/4/4 228/4/4
f 227/7/4 228/7/4 229/7/4
f 228/4/4 216/4/4 230/4/4
f 229/7/4 228/7/4 230/7/4
f 227/7/4 229/7/4 231/7/4
f 229/3/4 230/3/4 231/3/4
f 230/4/4 216/4/4 232/4/4
f 231/3/4 230/3/4 232/3/4
f 227/7/4 231/7/4 233/7/4
f 231/7/4 232/7/4 233/7/4
f 232/4/4 216/4/4 234/4/4
f 233/7/4 232/7/4 234/7/4
f 234/4/4 216/4/4 235/4/4
f 216/3/4 217/3/4 236/3/4
f 235/4/4 216/4/4 236/4/4
f 217/4/4 218/4/4 237/4/4
f 236/3/4 217/3/4 237/3/4
f 237/4/4 218/4/4 238/4/4
f 239/2/4 240/2/4 242/2/4
f 242/2/4 240/2/4 243/2/4
f 241/7/4 242/7/4 244/7/4
f 242/7/4 243/7/4 244/7/4
f 244/7/4 243/7/4 245/7/4
f 241/7/4 244/7/4 246/7/4
f 244/3/4 245/3/4 246/3/4
f 245/7/4 243/7/4 247/7/4
f 246/3/4 245/3/4 247/3/4
f 241/7/4 246/7/4 248/7/4
f 246/7/4 247/7/4 248/7/4
f 247/7/4 243/7/4 249/7/4
f 248/7/4 247/7/4 249/7/4
f 243/2/4 240/2/4 250/2/4
f 249/7/4 243/7/4 250/7/4
f 250/2/4 240/2/4 251/2/4
f 251/2/4 240/2/4 252/2/4
f 251/6/4 252/6/4 254/6/4
f 253/2/4 254/2/4 255/2/4
f 254/6/4 252/6/4 256/6/4
f 255/2/4 254/2/4 256/2/4
f 252/2/4 240/2/4 257/2/4
f 256/6/4 252/6/4 257/6/4
f 257/2/4 240/2/4 258/2/4
f 259/2/4 260/2/4 261/2/4
f 261/2/4 260/2/4 262/2/4
f 269/7/5 264/7/5 263/7/5
f 270/7/5 264/7/5 269/7/5
f 271/7/5 266/7/5 265/7/5
f 272/7/5 266/7/5 271/7/5
f 273/7/5 268/7/5 267/7/5
f 274/7/5 268/7/5 273/7/5
f 281/7/5 276/7/5 275/7/5
f 282/7/5 276/7/5 281/7/5
f 283/7/5 278/7/5 277/7/5
f 284/7/5 278/7/5 283/7/5
f 285/7/5 280/7/5 279/7/5
f 286/7/5 280/7/5 285/7/5
f 297/2/5 288/2/5 287/2/5
f 298/2/5 288/2/5 297/2/5
f 300/4/5 290/4/5 289/4/5
f 301/4/5 290/4/5 300/4/5
f 302/4/5 292/4/5 291/4/5
f 303/4/5 292/4/5 302/4/5
f 304/4/5 294/4/5 293/4/5
f 305/4/5 294/4/5 304/4/5
f 306/3/5 301/3/5 300/3/5
f 307/3/5 303/3/5 302/3/5
f 308/3/5 303/3/5 307/3/5
f 309/3/5 305/3/5 304/3/5
f 310/2/5 296/2/5 295/2/5
f 311/2/5 299/2/5 298/2/5
f 311/2/5 298/2/5 297/2/5
f 312/2/5 299/2/5 311/2/5
f 313/2/5 299/2/5 312/2/5
f 314/2/5 311/2/5 310/2/5
f 314/2/5 312/2/5 311/2/5
f 314/1/5 313/1/5 312/1/5
f 315/1/5 313/1/5 314/1/5
f 316/2/5 314/2/5 310/2/5
f 316/2/5 315/2/5 314/2/5
f 317/2/5 315/2/5 316/2/5
f 318/3/5 309/3/5 308/3/5
f 318/3/5 306/3/5 300/3/5
f 318/3/5 308/3/5 307/3/5
f 318/3/5 307/3/5 306/3/5
f 319/3/5 309/3/5 318/3/5
f 320/3/5 309/3/5 319/3/5
f 321/3/5 305/3/5 309/3/5
f 321/3/5 309/3/5 320/3/5
f 322/2/5 310/2/5 295/2/5
f 322/2/5 316/2/5 310/2/5
f 323/2/5 316/2/5 322/2/5
f 324/1/5 317/1/5 316/1/5
f 324/2/5 316/2/5 323/2/5
f 325/1/5 317/1/5 324/1/5
f 326/4/5 300/4/5 289/4/5
f 326/3/5 318/3/5 300/3/5
f 327/3/5 318/3/5 326/3/5
f 328/3/5 320/3/5 319/3/5
f 329/3/5 320/3/5 328/3/5
f 330/3/5 305/3/5 321/3/5
f 331/3/5 305/3/5 330/3/5
f 332/4/5 327/4/5 326/4/5
f 332/4/5 326/4/5 289/4/5
f 333/4/5 327/4/5 332/4/5
f 334/4/5 329/4/5 328/4/5
f 335/4/5 329/4/5 334/4/5
f 336/4/5 331/4/5 330/4/5
f 337/4/5 331/4/5 336/4/5
f 338/2/5 322/2/5 295/2/5
f 339/2/5 322/2/5 338/2/5
f 340/2/5 325/2/5 324/2/5
f 340/2/5 324/2/5 323/2/5
f 341/2/5 325/2/5 340/2/5
f 342/2/5 325/2/5 341/2/5
f 343/2/5 341/2/5 340/2/5
f 344/2/5 341/2/5 343/2/5
f 345/2/6 346/2/6 347/2/6
f 347/2/6 346/2/6 348/2/6
f 349/2/6 350/2/6 351/2/6
f 351/2/6 350/2/6 352/2/6
f 353/2/6 354/2/6 355/2/6
f 355/2/6 354/2/6 356/2/6
f 356/2/6 354/2/6 358/2/6
f 357/2/6 358/2/6 359/2/6
f 358/2/6 354/2/6 360/2/6
f 359/2/6 358/2/6 360/2/6
f 361/3/6 362/3/6 363/3/6
f 363/3/6 362/3/6 364/3/6
f 365/4/6 366/4/6 367/4/6
f 367/4/6 366/4/6 368/4/6
f 369/3/6 370/3/6 371/3/6
f 371/3/6 370/3/6 372/3/6
f 365/4/6 367/4/6 373/4/6
f 367/3/6 368/3/6 373/3/6
f 373/3/6 368/3/6 374/3/6
f 365/4/6 373/4/6 375/4/6
f 373/4/6 374/4/6 375/4/6
f 375/4/6 374/4/6 376/4/6
