# MagicaVoxel @ Ephtracy

# group
g RailwaySignalOn

# material
mtllib RailwaySignalOn.mtl
usemtl palette

# normals
vn -1 0 0
vn 1 0 0
vn 0 0 1
vn 0 0 -1
vn 0 -1 0
vn 0 1 0

# texcoords
vt 0.0996094 0.5
vt 0.173828 0.5
vt 0.310547 0.5
vt 0.958984 0.5
vt 0.994141 0.5

# verts
v -8 47 -2
v -8 47 -5
v -8 52 -2
v -8 52 -5
v -4 44 -2
v -4 44 -4
v -4 44 -5
v -4 47 -2
v -4 47 -4
v -4 47 -5
v -2 0 2
v -2 0 -2
v -2 2 2
v -2 2 -2
v -2 5 2
v -2 5 -2
v -2 9 2
v -2 9 -2
v -2 12 2
v -2 12 -2
v -2 16 2
v -2 16 -2
v -2 19 2
v -2 19 -2
v -2 23 2
v -2 23 -2
v -2 26 2
v -2 26 -2
v -2 30 2
v -2 30 -2
v -2 33 2
v -2 33 -2
v -2 37 2
v -2 37 -2
v -2 40 2
v -2 40 -2
v -2 44 2
v -2 44 -2
v -2 47 2
v -2 47 -2
v -2 51 2
v -2 51 -2
v -2 52 -2
v -2 54 2
v -2 54 -2
v -2 58 2
v -2 58 -2
v -2 60 2
v -2 60 -2
v 1 44 -2
v 1 44 -4
v 1 44 -5
v 1 47 -2
v 1 47 -4
v 1 47 -5
v -1 44 -2
v -1 44 -4
v -1 44 -5
v -1 47 -2
v -1 47 -4
v -1 47 -5
v 2 0 2
v 2 0 -2
v 2 2 2
v 2 2 -2
v 2 5 2
v 2 5 -2
v 2 9 2
v 2 9 -2
v 2 12 2
v 2 12 -2
v 2 16 2
v 2 16 -2
v 2 19 2
v 2 19 -2
v 2 23 2
v 2 23 -2
v 2 26 2
v 2 26 -2
v 2 30 2
v 2 30 -2
v 2 33 2
v 2 33 -2
v 2 37 2
v 2 37 -2
v 2 40 2
v 2 40 -2
v 2 44 2
v 2 44 -2
v 2 47 2
v 2 47 -2
v 2 51 2
v 2 51 -2
v 2 52 -2
v 2 54 2
v 2 54 -2
v 2 58 2
v 2 58 -2
v 2 60 2
v 2 60 -2
v 4 44 -2
v 4 44 -4
v 4 44 -5
v 4 47 -2
v 4 47 -4
v 4 47 -5
v 8 47 -2
v 8 47 -5
v 8 52 -2
v 8 52 -5
v -2 0 2
v -2 2 2
v -2 5 2
v -2 9 2
v -2 12 2
v -2 16 2
v -2 19 2
v -2 23 2
v -2 26 2
v -2 30 2
v -2 33 2
v -2 37 2
v -2 40 2
v -2 44 2
v -2 47 2
v -2 51 2
v -2 54 2
v -2 58 2
v -2 60 2
v 2 0 2
v 2 2 2
v 2 5 2
v 2 9 2
v 2 12 2
v 2 16 2
v 2 19 2
v 2 23 2
v 2 26 2
v 2 30 2
v 2 33 2
v 2 37 2
v 2 40 2
v 2 44 2
v 2 47 2
v 2 51 2
v 2 54 2
v 2 58 2
v 2 60 2
v -8 47 -2
v -8 52 -2
v -4 44 -2
v -4 47 -2
v -2 44 -2
v -2 47 -2
v -2 51 -2
v -2 52 -2
v 2 44 -2
v 2 47 -2
v 2 51 -2
v 2 52 -2
v 4 44 -2
v 4 47 -2
v 8 47 -2
v 8 52 -2
v -2 0 -2
v -2 2 -2
v -2 5 -2
v -2 9 -2
v -2 12 -2
v -2 16 -2
v -2 19 -2
v -2 23 -2
v -2 26 -2
v -2 30 -2
v -2 33 -2
v -2 37 -2
v -2 40 -2
v -2 44 -2
v -2 52 -2
v -2 54 -2
v -2 58 -2
v -2 60 -2
v -1 44 -2
v -1 47 -2
v 1 44 -2
v 1 47 -2
v 2 0 -2
v 2 2 -2
v 2 5 -2
v 2 9 -2
v 2 12 -2
v 2 16 -2
v 2 19 -2
v 2 23 -2
v 2 26 -2
v 2 30 -2
v 2 33 -2
v 2 37 -2
v 2 40 -2
v 2 44 -2
v 2 52 -2
v 2 54 -2
v 2 58 -2
v 2 60 -2
v -8 47 -5
v -8 52 -5
v -4 44 -5
v -4 47 -5
v -1 44 -5
v -1 47 -5
v 1 44 -5
v 1 47 -5
v 4 44 -5
v 4 47 -5
v 8 47 -5
v 8 52 -5
v -2 0 2
v 2 0 2
v -1 0 1
v 1 0 1
v -1 0 -1
v 1 0 -1
v -2 0 -2
v 2 0 -2
v -4 44 -2
v -2 44 -2
v -1 44 -2
v 1 44 -2
v 2 44 -2
v 4 44 -2
v -4 44 -4
v -1 44 -4
v 1 44 -4
v 4 44 -4
v -4 44 -5
v -1 44 -5
v 1 44 -5
v 4 44 -5
v -8 47 -2
v -4 47 -2
v -1 47 -2
v 1 47 -2
v 4 47 -2
v 8 47 -2
v -4 47 -4
v -1 47 -4
v 1 47 -4
v 4 47 -4
v -8 47 -5
v -4 47 -5
v -1 47 -5
v 1 47 -5
v 4 47 -5
v 8 47 -5
v -8 52 -2
v -2 52 -2
v 2 52 -2
v 8 52 -2
v -8 52 -5
v 8 52 -5
v -2 60 2
v 2 60 2
v -2 60 -2
v 2 60 -2

# faces
f 3/5/1 2/5/1 1/5/1
f 4/5/1 2/5/1 3/5/1
f 8/3/1 6/3/1 5/3/1
f 9/2/1 7/2/1 6/2/1
f 9/3/1 6/3/1 8/3/1
f 10/2/1 7/2/1 9/2/1
f 13/1/1 12/1/1 11/1/1
f 14/1/1 12/1/1 13/1/1
f 15/4/1 14/4/1 13/4/1
f 16/4/1 14/4/1 15/4/1
f 17/1/1 16/1/1 15/1/1
f 18/1/1 16/1/1 17/1/1
f 19/4/1 18/4/1 17/4/1
f 20/4/1 18/4/1 19/4/1
f 21/1/1 20/1/1 19/1/1
f 22/1/1 20/1/1 21/1/1
f 23/4/1 22/4/1 21/4/1
f 24/4/1 22/4/1 23/4/1
f 25/1/1 24/1/1 23/1/1
f 26/1/1 24/1/1 25/1/1
f 27/4/1 26/4/1 25/4/1
f 28/4/1 26/4/1 27/4/1
f 29/1/1 28/1/1 27/1/1
f 30/1/1 28/1/1 29/1/1
f 31/4/1 30/4/1 29/4/1
f 32/4/1 30/4/1 31/4/1
f 33/1/1 32/1/1 31/1/1
f 34/1/1 32/1/1 33/1/1
f 35/4/1 34/4/1 33/4/1
f 36/4/1 34/4/1 35/4/1
f 37/1/1 36/1/1 35/1/1
f 38/1/1 36/1/1 37/1/1
f 39/4/1 38/4/1 37/4/1
f 40/4/1 38/4/1 39/4/1
f 41/1/1 40/1/1 39/1/1
f 42/1/1 40/1/1 41/1/1
f 43/4/1 42/4/1 41/4/1
f 44/4/1 43/4/1 41/4/1
f 45/4/1 43/4/1 44/4/1
f 46/1/1 45/1/1 44/1/1
f 47/1/1 45/1/1 46/1/1
f 48/4/1 47/4/1 46/4/1
f 49/4/1 47/4/1 48/4/1
f 53/3/1 51/3/1 50/3/1
f 54/2/1 52/2/1 51/2/1
f 54/3/1 51/3/1 53/3/1
f 55/2/1 52/2/1 54/2/1
f 56/3/2 57/3/2 59/3/2
f 57/2/2 58/2/2 60/2/2
f 59/3/2 57/3/2 60/3/2
f 60/2/2 58/2/2 61/2/2
f 62/1/2 63/1/2 64/1/2
f 64/1/2 63/1/2 65/1/2
f 64/4/2 65/4/2 66/4/2
f 66/4/2 65/4/2 67/4/2
f 66/1/2 67/1/2 68/1/2
f 68/1/2 67/1/2 69/1/2
f 68/4/2 69/4/2 70/4/2
f 70/4/2 69/4/2 71/4/2
f 70/1/2 71/1/2 72/1/2
f 72/1/2 71/1/2 73/1/2
f 72/4/2 73/4/2 74/4/2
f 74/4/2 73/4/2 75/4/2
f 74/1/2 75/1/2 76/1/2
f 76/1/2 75/1/2 77/1/2
f 76/4/2 77/4/2 78/4/2
f 78/4/2 77/4/2 79/4/2
f 78/1/2 79/1/2 80/1/2
f 80/1/2 79/1/2 81/1/2
f 80/4/2 81/4/2 82/4/2
f 82/4/2 81/4/2 83/4/2
f 82/1/2 83/1/2 84/1/2
f 84/1/2 83/1/2 85/1/2
f 84/4/2 85/4/2 86/4/2
f 86/4/2 85/4/2 87/4/2
f 86/1/2 87/1/2 88/1/2
f 88/1/2 87/1/2 89/1/2
f 88/4/2 89/4/2 90/4/2
f 90/4/2 89/4/2 91/4/2
f 90/1/2 91/1/2 92/1/2
f 92/1/2 91/1/2 93/1/2
f 92/4/2 93/4/2 94/4/2
f 92/4/2 94/4/2 95/4/2
f 95/4/2 94/4/2 96/4/2
f 95/1/2 96/1/2 97/1/2
f 97/1/2 96/1/2 98/1/2
f 97/4/2 98/4/2 99/4/2
f 99/4/2 98/4/2 100/4/2
f 101/3/2 102/3/2 104/3/2
f 102/2/2 103/2/2 105/2/2
f 104/3/2 102/3/2 105/3/2
f 105/2/2 103/2/2 106/2/2
f 107/5/2 108/5/2 109/5/2
f 109/5/2 108/5/2 110/5/2
f 130/1/3 112/1/3 111/1/3
f 131/4/3 113/4/3 112/4/3
f 131/1/3 112/1/3 130/1/3
f 132/1/3 114/1/3 113/1/3
f 132/4/3 113/4/3 131/4/3
f 133/4/3 115/4/3 114/4/3
f 133/1/3 114/1/3 132/1/3
f 134/1/3 116/1/3 115/1/3
f 134/4/3 115/4/3 133/4/3
f 135/4/3 117/4/3 116/4/3
f 135/1/3 116/1/3 134/1/3
f 136/1/3 118/1/3 117/1/3
f 136/4/3 117/4/3 135/4/3
f 137/4/3 119/4/3 118/4/3
f 137/1/3 118/1/3 136/1/3
f 138/1/3 120/1/3 119/1/3
f 138/4/3 119/4/3 137/4/3
f 139/4/3 121/4/3 120/4/3
f 139/1/3 120/1/3 138/1/3
f 140/1/3 122/1/3 121/1/3
f 140/4/3 121/4/3 139/4/3
f 141/4/3 123/4/3 122/4/3
f 141/1/3 122/1/3 140/1/3
f 142/1/3 124/1/3 123/1/3
f 142/4/3 123/4/3 141/4/3
f 143/4/3 125/4/3 124/4/3
f 143/1/3 124/1/3 142/1/3
f 144/1/3 126/1/3 125/1/3
f 144/4/3 125/4/3 143/4/3
f 145/4/3 127/4/3 126/4/3
f 145/1/3 126/1/3 144/1/3
f 146/1/3 128/1/3 127/1/3
f 146/4/3 127/4/3 145/4/3
f 147/4/3 129/4/3 128/4/3
f 147/1/3 128/1/3 146/1/3
f 148/4/3 129/4/3 147/4/3
f 152/5/3 150/5/3 149/5/3
f 153/3/3 152/3/3 151/3/3
f 154/5/3 150/5/3 152/5/3
f 154/3/3 152/3/3 153/3/3
f 155/5/3 150/5/3 154/5/3
f 156/5/3 150/5/3 155/5/3
f 161/3/3 158/3/3 157/3/3
f 162/5/3 160/5/3 159/5/3
f 162/3/3 158/3/3 161/3/3
f 162/5/3 159/5/3 158/5/3
f 163/5/3 160/5/3 162/5/3
f 164/5/3 160/5/3 163/5/3
f 177/1/4 178/1/4 183/1/4
f 177/1/4 183/1/4 185/1/4
f 183/4/4 184/4/4 185/4/4
f 185/4/4 184/4/4 186/4/4
f 165/1/4 166/1/4 187/1/4
f 166/4/4 167/4/4 188/4/4
f 187/1/4 166/1/4 188/1/4
f 167/1/4 168/1/4 189/1/4
f 188/4/4 167/4/4 189/4/4
f 168/4/4 169/4/4 190/4/4
f 189/1/4 168/1/4 190/1/4
f 169/1/4 170/1/4 191/1/4
f 190/4/4 169/4/4 191/4/4
f 170/4/4 171/4/4 192/4/4
f 191/1/4 170/1/4 192/1/4
f 171/1/4 172/1/4 193/1/4
f 192/4/4 171/4/4 193/4/4
f 172/4/4 173/4/4 194/4/4
f 193/1/4 172/1/4 194/1/4
f 173/1/4 174/1/4 195/1/4
f 194/4/4 173/4/4 195/4/4
f 174/4/4 175/4/4 196/4/4
f 195/1/4 174/1/4 196/1/4
f 175/1/4 176/1/4 197/1/4
f 196/4/4 175/4/4 197/4/4
f 176/4/4 177/4/4 198/4/4
f 197/1/4 176/1/4 198/1/4
f 177/1/4 185/1/4 199/1/4
f 198/4/4 177/4/4 199/4/4
f 199/1/4 185/1/4 200/1/4
f 179/4/4 180/4/4 201/4/4
f 180/1/4 181/1/4 202/1/4
f 201/4/4 180/4/4 202/4/4
f 181/4/4 182/4/4 203/4/4
f 202/1/4 181/1/4 203/1/4
f 203/4/4 182/4/4 204/4/4
f 205/5/4 206/5/4 208/5/4
f 207/2/4 208/2/4 209/2/4
f 208/5/4 206/5/4 210/5/4
f 209/2/4 208/2/4 210/2/4
f 210/5/4 206/5/4 212/5/4
f 211/2/4 212/2/4 213/2/4
f 212/5/4 206/5/4 214/5/4
f 213/2/4 212/2/4 214/2/4
f 214/5/4 206/5/4 215/5/4
f 215/5/4 206/5/4 216/5/4
f 219/1/5 218/1/5 217/1/5
f 220/1/5 218/1/5 219/1/5
f 221/1/5 219/1/5 217/1/5
f 221/4/5 220/4/5 219/4/5
f 222/1/5 218/1/5 220/1/5
f 222/4/5 220/4/5 221/4/5
f 223/1/5 221/1/5 217/1/5
f 223/1/5 222/1/5 221/1/5
f 224/1/5 218/1/5 222/1/5
f 224/1/5 222/1/5 223/1/5
f 231/3/5 226/3/5 225/3/5
f 231/3/5 227/3/5 226/3/5
f 232/3/5 227/3/5 231/3/5
f 233/3/5 230/3/5 229/3/5
f 233/3/5 229/3/5 228/3/5
f 234/3/5 230/3/5 233/3/5
f 235/2/5 232/2/5 231/2/5
f 236/2/5 232/2/5 235/2/5
f 237/2/5 234/2/5 233/2/5
f 238/2/5 234/2/5 237/2/5
f 245/5/5 240/5/5 239/5/5
f 246/5/5 242/5/5 241/5/5
f 247/5/5 242/5/5 246/5/5
f 248/5/5 244/5/5 243/5/5
f 249/5/5 245/5/5 239/5/5
f 250/5/5 245/5/5 249/5/5
f 251/5/5 247/5/5 246/5/5
f 252/5/5 247/5/5 251/5/5
f 253/5/5 244/5/5 248/5/5
f 254/5/5 244/5/5 253/5/5
f 255/5/6 256/5/6 259/5/6
f 257/5/6 258/5/6 259/5/6
f 256/5/6 257/5/6 259/5/6
f 259/5/6 258/5/6 260/5/6
f 261/4/6 262/4/6 263/4/6
f 263/4/6 262/4/6 264/4/6
