# MagicaVoxel @ Ephtracy

# group
g RailwaySignalOn

# material
mtllib RailwaySignalOn.mtl
usemtl palette

# normals
vn -1 0 0
vn 1 0 0
vn 0 0 1
vn 0 0 -1
vn 0 -1 0
vn 0 1 0

# texcoords
vt 0.0996094 0.5
vt 0.166016 0.5
vt 0.173828 0.5
vt 0.310547 0.5
vt 0.958984 0.5
vt 0.994141 0.5

# verts
v -11 37 -5
v -11 37 -6
v -11 54 -5
v -11 54 -6
v -8 47 -2
v -8 47 -5
v -8 52 -2
v -8 52 -5
v -4 44 -2
v -4 44 -4
v -4 44 -5
v -4 47 -2
v -4 47 -4
v -4 47 -5
v -2 0 2
v -2 0 -2
v -2 2 2
v -2 2 -2
v -2 5 2
v -2 5 -2
v -2 9 2
v -2 9 -2
v -2 12 2
v -2 12 -2
v -2 16 2
v -2 16 -2
v -2 19 2
v -2 19 -2
v -2 23 2
v -2 23 -2
v -2 26 2
v -2 26 -2
v -2 30 2
v -2 30 -2
v -2 33 2
v -2 33 -2
v -2 37 2
v -2 37 -2
v -2 40 2
v -2 40 -2
v -2 44 2
v -2 44 -2
v -2 47 2
v -2 47 -2
v -2 51 2
v -2 51 -2
v -2 52 -2
v -2 54 2
v -2 54 -2
v -2 58 2
v -2 58 -2
v -2 60 2
v -2 60 -2
v 1 44 -2
v 1 44 -4
v 1 44 -5
v 1 47 -2
v 1 47 -4
v 1 47 -5
v 4 43 -5
v 4 43 -6
v 4 44 -5
v 4 47 -5
v 4 48 -5
v 4 48 -6
v 5 42 -5
v 5 42 -6
v 5 43 -5
v 5 43 -6
v 5 48 -5
v 5 48 -6
v 5 49 -5
v 5 49 -6
v 6 41 -5
v 6 41 -6
v 6 42 -5
v 6 42 -6
v 6 49 -5
v 6 49 -6
v 6 50 -5
v 6 50 -6
v 7 40 -5
v 7 40 -6
v 7 41 -5
v 7 41 -6
v 7 50 -5
v 7 50 -6
v 7 51 -5
v 7 51 -6
v 8 39 -5
v 8 39 -6
v 8 40 -5
v 8 40 -6
v 8 51 -5
v 8 51 -6
v 8 52 -5
v 8 52 -6
v 9 38 -5
v 9 38 -6
v 9 39 -5
v 9 39 -6
v 9 52 -5
v 9 52 -6
v 9 53 -5
v 9 53 -6
v 10 37 -5
v 10 37 -6
v 10 38 -5
v 10 38 -6
v 10 53 -5
v 10 53 -6
v 10 54 -5
v 10 54 -6
v -10 37 -5
v -10 37 -6
v -10 38 -5
v -10 38 -6
v -10 53 -5
v -10 53 -6
v -10 54 -5
v -10 54 -6
v -9 38 -5
v -9 38 -6
v -9 39 -5
v -9 39 -6
v -9 52 -5
v -9 52 -6
v -9 53 -5
v -9 53 -6
v -8 39 -5
v -8 39 -6
v -8 40 -5
v -8 40 -6
v -8 51 -5
v -8 51 -6
v -8 52 -5
v -8 52 -6
v -7 40 -5
v -7 40 -6
v -7 41 -5
v -7 41 -6
v -7 50 -5
v -7 50 -6
v -7 51 -5
v -7 51 -6
v -6 41 -5
v -6 41 -6
v -6 42 -5
v -6 42 -6
v -6 49 -5
v -6 49 -6
v -6 50 -5
v -6 50 -6
v -5 42 -5
v -5 42 -6
v -5 43 -5
v -5 43 -6
v -5 48 -5
v -5 48 -6
v -5 49 -5
v -5 49 -6
v -4 43 -5
v -4 43 -6
v -4 44 -5
v -4 47 -5
v -4 48 -5
v -4 48 -6
v -1 44 -2
v -1 44 -4
v -1 44 -5
v -1 47 -2
v -1 47 -4
v -1 47 -5
v 2 0 2
v 2 0 -2
v 2 2 2
v 2 2 -2
v 2 5 2
v 2 5 -2
v 2 9 2
v 2 9 -2
v 2 12 2
v 2 12 -2
v 2 16 2
v 2 16 -2
v 2 19 2
v 2 19 -2
v 2 23 2
v 2 23 -2
v 2 26 2
v 2 26 -2
v 2 30 2
v 2 30 -2
v 2 33 2
v 2 33 -2
v 2 37 2
v 2 37 -2
v 2 40 2
v 2 40 -2
v 2 44 2
v 2 44 -2
v 2 47 2
v 2 47 -2
v 2 51 2
v 2 51 -2
v 2 52 -2
v 2 54 2
v 2 54 -2
v 2 58 2
v 2 58 -2
v 2 60 2
v 2 60 -2
v 4 44 -2
v 4 44 -4
v 4 44 -5
v 4 47 -2
v 4 47 -4
v 4 47 -5
v 8 47 -2
v 8 47 -5
v 8 52 -2
v 8 52 -5
v 11 37 -5
v 11 37 -6
v 11 54 -5
v 11 54 -6
v -2 0 2
v -2 2 2
v -2 5 2
v -2 9 2
v -2 12 2
v -2 16 2
v -2 19 2
v -2 23 2
v -2 26 2
v -2 30 2
v -2 33 2
v -2 37 2
v -2 40 2
v -2 44 2
v -2 47 2
v -2 51 2
v -2 54 2
v -2 58 2
v -2 60 2
v 2 0 2
v 2 2 2
v 2 5 2
v 2 9 2
v 2 12 2
v 2 16 2
v 2 19 2
v 2 23 2
v 2 26 2
v 2 30 2
v 2 33 2
v 2 37 2
v 2 40 2
v 2 44 2
v 2 47 2
v 2 51 2
v 2 54 2
v 2 58 2
v 2 60 2
v -8 47 -2
v -8 52 -2
v -4 44 -2
v -4 47 -2
v -2 44 -2
v -2 47 -2
v -2 51 -2
v -2 52 -2
v 2 44 -2
v 2 47 -2
v 2 51 -2
v 2 52 -2
v 4 44 -2
v 4 47 -2
v 8 47 -2
v 8 52 -2
v -11 37 -5
v -11 54 -5
v -10 37 -5
v -10 38 -5
v -10 53 -5
v -10 54 -5
v -9 38 -5
v -9 39 -5
v -9 52 -5
v -9 53 -5
v -8 39 -5
v -8 40 -5
v -8 47 -5
v -8 52 -5
v -7 40 -5
v -7 41 -5
v -6 41 -5
v -6 42 -5
v -5 42 -5
v -5 43 -5
v -4 43 -5
v -4 44 -5
v -4 47 -5
v 4 43 -5
v 4 44 -5
v 4 47 -5
v 5 42 -5
v 5 43 -5
v 6 41 -5
v 6 42 -5
v 7 40 -5
v 7 41 -5
v 8 39 -5
v 8 40 -5
v 8 47 -5
v 8 52 -5
v 9 38 -5
v 9 39 -5
v 9 52 -5
v 9 53 -5
v 10 37 -5
v 10 38 -5
v 10 53 -5
v 10 54 -5
v 11 37 -5
v 11 54 -5
v -2 0 -2
v -2 2 -2
v -2 5 -2
v -2 9 -2
v -2 12 -2
v -2 16 -2
v -2 19 -2
v -2 23 -2
v -2 26 -2
v -2 30 -2
v -2 33 -2
v -2 37 -2
v -2 40 -2
v -2 44 -2
v -2 52 -2
v -2 54 -2
v -2 58 -2
v -2 60 -2
v -1 44 -2
v -1 47 -2
v 1 44 -2
v 1 47 -2
v 2 0 -2
v 2 2 -2
v 2 5 -2
v 2 9 -2
v 2 12 -2
v 2 16 -2
v 2 19 -2
v 2 23 -2
v 2 26 -2
v 2 30 -2
v 2 33 -2
v 2 37 -2
v 2 40 -2
v 2 44 -2
v 2 52 -2
v 2 54 -2
v 2 58 -2
v 2 60 -2
v -8 51 -5
v -8 52 -5
v -7 50 -5
v -7 51 -5
v -6 49 -5
v -6 50 -5
v -5 48 -5
v -5 49 -5
v -4 44 -5
v -4 47 -5
v -4 48 -5
v -1 44 -5
v -1 47 -5
v 1 44 -5
v 1 47 -5
v 4 44 -5
v 4 47 -5
v 4 48 -5
v 5 48 -5
v 5 49 -5
v 6 49 -5
v 6 50 -5
v 7 50 -5
v 7 51 -5
v 8 51 -5
v 8 52 -5
v -11 37 -6
v -11 54 -6
v -10 37 -6
v -10 38 -6
v -10 53 -6
v -10 54 -6
v -9 38 -6
v -9 39 -6
v -9 52 -6
v -9 53 -6
v -8 39 -6
v -8 40 -6
v -8 51 -6
v -8 52 -6
v -7 40 -6
v -7 41 -6
v -7 50 -6
v -7 51 -6
v -6 41 -6
v -6 42 -6
v -6 49 -6
v -6 50 -6
v -5 42 -6
v -5 43 -6
v -5 48 -6
v -5 49 -6
v -4 43 -6
v -4 48 -6
v 4 43 -6
v 4 48 -6
v 5 42 -6
v 5 43 -6
v 5 48 -6
v 5 49 -6
v 6 41 -6
v 6 42 -6
v 6 49 -6
v 6 50 -6
v 7 40 -6
v 7 41 -6
v 7 50 -6
v 7 51 -6
v 8 39 -6
v 8 40 -6
v 8 51 -6
v 8 52 -6
v 9 38 -6
v 9 39 -6
v 9 52 -6
v 9 53 -6
v 10 37 -6
v 10 38 -6
v 10 53 -6
v 10 54 -6
v 11 37 -6
v 11 54 -6
v -2 0 2
v 2 0 2
v -1 0 1
v 1 0 1
v -1 0 -1
v 1 0 -1
v -2 0 -2
v 2 0 -2
v -11 37 -5
v -10 37 -5
v 10 37 -5
v 11 37 -5
v -11 37 -6
v -10 37 -6
v 10 37 -6
v 11 37 -6
v -10 38 -5
v -9 38 -5
v 9 38 -5
v 10 38 -5
v -10 38 -6
v -9 38 -6
v 9 38 -6
v 10 38 -6
v -9 39 -5
v -8 39 -5
v 8 39 -5
v 9 39 -5
v -9 39 -6
v -8 39 -6
v 8 39 -6
v 9 39 -6
v -8 40 -5
v -7 40 -5
v 7 40 -5
v 8 40 -5
v -8 40 -6
v -7 40 -6
v 7 40 -6
v 8 40 -6
v -7 41 -5
v -6 41 -5
v 6 41 -5
v 7 41 -5
v -7 41 -6
v -6 41 -6
v 6 41 -6
v 7 41 -6
v -6 42 -5
v -5 42 -5
v 5 42 -5
v 6 42 -5
v -6 42 -6
v -5 42 -6
v 5 42 -6
v 6 42 -6
v -5 43 -5
v -4 43 -5
v 4 43 -5
v 5 43 -5
v -5 43 -6
v -4 43 -6
v 4 43 -6
v 5 43 -6
v -4 44 -2
v -2 44 -2
v -1 44 -2
v 1 44 -2
v 2 44 -2
v 4 44 -2
v -4 44 -4
v -1 44 -4
v 1 44 -4
v 4 44 -4
v -4 44 -5
v -1 44 -5
v 1 44 -5
v 4 44 -5
v -8 47 -2
v -4 47 -2
v -1 47 -2
v 1 47 -2
v 4 47 -2
v 8 47 -2
v -4 47 -4
v -1 47 -4
v 1 47 -4
v 4 47 -4
v -8 47 -5
v -4 47 -5
v -1 47 -5
v 1 47 -5
v 4 47 -5
v 8 47 -5
v -5 48 -5
v -4 48 -5
v 4 48 -5
v 5 48 -5
v -5 48 -6
v -4 48 -6
v 4 48 -6
v 5 48 -6
v -6 49 -5
v -5 49 -5
v 5 49 -5
v 6 49 -5
v -6 49 -6
v -5 49 -6
v 5 49 -6
v 6 49 -6
v -7 50 -5
v -6 50 -5
v 6 50 -5
v 7 50 -5
v -7 50 -6
v -6 50 -6
v 6 50 -6
v 7 50 -6
v -8 51 -5
v -7 51 -5
v 7 51 -5
v 8 51 -5
v -8 51 -6
v -7 51 -6
v 7 51 -6
v 8 51 -6
v -8 52 -2
v -2 52 -2
v 2 52 -2
v 8 52 -2
v -9 52 -5
v -8 52 -5
v 8 52 -5
v 9 52 -5
v -9 52 -6
v -8 52 -6
v 8 52 -6
v 9 52 -6
v -10 53 -5
v -9 53 -5
v 9 53 -5
v 10 53 -5
v -10 53 -6
v -9 53 -6
v 9 53 -6
v 10 53 -6
v -11 54 -5
v -10 54 -5
v 10 54 -5
v 11 54 -5
v -11 54 -6
v -10 54 -6
v 10 54 -6
v 11 54 -6
v -2 60 2
v 2 60 2
v -2 60 -2
v 2 60 -2

# faces
f 3/3/1 2/3/1 1/3/1
f 4/3/1 2/3/1 3/3/1
f 7/6/1 6/6/1 5/6/1
f 8/6/1 6/6/1 7/6/1
f 12/4/1 10/4/1 9/4/1
f 13/2/1 11/2/1 10/2/1
f 13/4/1 10/4/1 12/4/1
f 14/2/1 11/2/1 13/2/1
f 17/1/1 16/1/1 15/1/1
f 18/1/1 16/1/1 17/1/1
f 19/5/1 18/5/1 17/5/1
f 20/5/1 18/5/1 19/5/1
f 21/1/1 20/1/1 19/1/1
f 22/1/1 20/1/1 21/1/1
f 23/5/1 22/5/1 21/5/1
f 24/5/1 22/5/1 23/5/1
f 25/1/1 24/1/1 23/1/1
f 26/1/1 24/1/1 25/1/1
f 27/5/1 26/5/1 25/5/1
f 28/5/1 26/5/1 27/5/1
f 29/1/1 28/1/1 27/1/1
f 30/1/1 28/1/1 29/1/1
f 31/5/1 30/5/1 29/5/1
f 32/5/1 30/5/1 31/5/1
f 33/1/1 32/1/1 31/1/1
f 34/1/1 32/1/1 33/1/1
f 35/5/1 34/5/1 33/5/1
f 36/5/1 34/5/1 35/5/1
f 37/1/1 36/1/1 35/1/1
f 38/1/1 36/1/1 37/1/1
f 39/5/1 38/5/1 37/5/1
f 40/5/1 38/5/1 39/5/1
f 41/1/1 40/1/1 39/1/1
f 42/1/1 40/1/1 41/1/1
f 43/5/1 42/5/1 41/5/1
f 44/5/1 42/5/1 43/5/1
f 45/1/1 44/1/1 43/1/1
f 46/1/1 44/1/1 45/1/1
f 47/5/1 46/5/1 45/5/1
f 48/5/1 47/5/1 45/5/1
f 49/5/1 47/5/1 48/5/1
f 50/1/1 49/1/1 48/1/1
f 51/1/1 49/1/1 50/1/1
f 52/5/1 51/5/1 50/5/1
f 53/5/1 51/5/1 52/5/1
f 57/4/1 55/4/1 54/4/1
f 58/2/1 56/2/1 55/2/1
f 58/4/1 55/4/1 57/4/1
f 59/2/1 56/2/1 58/2/1
f 62/3/1 61/3/1 60/3/1
f 63/3/1 61/3/1 62/3/1
f 64/3/1 61/3/1 63/3/1
f 65/3/1 61/3/1 64/3/1
f 68/3/1 67/3/1 66/3/1
f 69/3/1 67/3/1 68/3/1
f 72/3/1 71/3/1 70/3/1
f 73/3/1 71/3/1 72/3/1
f 76/3/1 75/3/1 74/3/1
f 77/3/1 75/3/1 76/3/1
f 80/3/1 79/3/1 78/3/1
f 81/3/1 79/3/1 80/3/1
f 84/3/1 83/3/1 82/3/1
f 85/3/1 83/3/1 84/3/1
f 88/3/1 87/3/1 86/3/1
f 89/3/1 87/3/1 88/3/1
f 92/3/1 91/3/1 90/3/1
f 93/3/1 91/3/1 92/3/1
f 96/3/1 95/3/1 94/3/1
f 97/3/1 95/3/1 96/3/1
f 100/3/1 99/3/1 98/3/1
f 101/3/1 99/3/1 100/3/1
f 104/3/1 103/3/1 102/3/1
f 105/3/1 103/3/1 104/3/1
f 108/3/1 107/3/1 106/3/1
f 109/3/1 107/3/1 108/3/1
f 112/3/1 111/3/1 110/3/1
f 113/3/1 111/3/1 112/3/1
f 114/3/2 115/3/2 116/3/2
f 116/3/2 115/3/2 117/3/2
f 118/3/2 119/3/2 120/3/2
f 120/3/2 119/3/2 121/3/2
f 122/3/2 123/3/2 124/3/2
f 124/3/2 123/3/2 125/3/2
f 126/3/2 127/3/2 128/3/2
f 128/3/2 127/3/2 129/3/2
f 130/3/2 131/3/2 132/3/2
f 132/3/2 131/3/2 133/3/2
f 134/3/2 135/3/2 136/3/2
f 136/3/2 135/3/2 137/3/2
f 138/3/2 139/3/2 140/3/2
f 140/3/2 139/3/2 141/3/2
f 142/3/2 143/3/2 144/3/2
f 144/3/2 143/3/2 145/3/2
f 146/3/2 147/3/2 148/3/2
f 148/3/2 147/3/2 149/3/2
f 150/3/2 151/3/2 152/3/2
f 152/3/2 151/3/2 153/3/2
f 154/3/2 155/3/2 156/3/2
f 156/3/2 155/3/2 157/3/2
f 158/3/2 159/3/2 160/3/2
f 160/3/2 159/3/2 161/3/2
f 162/3/2 163/3/2 164/3/2
f 164/3/2 163/3/2 165/3/2
f 165/3/2 163/3/2 166/3/2
f 166/3/2 163/3/2 167/3/2
f 168/4/2 169/4/2 171/4/2
f 169/2/2 170/2/2 172/2/2
f 171/4/2 169/4/2 172/4/2
f 172/2/2 170/2/2 173/2/2
f 174/1/2 175/1/2 176/1/2
f 176/1/2 175/1/2 177/1/2
f 176/5/2 177/5/2 178/5/2
f 178/5/2 177/5/2 179/5/2
f 178/1/2 179/1/2 180/1/2
f 180/1/2 179/1/2 181/1/2
f 180/5/2 181/5/2 182/5/2
f 182/5/2 181/5/2 183/5/2
f 182/1/2 183/1/2 184/1/2
f 184/1/2 183/1/2 185/1/2
f 184/5/2 185/5/2 186/5/2
f 186/5/2 185/5/2 187/5/2
f 186/1/2 187/1/2 188/1/2
f 188/1/2 187/1/2 189/1/2
f 188/5/2 189/5/2 190/5/2
f 190/5/2 189/5/2 191/5/2
f 190/1/2 191/1/2 192/1/2
f 192/1/2 191/1/2 193/1/2
f 192/5/2 193/5/2 194/5/2
f 194/5/2 193/5/2 195/5/2
f 194/1/2 195/1/2 196/1/2
f 196/1/2 195/1/2 197/1/2
f 196/5/2 197/5/2 198/5/2
f 198/5/2 197/5/2 199/5/2
f 198/1/2 199/1/2 200/1/2
f 200/1/2 199/1/2 201/1/2
f 200/5/2 201/5/2 202/5/2
f 202/5/2 201/5/2 203/5/2
f 202/1/2 203/1/2 204/1/2
f 204/1/2 203/1/2 205/1/2
f 204/5/2 205/5/2 206/5/2
f 204/5/2 206/5/2 207/5/2
f 207/5/2 206/5/2 208/5/2
f 207/1/2 208/1/2 209/1/2
f 209/1/2 208/1/2 210/1/2
f 209/5/2 210/5/2 211/5/2
f 211/5/2 210/5/2 212/5/2
f 213/4/2 214/4/2 216/4/2
f 214/2/2 215/2/2 217/2/2
f 216/4/2 214/4/2 217/4/2
f 217/2/2 215/2/2 218/2/2
f 219/6/2 220/6/2 221/6/2
f 221/6/2 220/6/2 222/6/2
f 223/3/2 224/3/2 225/3/2
f 225/3/2 224/3/2 226/3/2
f 246/1/3 228/1/3 227/1/3
f 247/5/3 229/5/3 228/5/3
f 247/1/3 228/1/3 246/1/3
f 248/1/3 230/1/3 229/1/3
f 248/5/3 229/5/3 247/5/3
f 249/5/3 231/5/3 230/5/3
f 249/1/3 230/1/3 248/1/3
f 250/1/3 232/1/3 231/1/3
f 250/5/3 231/5/3 249/5/3
f 251/5/3 233/5/3 232/5/3
f 251/1/3 232/1/3 250/1/3
f 252/1/3 234/1/3 233/1/3
f 252/5/3 233/5/3 251/5/3
f 253/5/3 235/5/3 234/5/3
f 253/1/3 234/1/3 252/1/3
f 254/1/3 236/1/3 235/1/3
f 254/5/3 235/5/3 253/5/3
f 255/5/3 237/5/3 236/5/3
f 255/1/3 236/1/3 254/1/3
f 256/1/3 238/1/3 237/1/3
f 256/5/3 237/5/3 255/5/3
f 257/5/3 239/5/3 238/5/3
f 257/1/3 238/1/3 256/1/3
f 258/1/3 240/1/3 239/1/3
f 258/5/3 239/5/3 257/5/3
f 259/5/3 241/5/3 240/5/3
f 259/1/3 240/1/3 258/1/3
f 260/1/3 242/1/3 241/1/3
f 260/5/3 241/5/3 259/5/3
f 261/5/3 243/5/3 242/5/3
f 261/1/3 242/1/3 260/1/3
f 262/1/3 244/1/3 243/1/3
f 262/5/3 243/5/3 261/5/3
f 263/5/3 245/5/3 244/5/3
f 263/1/3 244/1/3 262/1/3
f 264/5/3 245/5/3 263/5/3
f 268/6/3 266/6/3 265/6/3
f 269/4/3 268/4/3 267/4/3
f 270/6/3 266/6/3 268/6/3
f 270/4/3 268/4/3 269/4/3
f 271/6/3 266/6/3 270/6/3
f 272/6/3 266/6/3 271/6/3
f 277/4/3 274/4/3 273/4/3
f 278/6/3 276/6/3 275/6/3
f 278/4/3 274/4/3 277/4/3
f 278/6/3 275/6/3 274/6/3
f 279/6/3 276/6/3 278/6/3
f 280/6/3 276/6/3 279/6/3
f 283/3/3 282/3/3 281/3/3
f 284/3/3 282/3/3 283/3/3
f 285/3/3 282/3/3 284/3/3
f 286/3/3 282/3/3 285/3/3
f 287/3/3 285/3/3 284/3/3
f 288/3/3 285/3/3 287/3/3
f 289/3/3 285/3/3 288/3/3
f 290/3/3 285/3/3 289/3/3
f 291/3/3 289/3/3 288/3/3
f 292/3/3 289/3/3 291/3/3
f 293/3/3 289/3/3 292/3/3
f 294/3/3 289/3/3 293/3/3
f 295/3/3 293/3/3 292/3/3
f 296/3/3 293/3/3 295/3/3
f 297/3/3 293/3/3 296/3/3
f 298/3/3 293/3/3 297/3/3
f 299/3/3 293/3/3 298/3/3
f 300/3/3 293/3/3 299/3/3
f 301/3/3 293/3/3 300/3/3
f 302/3/3 293/3/3 301/3/3
f 303/3/3 293/3/3 302/3/3
f 308/3/3 305/3/3 304/3/3
f 308/3/3 306/3/3 305/3/3
f 310/3/3 308/3/3 307/3/3
f 312/3/3 310/3/3 309/3/3
f 314/3/3 312/3/3 311/3/3
f 315/3/3 306/3/3 308/3/3
f 315/3/3 308/3/3 310/3/3
f 315/3/3 312/3/3 314/3/3
f 315/3/3 310/3/3 312/3/3
f 318/3/3 315/3/3 314/3/3
f 318/3/3 316/3/3 315/3/3
f 318/3/3 314/3/3 313/3/3
f 319/3/3 316/3/3 318/3/3
f 322/3/3 319/3/3 318/3/3
f 322/3/3 320/3/3 319/3/3
f 322/3/3 318/3/3 317/3/3
f 323/3/3 320/3/3 322/3/3
f 325/3/3 323/3/3 322/3/3
f 325/3/3 324/3/3 323/3/3
f 325/3/3 322/3/3 321/3/3
f 326/3/3 324/3/3 325/3/3
f 339/1/4 340/1/4 345/1/4
f 339/1/4 345/1/4 347/1/4
f 345/5/4 346/5/4 347/5/4
f 347/5/4 346/5/4 348/5/4
f 327/1/4 328/1/4 349/1/4
f 328/5/4 329/5/4 350/5/4
f 349/1/4 328/1/4 350/1/4
f 329/1/4 330/1/4 351/1/4
f 350/5/4 329/5/4 351/5/4
f 330/5/4 331/5/4 352/5/4
f 351/1/4 330/1/4 352/1/4
f 331/1/4 332/1/4 353/1/4
f 352/5/4 331/5/4 353/5/4
f 332/5/4 333/5/4 354/5/4
f 353/1/4 332/1/4 354/1/4
f 333/1/4 334/1/4 355/1/4
f 354/5/4 333/5/4 355/5/4
f 334/5/4 335/5/4 356/5/4
f 355/1/4 334/1/4 356/1/4
f 335/1/4 336/1/4 357/1/4
f 356/5/4 335/5/4 357/5/4
f 336/5/4 337/5/4 358/5/4
f 357/1/4 336/1/4 358/1/4
f 337/1/4 338/1/4 359/1/4
f 358/5/4 337/5/4 359/5/4
f 338/5/4 339/5/4 360/5/4
f 359/1/4 338/1/4 360/1/4
f 339/1/4 347/1/4 361/1/4
f 360/5/4 339/5/4 361/5/4
f 361/1/4 347/1/4 362/1/4
f 341/5/4 342/5/4 363/5/4
f 342/1/4 343/1/4 364/1/4
f 363/5/4 342/5/4 364/5/4
f 343/5/4 344/5/4 365/5/4
f 364/1/4 343/1/4 365/1/4
f 365/5/4 344/5/4 366/5/4
f 367/6/4 368/6/4 370/6/4
f 369/6/4 370/6/4 372/6/4
f 371/6/4 372/6/4 374/6/4
f 373/6/4 374/6/4 377/6/4
f 375/2/4 376/2/4 378/2/4
f 376/6/4 377/6/4 379/6/4
f 378/2/4 376/2/4 379/2/4
f 379/6/4 377/6/4 381/6/4
f 380/2/4 381/2/4 382/2/4
f 381/6/4 377/6/4 383/6/4
f 382/2/4 381/2/4 383/2/4
f 377/6/4 374/6/4 384/6/4
f 383/6/4 377/6/4 384/6/4
f 384/6/4 374/6/4 385/6/4
f 374/6/4 372/6/4 386/6/4
f 385/6/4 374/6/4 386/6/4
f 386/6/4 372/6/4 387/6/4
f 372/6/4 370/6/4 388/6/4
f 387/6/4 372/6/4 388/6/4
f 388/6/4 370/6/4 389/6/4
f 370/6/4 368/6/4 390/6/4
f 389/6/4 370/6/4 390/6/4
f 390/6/4 368/6/4 391/6/4
f 391/6/4 368/6/4 392/6/4
f 393/3/4 394/3/4 395/3/4
f 395/3/4 394/3/4 396/3/4
f 396/3/4 394/3/4 397/3/4
f 397/3/4 394/3/4 398/3/4
f 396/3/4 397/3/4 399/3/4
f 399/3/4 397/3/4 400/3/4
f 400/3/4 397/3/4 401/3/4
f 401/3/4 397/3/4 402/3/4
f 400/3/4 401/3/4 403/3/4
f 403/3/4 401/3/4 404/3/4
f 404/3/4 401/3/4 405/3/4
f 405/3/4 401/3/4 406/3/4
f 404/3/4 405/3/4 407/3/4
f 407/3/4 405/3/4 408/3/4
f 408/3/4 405/3/4 409/3/4
f 409/3/4 405/3/4 410/3/4
f 408/3/4 409/3/4 411/3/4
f 411/3/4 409/3/4 412/3/4
f 412/3/4 409/3/4 413/3/4
f 413/3/4 409/3/4 414/3/4
f 412/3/4 413/3/4 415/3/4
f 415/3/4 413/3/4 416/3/4
f 416/3/4 413/3/4 417/3/4
f 417/3/4 413/3/4 418/3/4
f 416/3/4 417/3/4 419/3/4
f 419/3/4 417/3/4 420/3/4
f 421/3/4 422/3/4 424/3/4
f 424/3/4 422/3/4 425/3/4
f 424/3/4 425/3/4 428/3/4
f 425/3/4 426/3/4 428/3/4
f 423/3/4 424/3/4 428/3/4
f 428/3/4 426/3/4 429/3/4
f 428/3/4 429/3/4 432/3/4
f 429/3/4 430/3/4 432/3/4
f 427/3/4 428/3/4 432/3/4
f 432/3/4 430/3/4 433/3/4
f 432/3/4 433/3/4 436/3/4
f 433/3/4 434/3/4 436/3/4
f 431/3/4 432/3/4 436/3/4
f 436/3/4 434/3/4 437/3/4
f 436/3/4 437/3/4 440/3/4
f 437/3/4 438/3/4 440/3/4
f 435/3/4 436/3/4 440/3/4
f 440/3/4 438/3/4 441/3/4
f 440/3/4 441/3/4 444/3/4
f 441/3/4 442/3/4 444/3/4
f 439/3/4 440/3/4 444/3/4
f 444/3/4 442/3/4 445/3/4
f 444/3/4 445/3/4 447/3/4
f 445/3/4 446/3/4 447/3/4
f 443/3/4 444/3/4 447/3/4
f 447/3/4 446/3/4 448/3/4
f 451/1/5 450/1/5 449/1/5
f 452/1/5 450/1/5 451/1/5
f 453/1/5 451/1/5 449/1/5
f 453/5/5 452/5/5 451/5/5
f 454/1/5 450/1/5 452/1/5
f 454/5/5 452/5/5 453/5/5
f 455/1/5 453/1/5 449/1/5
f 455/1/5 454/1/5 453/1/5
f 456/1/5 450/1/5 454/1/5
f 456/1/5 454/1/5 455/1/5
f 461/3/5 458/3/5 457/3/5
f 462/3/5 458/3/5 461/3/5
f 463/3/5 460/3/5 459/3/5
f 464/3/5 460/3/5 463/3/5
f 469/3/5 466/3/5 465/3/5
f 470/3/5 466/3/5 469/3/5
f 471/3/5 468/3/5 467/3/5
f 472/3/5 468/3/5 471/3/5
f 477/3/5 474/3/5 473/3/5
f 478/3/5 474/3/5 477/3/5
f 479/3/5 476/3/5 475/3/5
f 480/3/5 476/3/5 479/3/5
f 485/3/5 482/3/5 481/3/5
f 486/3/5 482/3/5 485/3/5
f 487/3/5 484/3/5 483/3/5
f 488/3/5 484/3/5 487/3/5
f 493/3/5 490/3/5 489/3/5
f 494/3/5 490/3/5 493/3/5
f 495/3/5 492/3/5 491/3/5
f 496/3/5 492/3/5 495/3/5
f 501/3/5 498/3/5 497/3/5
f 502/3/5 498/3/5 501/3/5
f 503/3/5 500/3/5 499/3/5
f 504/3/5 500/3/5 503/3/5
f 509/3/5 506/3/5 505/3/5
f 510/3/5 506/3/5 509/3/5
f 511/3/5 508/3/5 507/3/5
f 512/3/5 508/3/5 511/3/5
f 519/4/5 514/4/5 513/4/5
f 519/4/5 515/4/5 514/4/5
f 520/4/5 515/4/5 519/4/5
f 521/4/5 518/4/5 517/4/5
f 521/4/5 517/4/5 516/4/5
f 522/4/5 518/4/5 521/4/5
f 523/2/5 520/2/5 519/2/5
f 524/2/5 520/2/5 523/2/5
f 525/2/5 522/2/5 521/2/5
f 526/2/5 522/2/5 525/2/5
f 533/6/5 528/6/5 527/6/5
f 534/6/5 530/6/5 529/6/5
f 535/6/5 530/6/5 534/6/5
f 536/6/5 532/6/5 531/6/5
f 537/6/5 533/6/5 527/6/5
f 538/6/5 533/6/5 537/6/5
f 539/6/5 535/6/5 534/6/5
f 540/6/5 535/6/5 539/6/5
f 541/6/5 532/6/5 536/6/5
f 542/6/5 532/6/5 541/6/5
f 543/3/6 544/3/6 547/3/6
f 547/3/6 544/3/6 548/3/6
f 545/3/6 546/3/6 549/3/6
f 549/3/6 546/3/6 550/3/6
f 551/3/6 552/3/6 555/3/6
f 555/3/6 552/3/6 556/3/6
f 553/3/6 554/3/6 557/3/6
f 557/3/6 554/3/6 558/3/6
f 559/3/6 560/3/6 563/3/6
f 563/3/6 560/3/6 564/3/6
f 561/3/6 562/3/6 565/3/6
f 565/3/6 562/3/6 566/3/6
f 567/3/6 568/3/6 571/3/6
f 571/3/6 568/3/6 572/3/6
f 569/3/6 570/3/6 573/3/6
f 573/3/6 570/3/6 574/3/6
f 575/6/6 576/6/6 580/6/6
f 577/6/6 578/6/6 580/6/6
f 576/6/6 577/6/6 580/6/6
f 580/6/6 578/6/6 581/6/6
f 579/3/6 580/3/6 583/3/6
f 583/3/6 580/3/6 584/3/6
f 581/3/6 582/3/6 585/3/6
f 585/3/6 582/3/6 586/3/6
f 587/3/6 588/3/6 591/3/6
f 591/3/6 588/3/6 592/3/6
f 589/3/6 590/3/6 593/3/6
f 593/3/6 590/3/6 594/3/6
f 595/3/6 596/3/6 599/3/6
f 599/3/6 596/3/6 600/3/6
f 597/3/6 598/3/6 601/3/6
f 601/3/6 598/3/6 602/3/6
f 603/5/6 604/5/6 605/5/6
f 605/5/6 604/5/6 606/5/6
