# MagicaVoxel @ Ephtracy

# group
g RedCar

# material
mtllib RedCar.mtl
usemtl palette

# normals
vn -1 0 0
vn 1 0 0
vn 0 0 1
vn 0 0 -1
vn 0 -1 0
vn 0 1 0

# texcoords
vt 0.00195313 0.5
vt 0.306641 0.5
vt 0.849609 0.5
vt 0.857422 0.5
vt 0.974609 0.5
vt 0.994141 0.5

# verts
v -35 10 15
v -35 10 -15
v -35 25 15
v -35 25 -15
v -30 25 10
v -30 25 -10
v -30 40 10
v -30 40 -10
v -25 0 15
v -25 0 10
v -25 0 -10
v -25 0 -15
v -25 10 15
v -25 10 10
v -25 10 -10
v -25 10 -15
v -5 20 20
v -5 20 15
v -5 20 -15
v -5 20 -20
v -5 25 20
v -5 25 15
v -5 25 -15
v -5 25 -20
v 10 0 15
v 10 0 10
v 10 0 -10
v 10 0 -15
v 10 10 15
v 10 10 10
v 10 10 -10
v 10 10 -15
v -10 0 15
v -10 0 10
v -10 0 -10
v -10 0 -15
v -10 10 15
v -10 10 10
v -10 10 -10
v -10 10 -15
v 5 20 20
v 5 20 15
v 5 20 -15
v 5 20 -20
v 5 25 20
v 5 25 15
v 5 25 -15
v 5 25 -20
v 10 25 10
v 10 25 5
v 10 25 -5
v 10 25 -10
v 10 35 5
v 10 35 -5
v 10 40 10
v 10 40 -10
v 25 0 15
v 25 0 10
v 25 0 -10
v 25 0 -15
v 25 10 15
v 25 10 10
v 25 10 -10
v 25 10 -15
v 35 10 15
v 35 10 -15
v 35 15 10
v 35 15 5
v 35 15 -5
v 35 15 -10
v 35 20 10
v 35 20 5
v 35 20 -5
v 35 20 -10
v 35 25 15
v 35 25 5
v 35 25 -5
v 35 25 -15
v -5 20 20
v -5 25 20
v 5 20 20
v 5 25 20
v -35 10 15
v -35 25 15
v -25 0 15
v -25 10 15
v -25 15 15
v -20 5 15
v -20 10 15
v -15 5 15
v -15 10 15
v -10 0 15
v -10 10 15
v -10 15 15
v -5 20 15
v -5 25 15
v 5 20 15
v 5 25 15
v 10 0 15
v 10 10 15
v 10 15 15
v 15 5 15
v 15 10 15
v 20 5 15
v 20 10 15
v 25 0 15
v 25 10 15
v 25 15 15
v 35 10 15
v 35 25 15
v -30 25 10
v -30 40 10
v -25 25 10
v -25 35 10
v -15 25 10
v -15 35 10
v -5 25 10
v -5 35 10
v 5 25 10
v 5 35 10
v 10 25 10
v 10 40 10
v -25 0 -10
v -25 10 -10
v -10 0 -10
v -10 10 -10
v 10 0 -10
v 10 10 -10
v 25 0 -10
v 25 10 -10
v -25 0 10
v -25 10 10
v -10 0 10
v -10 10 10
v 10 0 10
v 10 10 10
v 25 0 10
v 25 10 10
v -30 25 -10
v -30 40 -10
v -25 25 -10
v -25 35 -10
v -15 25 -10
v -15 35 -10
v -5 25 -10
v -5 35 -10
v 5 25 -10
v 5 35 -10
v 10 25 -10
v 10 40 -10
v -35 10 -15
v -35 25 -15
v -25 0 -15
v -25 10 -15
v -25 15 -15
v -20 5 -15
v -20 10 -15
v -15 5 -15
v -15 10 -15
v -10 0 -15
v -10 10 -15
v -10 15 -15
v -5 20 -15
v -5 25 -15
v 5 20 -15
v 5 25 -15
v 10 0 -15
v 10 10 -15
v 10 15 -15
v 15 5 -15
v 15 10 -15
v 20 5 -15
v 20 10 -15
v 25 0 -15
v 25 10 -15
v 25 15 -15
v 35 10 -15
v 35 25 -15
v -5 20 -20
v -5 25 -20
v 5 20 -20
v 5 25 -20
v -25 0 15
v -10 0 15
v 10 0 15
v 25 0 15
v -25 0 10
v -10 0 10
v 10 0 10
v 25 0 10
v -25 0 -10
v -10 0 -10
v 10 0 -10
v 25 0 -10
v -25 0 -15
v -10 0 -15
v 10 0 -15
v 25 0 -15
v -35 10 15
v -25 10 15
v -10 10 15
v 10 10 15
v 25 10 15
v 35 10 15
v -25 10 10
v -10 10 10
v 10 10 10
v 25 10 10
v -25 10 -10
v -10 10 -10
v 10 10 -10
v 25 10 -10
v -35 10 -15
v -25 10 -15
v -10 10 -15
v 10 10 -15
v 25 10 -15
v 35 10 -15
v -5 20 20
v 5 20 20
v -5 20 15
v 5 20 15
v -5 20 -15
v 5 20 -15
v -5 20 -20
v 5 20 -20
v -5 25 20
v 5 25 20
v -35 25 15
v -5 25 15
v 5 25 15
v 35 25 15
v -30 25 10
v -25 25 10
v -15 25 10
v -5 25 10
v 5 25 10
v 10 25 10
v 10 25 5
v 35 25 5
v 10 25 -5
v 35 25 -5
v -30 25 -10
v -25 25 -10
v -15 25 -10
v -5 25 -10
v 5 25 -10
v 10 25 -10
v -35 25 -15
v -5 25 -15
v 5 25 -15
v 35 25 -15
v -5 25 -20
v 5 25 -20
v -30 40 10
v 10 40 10
v -30 40 -10
v 10 40 -10

# faces
f 3/3/1 2/3/1 1/3/1
f 4/3/1 2/3/1 3/3/1
f 7/5/1 6/5/1 5/5/1
f 8/5/1 6/5/1 7/5/1
f 13/6/1 10/6/1 9/6/1
f 14/6/1 10/6/1 13/6/1
f 15/6/1 12/6/1 11/6/1
f 16/6/1 12/6/1 15/6/1
f 21/4/1 18/4/1 17/4/1
f 22/4/1 18/4/1 21/4/1
f 23/4/1 20/4/1 19/4/1
f 24/4/1 20/4/1 23/4/1
f 29/6/1 26/6/1 25/6/1
f 30/6/1 26/6/1 29/6/1
f 31/6/1 28/6/1 27/6/1
f 32/6/1 28/6/1 31/6/1
f 33/6/2 34/6/2 37/6/2
f 37/6/2 34/6/2 38/6/2
f 35/6/2 36/6/2 39/6/2
f 39/6/2 36/6/2 40/6/2
f 41/4/2 42/4/2 45/4/2
f 45/4/2 42/4/2 46/4/2
f 43/4/2 44/4/2 47/4/2
f 47/4/2 44/4/2 48/4/2
f 49/5/2 50/5/2 53/5/2
f 50/6/2 51/6/2 53/6/2
f 51/5/2 52/5/2 54/5/2
f 53/6/2 51/6/2 54/6/2
f 49/5/2 53/5/2 55/5/2
f 53/5/2 54/5/2 55/5/2
f 54/5/2 52/5/2 56/5/2
f 55/5/2 54/5/2 56/5/2
f 57/6/2 58/6/2 61/6/2
f 61/6/2 58/6/2 62/6/2
f 59/6/2 60/6/2 63/6/2
f 63/6/2 60/6/2 64/6/2
f 65/3/2 66/3/2 67/3/2
f 67/3/2 66/3/2 68/3/2
f 68/3/2 66/3/2 69/3/2
f 69/3/2 66/3/2 70/3/2
f 65/3/2 67/3/2 71/3/2
f 67/1/2 68/1/2 71/1/2
f 68/3/2 69/3/2 72/3/2
f 71/1/2 68/1/2 72/1/2
f 69/1/2 70/1/2 73/1/2
f 72/3/2 69/3/2 73/3/2
f 70/3/2 66/3/2 74/3/2
f 73/1/2 70/1/2 74/1/2
f 71/3/2 72/3/2 75/3/2
f 65/3/2 71/3/2 75/3/2
f 72/4/2 73/4/2 76/4/2
f 75/3/2 72/3/2 76/3/2
f 73/3/2 74/3/2 77/3/2
f 76/4/2 73/4/2 77/4/2
f 74/3/2 66/3/2 78/3/2
f 77/3/2 74/3/2 78/3/2
f 81/4/3 80/4/3 79/4/3
f 82/4/3 80/4/3 81/4/3
f 86/3/3 84/3/3 83/3/3
f 87/3/3 84/3/3 86/3/3
f 88/6/3 86/6/3 85/6/3
f 88/6/3 87/6/3 86/6/3
f 89/6/3 87/6/3 88/6/3
f 90/6/3 88/6/3 85/6/3
f 90/1/3 89/1/3 88/1/3
f 91/6/3 87/6/3 89/6/3
f 91/1/3 89/1/3 90/1/3
f 92/6/3 90/6/3 85/6/3
f 92/6/3 91/6/3 90/6/3
f 93/6/3 87/6/3 91/6/3
f 93/6/3 91/6/3 92/6/3
f 94/3/3 84/3/3 87/3/3
f 94/6/3 87/6/3 93/6/3
f 95/3/3 84/3/3 94/3/3
f 95/3/3 94/3/3 93/3/3
f 96/3/3 84/3/3 95/3/3
f 97/3/3 95/3/3 93/3/3
f 100/3/3 97/3/3 93/3/3
f 100/3/3 98/3/3 97/3/3
f 101/3/3 98/3/3 100/3/3
f 102/6/3 100/6/3 99/6/3
f 102/6/3 101/6/3 100/6/3
f 103/6/3 101/6/3 102/6/3
f 104/6/3 102/6/3 99/6/3
f 104/1/3 103/1/3 102/1/3
f 105/6/3 101/6/3 103/6/3
f 105/1/3 103/1/3 104/1/3
f 106/6/3 104/6/3 99/6/3
f 106/6/3 105/6/3 104/6/3
f 107/6/3 101/6/3 105/6/3
f 107/6/3 105/6/3 106/6/3
f 108/3/3 98/3/3 101/3/3
f 108/6/3 101/6/3 107/6/3
f 109/3/3 108/3/3 107/3/3
f 110/3/3 98/3/3 108/3/3
f 110/3/3 108/3/3 109/3/3
f 113/5/3 112/5/3 111/5/3
f 114/5/3 112/5/3 113/5/3
f 115/6/3 114/6/3 113/6/3
f 116/5/3 112/5/3 114/5/3
f 116/6/3 114/6/3 115/6/3
f 117/5/3 116/5/3 115/5/3
f 118/5/3 112/5/3 116/5/3
f 118/5/3 116/5/3 117/5/3
f 119/6/3 118/6/3 117/6/3
f 120/5/3 112/5/3 118/5/3
f 120/6/3 118/6/3 119/6/3
f 121/5/3 120/5/3 119/5/3
f 122/5/3 112/5/3 120/5/3
f 122/5/3 120/5/3 121/5/3
f 125/6/3 124/6/3 123/6/3
f 126/6/3 124/6/3 125/6/3
f 129/6/3 128/6/3 127/6/3
f 130/6/3 128/6/3 129/6/3
f 131/6/4 132/6/4 133/6/4
f 133/6/4 132/6/4 134/6/4
f 135/6/4 136/6/4 137/6/4
f 137/6/4 136/6/4 138/6/4
f 139/5/4 140/5/4 141/5/4
f 141/5/4 140/5/4 142/5/4
f 141/6/4 142/6/4 143/6/4
f 142/5/4 140/5/4 144/5/4
f 143/6/4 142/6/4 144/6/4
f 143/5/4 144/5/4 145/5/4
f 144/5/4 140/5/4 146/5/4
f 145/5/4 144/5/4 146/5/4
f 145/6/4 146/6/4 147/6/4
f 146/5/4 140/5/4 148/5/4
f 147/6/4 146/6/4 148/6/4
f 147/5/4 148/5/4 149/5/4
f 148/5/4 140/5/4 150/5/4
f 149/5/4 148/5/4 150/5/4
f 151/3/4 152/3/4 154/3/4
f 154/3/4 152/3/4 155/3/4
f 153/6/4 154/6/4 156/6/4
f 154/6/4 155/6/4 156/6/4
f 156/6/4 155/6/4 157/6/4
f 153/6/4 156/6/4 158/6/4
f 156/1/4 157/1/4 158/1/4
f 157/6/4 155/6/4 159/6/4
f 158/1/4 157/1/4 159/1/4
f 153/6/4 158/6/4 160/6/4
f 158/6/4 159/6/4 160/6/4
f 159/6/4 155/6/4 161/6/4
f 160/6/4 159/6/4 161/6/4
f 155/3/4 152/3/4 162/3/4
f 161/6/4 155/6/4 162/6/4
f 162/3/4 152/3/4 163/3/4
f 161/3/4 162/3/4 163/3/4
f 163/3/4 152/3/4 164/3/4
f 161/3/4 163/3/4 165/3/4
f 161/3/4 165/3/4 168/3/4
f 165/3/4 166/3/4 168/3/4
f 168/3/4 166/3/4 169/3/4
f 167/6/4 168/6/4 170/6/4
f 168/6/4 169/6/4 170/6/4
f 170/6/4 169/6/4 171/6/4
f 167/6/4 170/6/4 172/6/4
f 170/1/4 171/1/4 172/1/4
f 171/6/4 169/6/4 173/6/4
f 172/1/4 171/1/4 173/1/4
f 167/6/4 172/6/4 174/6/4
f 172/6/4 173/6/4 174/6/4
f 173/6/4 169/6/4 175/6/4
f 174/6/4 173/6/4 175/6/4
f 169/3/4 166/3/4 176/3/4
f 175/6/4 169/6/4 176/6/4
f 175/3/4 176/3/4 177/3/4
f 176/3/4 166/3/4 178/3/4
f 177/3/4 176/3/4 178/3/4
f 179/4/4 180/4/4 181/4/4
f 181/4/4 180/4/4 182/4/4
f 187/6/5 184/6/5 183/6/5
f 188/6/5 184/6/5 187/6/5
f 189/6/5 186/6/5 185/6/5
f 190/6/5 186/6/5 189/6/5
f 195/6/5 192/6/5 191/6/5
f 196/6/5 192/6/5 195/6/5
f 197/6/5 194/6/5 193/6/5
f 198/6/5 194/6/5 197/6/5
f 205/3/5 200/3/5 199/3/5
f 206/3/5 202/3/5 201/3/5
f 207/3/5 202/3/5 206/3/5
f 208/3/5 204/3/5 203/3/5
f 209/3/5 207/3/5 206/3/5
f 209/3/5 208/3/5 207/3/5
f 209/3/5 205/3/5 199/3/5
f 209/3/5 206/3/5 205/3/5
f 210/3/5 208/3/5 209/3/5
f 211/3/5 208/3/5 210/3/5
f 212/3/5 204/3/5 208/3/5
f 212/3/5 208/3/5 211/3/5
f 213/3/5 209/3/5 199/3/5
f 214/3/5 209/3/5 213/3/5
f 215/3/5 211/3/5 210/3/5
f 216/3/5 211/3/5 215/3/5
f 217/3/5 204/3/5 212/3/5
f 218/3/5 204/3/5 217/3/5
f 221/4/5 220/4/5 219/4/5
f 222/4/5 220/4/5 221/4/5
f 225/4/5 224/4/5 223/4/5
f 226/4/5 224/4/5 225/4/5
f 227/4/6 228/4/6 230/4/6
f 230/4/6 228/4/6 231/4/6
f 229/3/6 230/3/6 233/3/6
f 231/3/6 232/3/6 233/3/6
f 230/3/6 231/3/6 233/3/6
f 233/3/6 232/3/6 234/3/6
f 234/3/6 232/3/6 235/3/6
f 235/3/6 232/3/6 236/3/6
f 236/3/6 232/3/6 237/3/6
f 237/3/6 232/3/6 238/3/6
f 238/3/6 232/3/6 239/3/6
f 239/3/6 232/3/6 240/3/6
f 239/4/6 240/4/6 241/4/6
f 241/4/6 240/4/6 242/4/6
f 229/3/6 233/3/6 243/3/6
f 241/3/6 242/3/6 248/3/6
f 246/3/6 247/3/6 249/3/6
f 247/3/6 248/3/6 249/3/6
f 229/3/6 243/3/6 249/3/6
f 243/3/6 244/3/6 249/3/6
f 245/3/6 246/3/6 249/3/6
f 244/3/6 245/3/6 249/3/6
f 249/3/6 248/3/6 250/3/6
f 250/3/6 248/3/6 251/3/6
f 248/3/6 242/3/6 252/3/6
f 251/3/6 248/3/6 252/3/6
f 250/4/6 251/4/6 253/4/6
f 253/4/6 251/4/6 254/4/6
f 255/5/6 256/5/6 257/5/6
f 257/5/6 256/5/6 258/5/6
