# MagicaVoxel @ Ephtracy

# group
g RedCarDesert

# material
mtllib RedCarDesert.mtl
usemtl palette

# normals
vn -1 0 0
vn 1 0 0
vn 0 0 1
vn 0 0 -1
vn 0 -1 0
vn 0 1 0

# texcoords
vt 0.00195313 0.5
vt 0.306641 0.5
vt 0.849609 0.5
vt 0.857422 0.5
vt 0.974609 0.5
vt 0.994141 0.5

# verts
v -35 10 15
v -35 10 -15
v -35 25 15
v -35 25 -15
v -32 25 12
v -32 25 -12
v -32 40 12
v -32 40 -12
v -25 0 15
v -25 0 10
v -25 0 -10
v -25 0 -15
v -25 10 15
v -25 10 10
v -25 10 -10
v -25 10 -15
v 10 0 15
v 10 0 10
v 10 0 -10
v 10 0 -15
v 10 10 15
v 10 10 10
v 10 10 -10
v 10 10 -15
v 10 25 15
v 10 25 12
v 10 25 8
v 10 25 -8
v 10 25 -12
v 10 25 -15
v 10 40 15
v 10 40 12
v 10 40 8
v 10 40 -8
v 10 40 -12
v 10 40 -15
v 15 20 20
v 15 20 15
v 15 20 -15
v 15 20 -20
v 15 25 20
v 15 25 15
v 15 25 -15
v 15 25 -20
v -28 25 8
v -28 25 -8
v -28 40 8
v -28 40 -8
v -10 0 15
v -10 0 10
v -10 0 -10
v -10 0 -15
v -10 10 15
v -10 10 10
v -10 10 -10
v -10 10 -15
v 25 0 15
v 25 0 10
v 25 0 -10
v 25 0 -15
v 25 10 15
v 25 10 10
v 25 10 -10
v 25 10 -15
v 25 20 20
v 25 20 15
v 25 20 -15
v 25 20 -20
v 25 25 20
v 25 25 15
v 25 25 -15
v 25 25 -20
v 28 25 15
v 28 25 11
v 28 25 5
v 28 25 -5
v 28 25 -11
v 28 25 -15
v 28 35 11
v 28 35 -11
v 28 40 15
v 28 40 -15
v 35 10 15
v 35 10 -15
v 35 15 10
v 35 15 5
v 35 15 -5
v 35 15 -10
v 35 20 10
v 35 20 5
v 35 20 -5
v 35 20 -10
v 35 25 15
v 35 25 5
v 35 25 -5
v 35 25 -15
v 15 20 20
v 15 25 20
v 25 20 20
v 25 25 20
v -35 10 15
v -35 25 15
v -25 0 15
v -25 10 15
v -25 15 15
v -20 5 15
v -20 10 15
v -15 5 15
v -15 10 15
v -10 0 15
v -10 10 15
v -10 15 15
v 10 0 15
v 10 10 15
v 10 15 15
v 10 25 15
v 10 40 15
v 14 25 15
v 14 35 15
v 15 5 15
v 15 10 15
v 15 20 15
v 15 25 15
v 20 5 15
v 20 10 15
v 24 25 15
v 24 35 15
v 25 0 15
v 25 10 15
v 25 15 15
v 25 20 15
v 25 25 15
v 28 25 15
v 28 40 15
v 35 10 15
v 35 25 15
v -32 25 12
v -32 40 12
v 10 25 12
v 10 40 12
v -28 25 -8
v -28 40 -8
v 10 25 -8
v 10 40 -8
v -25 0 -10
v -25 10 -10
v -10 0 -10
v -10 10 -10
v 10 0 -10
v 10 10 -10
v 25 0 -10
v 25 10 -10
v -25 0 10
v -25 10 10
v -10 0 10
v -10 10 10
v 10 0 10
v 10 10 10
v 25 0 10
v 25 10 10
v -28 25 8
v -28 40 8
v 10 25 8
v 10 40 8
v -32 25 -12
v -32 40 -12
v 10 25 -12
v 10 40 -12
v -35 10 -15
v -35 25 -15
v -25 0 -15
v -25 10 -15
v -25 15 -15
v -20 5 -15
v -20 10 -15
v -15 5 -15
v -15 10 -15
v -10 0 -15
v -10 10 -15
v -10 15 -15
v 10 0 -15
v 10 10 -15
v 10 15 -15
v 10 25 -15
v 10 40 -15
v 14 25 -15
v 14 35 -15
v 15 5 -15
v 15 10 -15
v 15 20 -15
v 15 25 -15
v 20 5 -15
v 20 10 -15
v 24 25 -15
v 24 35 -15
v 25 0 -15
v 25 10 -15
v 25 15 -15
v 25 20 -15
v 25 25 -15
v 28 25 -15
v 28 40 -15
v 35 10 -15
v 35 25 -15
v 15 20 -20
v 15 25 -20
v 25 20 -20
v 25 25 -20
v -25 0 15
v -10 0 15
v 10 0 15
v 25 0 15
v -25 0 10
v -10 0 10
v 10 0 10
v 25 0 10
v -25 0 -10
v -10 0 -10
v 10 0 -10
v 25 0 -10
v -25 0 -15
v -10 0 -15
v 10 0 -15
v 25 0 -15
v -35 10 15
v -25 10 15
v -10 10 15
v 10 10 15
v 25 10 15
v 35 10 15
v -25 10 10
v -10 10 10
v 10 10 10
v 25 10 10
v -25 10 -10
v -10 10 -10
v 10 10 -10
v 25 10 -10
v -35 10 -15
v -25 10 -15
v -10 10 -15
v 10 10 -15
v 25 10 -15
v 35 10 -15
v 15 20 20
v 25 20 20
v 15 20 15
v 25 20 15
v 15 20 -15
v 25 20 -15
v 15 20 -20
v 25 20 -20
v 15 25 20
v 25 25 20
v -35 25 15
v 10 25 15
v 15 25 15
v 24 25 15
v 25 25 15
v 28 25 15
v 35 25 15
v -32 25 12
v 10 25 12
v 28 25 11
v -28 25 8
v 10 25 8
v 28 25 5
v 35 25 5
v 28 25 -5
v 35 25 -5
v -28 25 -8
v 10 25 -8
v 28 25 -11
v -32 25 -12
v 10 25 -12
v -35 25 -15
v 10 25 -15
v 15 25 -15
v 24 25 -15
v 25 25 -15
v 28 25 -15
v 35 25 -15
v 15 25 -20
v 25 25 -20
v 10 40 15
v 28 40 15
v -32 40 12
v 10 40 12
v -28 40 8
v 10 40 8
v -28 40 -8
v 10 40 -8
v -32 40 -12
v 10 40 -12
v 10 40 -15
v 28 40 -15

# faces
f 3/3/1 2/3/1 1/3/1
f 4/3/1 2/3/1 3/3/1
f 7/4/1 6/4/1 5/4/1
f 8/4/1 6/4/1 7/4/1
f 13/6/1 10/6/1 9/6/1
f 14/6/1 10/6/1 13/6/1
f 15/6/1 12/6/1 11/6/1
f 16/6/1 12/6/1 15/6/1
f 21/6/1 18/6/1 17/6/1
f 22/6/1 18/6/1 21/6/1
f 23/6/1 20/6/1 19/6/1
f 24/6/1 20/6/1 23/6/1
f 31/5/1 26/5/1 25/5/1
f 32/5/1 26/5/1 31/5/1
f 33/5/1 28/5/1 27/5/1
f 34/5/1 28/5/1 33/5/1
f 35/5/1 30/5/1 29/5/1
f 36/5/1 30/5/1 35/5/1
f 41/4/1 38/4/1 37/4/1
f 42/4/1 38/4/1 41/4/1
f 43/4/1 40/4/1 39/4/1
f 44/4/1 40/4/1 43/4/1
f 45/4/2 46/4/2 47/4/2
f 47/4/2 46/4/2 48/4/2
f 49/6/2 50/6/2 53/6/2
f 53/6/2 50/6/2 54/6/2
f 51/6/2 52/6/2 55/6/2
f 55/6/2 52/6/2 56/6/2
f 57/6/2 58/6/2 61/6/2
f 61/6/2 58/6/2 62/6/2
f 59/6/2 60/6/2 63/6/2
f 63/6/2 60/6/2 64/6/2
f 65/4/2 66/4/2 69/4/2
f 69/4/2 66/4/2 70/4/2
f 67/4/2 68/4/2 71/4/2
f 71/4/2 68/4/2 72/4/2
f 73/5/2 74/5/2 79/5/2
f 74/6/2 75/6/2 79/6/2
f 76/6/2 77/6/2 79/6/2
f 75/6/2 76/6/2 79/6/2
f 77/5/2 78/5/2 80/5/2
f 79/6/2 77/6/2 80/6/2
f 73/5/2 79/5/2 81/5/2
f 79/5/2 80/5/2 81/5/2
f 80/5/2 78/5/2 82/5/2
f 81/5/2 80/5/2 82/5/2
f 83/3/2 84/3/2 85/3/2
f 85/3/2 84/3/2 86/3/2
f 86/3/2 84/3/2 87/3/2
f 87/3/2 84/3/2 88/3/2
f 83/3/2 85/3/2 89/3/2
f 85/1/2 86/1/2 89/1/2
f 86/3/2 87/3/2 90/3/2
f 89/1/2 86/1/2 90/1/2
f 87/1/2 88/1/2 91/1/2
f 90/3/2 87/3/2 91/3/2
f 88/3/2 84/3/2 92/3/2
f 91/1/2 88/1/2 92/1/2
f 89/3/2 90/3/2 93/3/2
f 83/3/2 89/3/2 93/3/2
f 90/4/2 91/4/2 94/4/2
f 93/3/2 90/3/2 94/3/2
f 91/3/2 92/3/2 95/3/2
f 94/4/2 91/4/2 95/4/2
f 92/3/2 84/3/2 96/3/2
f 95/3/2 92/3/2 96/3/2
f 99/4/3 98/4/3 97/4/3
f 100/4/3 98/4/3 99/4/3
f 104/3/3 102/3/3 101/3/3
f 105/3/3 102/3/3 104/3/3
f 106/6/3 104/6/3 103/6/3
f 106/6/3 105/6/3 104/6/3
f 107/6/3 105/6/3 106/6/3
f 108/6/3 106/6/3 103/6/3
f 108/1/3 107/1/3 106/1/3
f 109/6/3 105/6/3 107/6/3
f 109/1/3 107/1/3 108/1/3
f 110/6/3 108/6/3 103/6/3
f 110/6/3 109/6/3 108/6/3
f 111/6/3 105/6/3 109/6/3
f 111/6/3 109/6/3 110/6/3
f 112/3/3 102/3/3 105/3/3
f 112/6/3 105/6/3 111/6/3
f 114/3/3 112/3/3 111/3/3
f 115/3/3 102/3/3 112/3/3
f 115/3/3 112/3/3 114/3/3
f 116/3/3 102/3/3 115/3/3
f 118/3/3 116/3/3 115/3/3
f 118/5/3 117/5/3 116/5/3
f 119/5/3 117/5/3 118/5/3
f 120/6/3 114/6/3 113/6/3
f 120/6/3 115/6/3 114/6/3
f 121/6/3 115/6/3 120/6/3
f 122/3/3 118/3/3 115/3/3
f 123/6/3 119/6/3 118/6/3
f 123/3/3 118/3/3 122/3/3
f 124/6/3 120/6/3 113/6/3
f 124/1/3 121/1/3 120/1/3
f 125/6/3 115/6/3 121/6/3
f 125/1/3 121/1/3 124/1/3
f 126/6/3 119/6/3 123/6/3
f 127/5/3 117/5/3 119/5/3
f 127/6/3 119/6/3 126/6/3
f 128/6/3 124/6/3 113/6/3
f 128/6/3 125/6/3 124/6/3
f 129/6/3 115/6/3 125/6/3
f 129/6/3 125/6/3 128/6/3
f 130/3/3 122/3/3 115/3/3
f 130/6/3 115/6/3 129/6/3
f 131/3/3 122/3/3 130/3/3
f 132/5/3 127/5/3 126/5/3
f 133/3/3 132/3/3 131/3/3
f 133/5/3 127/5/3 132/5/3
f 133/3/3 131/3/3 130/3/3
f 133/3/3 130/3/3 129/3/3
f 134/5/3 117/5/3 127/5/3
f 134/5/3 127/5/3 133/5/3
f 135/3/3 133/3/3 129/3/3
f 136/3/3 133/3/3 135/3/3
f 139/4/3 138/4/3 137/4/3
f 140/4/3 138/4/3 139/4/3
f 143/4/3 142/4/3 141/4/3
f 144/4/3 142/4/3 143/4/3
f 147/6/3 146/6/3 145/6/3
f 148/6/3 146/6/3 147/6/3
f 151/6/3 150/6/3 149/6/3
f 152/6/3 150/6/3 151/6/3
f 153/6/4 154/6/4 155/6/4
f 155/6/4 154/6/4 156/6/4
f 157/6/4 158/6/4 159/6/4
f 159/6/4 158/6/4 160/6/4
f 161/4/4 162/4/4 163/4/4
f 163/4/4 162/4/4 164/4/4
f 165/4/4 166/4/4 167/4/4
f 167/4/4 166/4/4 168/4/4
f 169/3/4 170/3/4 172/3/4
f 172/3/4 170/3/4 173/3/4
f 171/6/4 172/6/4 174/6/4
f 172/6/4 173/6/4 174/6/4
f 174/6/4 173/6/4 175/6/4
f 171/6/4 174/6/4 176/6/4
f 174/1/4 175/1/4 176/1/4
f 175/6/4 173/6/4 177/6/4
f 176/1/4 175/1/4 177/1/4
f 171/6/4 176/6/4 178/6/4
f 176/6/4 177/6/4 178/6/4
f 177/6/4 173/6/4 179/6/4
f 178/6/4 177/6/4 179/6/4
f 173/3/4 170/3/4 180/3/4
f 179/6/4 173/6/4 180/6/4
f 179/3/4 180/3/4 182/3/4
f 180/3/4 170/3/4 183/3/4
f 182/3/4 180/3/4 183/3/4
f 183/3/4 170/3/4 184/3/4
f 183/3/4 184/3/4 186/3/4
f 184/5/4 185/5/4 186/5/4
f 186/5/4 185/5/4 187/5/4
f 181/6/4 182/6/4 188/6/4
f 182/6/4 183/6/4 188/6/4
f 188/6/4 183/6/4 189/6/4
f 183/3/4 186/3/4 190/3/4
f 186/6/4 187/6/4 191/6/4
f 190/3/4 186/3/4 191/3/4
f 181/6/4 188/6/4 192/6/4
f 188/1/4 189/1/4 192/1/4
f 189/6/4 183/6/4 193/6/4
f 192/1/4 189/1/4 193/1/4
f 191/6/4 187/6/4 194/6/4
f 187/5/4 185/5/4 195/5/4
f 194/6/4 187/6/4 195/6/4
f 181/6/4 192/6/4 196/6/4
f 192/6/4 193/6/4 196/6/4
f 193/6/4 183/6/4 197/6/4
f 196/6/4 193/6/4 197/6/4
f 183/3/4 190/3/4 198/3/4
f 197/6/4 183/6/4 198/6/4
f 198/3/4 190/3/4 199/3/4
f 194/5/4 195/5/4 200/5/4
f 199/3/4 200/3/4 201/3/4
f 200/5/4 195/5/4 201/5/4
f 198/3/4 199/3/4 201/3/4
f 197/3/4 198/3/4 201/3/4
f 195/5/4 185/5/4 202/5/4
f 201/5/4 195/5/4 202/5/4
f 197/3/4 201/3/4 203/3/4
f 203/3/4 201/3/4 204/3/4
f 205/4/4 206/4/4 207/4/4
f 207/4/4 206/4/4 208/4/4
f 213/6/5 210/6/5 209/6/5
f 214/6/5 210/6/5 213/6/5
f 215/6/5 212/6/5 211/6/5
f 216/6/5 212/6/5 215/6/5
f 221/6/5 218/6/5 217/6/5
f 222/6/5 218/6/5 221/6/5
f 223/6/5 220/6/5 219/6/5
f 224/6/5 220/6/5 223/6/5
f 231/3/5 226/3/5 225/3/5
f 232/3/5 228/3/5 227/3/5
f 233/3/5 228/3/5 232/3/5
f 234/3/5 230/3/5 229/3/5
f 235/3/5 233/3/5 232/3/5
f 235/3/5 234/3/5 233/3/5
f 235/3/5 231/3/5 225/3/5
f 235/3/5 232/3/5 231/3/5
f 236/3/5 234/3/5 235/3/5
f 237/3/5 234/3/5 236/3/5
f 238/3/5 230/3/5 234/3/5
f 238/3/5 234/3/5 237/3/5
f 239/3/5 235/3/5 225/3/5
f 240/3/5 235/3/5 239/3/5
f 241/3/5 237/3/5 236/3/5
f 242/3/5 237/3/5 241/3/5
f 243/3/5 230/3/5 238/3/5
f 244/3/5 230/3/5 243/3/5
f 247/4/5 246/4/5 245/4/5
f 248/4/5 246/4/5 247/4/5
f 251/4/5 250/4/5 249/4/5
f 252/4/5 250/4/5 251/4/5
f 253/4/6 254/4/6 257/4/6
f 257/4/6 254/4/6 258/4/6
f 258/4/6 254/4/6 259/4/6
f 255/3/6 256/3/6 262/3/6
f 262/3/6 256/3/6 263/3/6
f 260/3/6 261/3/6 264/3/6
f 264/3/6 261/3/6 267/3/6
f 267/3/6 261/3/6 268/3/6
f 267/4/6 268/4/6 269/4/6
f 269/4/6 268/4/6 270/4/6
f 265/3/6 266/3/6 271/3/6
f 271/3/6 266/3/6 272/3/6
f 269/3/6 270/3/6 273/3/6
f 255/3/6 262/3/6 274/3/6
f 255/3/6 274/3/6 276/3/6
f 274/3/6 275/3/6 276/3/6
f 276/3/6 275/3/6 277/3/6
f 273/3/6 270/3/6 281/3/6
f 281/3/6 270/3/6 282/3/6
f 279/4/6 280/4/6 283/4/6
f 278/4/6 279/4/6 283/4/6
f 283/4/6 280/4/6 284/4/6
f 285/5/6 286/5/6 288/5/6
f 287/4/6 288/4/6 289/4/6
f 288/5/6 286/5/6 290/5/6
f 289/4/6 288/4/6 290/4/6
f 287/4/6 289/4/6 291/4/6
f 290/5/6 286/5/6 292/5/6
f 287/4/6 291/4/6 293/4/6
f 291/4/6 292/4/6 293/4/6
f 292/5/6 286/5/6 294/5/6
f 293/4/6 292/4/6 294/4/6
f 294/5/6 286/5/6 295/5/6
f 295/5/6 286/5/6 296/5/6
