# MagicaVoxel @ Ephtracy

# group
g RedTruck

# material
mtllib RedTruck.mtl
usemtl palette

# normals
vn -1 0 0
vn 1 0 0
vn 0 0 1
vn 0 0 -1
vn 0 -1 0
vn 0 1 0

# texcoords
vt 0.00195313 0.5
vt 0.958984 0.5
vt 0.966797 0.5
vt 0.970703 0.5
vt 0.986328 0.5
vt 0.994141 0.5

# verts
v -60 10 15
v -60 10 -15
v -60 15 15
v -60 15 -15
v -60 35 15
v -60 35 -15
v -60 40 15
v -60 40 -15
v -50 0 15
v -50 0 10
v -50 0 -10
v -50 0 -15
v -50 10 15
v -50 10 13
v -50 10 10
v -50 10 -10
v -50 10 -14
v -50 10 -15
v -5 0 15
v -5 0 10
v -5 0 -10
v -5 0 -15
v -5 10 15
v -5 10 13
v -5 10 10
v -5 10 -10
v -5 10 -14
v -5 10 -15
v 25 10 15
v 25 10 -15
v 25 35 15
v 25 35 10
v 25 35 -10
v 25 35 -15
v 25 40 10
v 25 40 -10
v 30 0 15
v 30 0 10
v 30 0 -10
v 30 0 -15
v 30 10 15
v 30 10 10
v 30 10 -10
v 30 10 -15
v 45 10 20
v 45 10 15
v 45 10 -15
v 45 10 -20
v 45 15 15
v 45 15 -15
v 45 20 20
v 45 20 15
v 45 20 -15
v 45 20 -20
v -35 0 15
v -35 0 10
v -35 0 -10
v -35 0 -15
v -35 10 15
v -35 10 13
v -35 10 10
v -35 10 -10
v -35 10 -14
v -35 10 -15
v 10 0 15
v 10 0 10
v 10 0 -10
v 10 0 -15
v 10 10 15
v 10 10 13
v 10 10 10
v 10 10 -10
v 10 10 -14
v 10 10 -15
v 20 10 15
v 20 10 13
v 20 10 -14
v 20 10 -15
v 20 15 15
v 20 15 13
v 20 15 -14
v 20 15 -15
v 20 35 15
v 20 35 14
v 20 35 -14
v 20 35 -15
v 20 40 15
v 20 40 14
v 20 40 -14
v 20 40 -15
v 40 38 10
v 40 38 -10
v 40 40 10
v 40 40 -10
v 45 0 15
v 45 0 10
v 45 0 -10
v 45 0 -15
v 45 10 15
v 45 10 10
v 45 10 -10
v 45 10 -15
v 45 35 10
v 45 35 -10
v 45 38 10
v 45 38 -10
v 50 10 20
v 50 10 15
v 50 10 -15
v 50 10 -20
v 50 20 20
v 50 20 15
v 50 20 -15
v 50 20 -20
v 60 10 15
v 60 10 10
v 60 10 5
v 60 10 -5
v 60 10 -10
v 60 10 -15
v 60 15 10
v 60 15 5
v 60 15 -5
v 60 15 -10
v 60 20 15
v 60 20 -15
v 60 30 15
v 60 30 -15
v 60 35 15
v 60 35 -15
v 45 10 20
v 45 20 20
v 50 10 20
v 50 20 20
v -60 10 15
v -60 15 15
v -60 35 15
v -60 40 15
v -50 0 15
v -50 10 15
v -45 5 15
v -45 10 15
v -40 5 15
v -40 10 15
v -35 0 15
v -35 10 15
v -5 0 15
v -5 10 15
v 0 5 15
v 0 10 15
v 5 5 15
v 5 10 15
v 10 0 15
v 10 10 15
v 20 10 15
v 20 15 15
v 20 35 15
v 20 40 15
v 25 10 15
v 25 35 15
v 30 0 15
v 30 10 15
v 30 15 15
v 35 5 15
v 35 10 15
v 40 5 15
v 40 10 15
v 45 0 15
v 45 10 15
v 45 15 15
v 45 20 15
v 45 30 15
v 50 10 15
v 50 20 15
v 60 10 15
v 60 20 15
v 60 30 15
v 60 35 15
v 25 35 10
v 25 40 10
v 40 38 10
v 40 40 10
v 45 35 10
v 45 38 10
v -50 0 -10
v -50 10 -10
v -35 0 -10
v -35 10 -10
v -5 0 -10
v -5 10 -10
v 10 0 -10
v 10 10 -10
v 30 0 -10
v 30 10 -10
v 45 0 -10
v 45 10 -10
v -50 0 10
v -50 10 10
v -35 0 10
v -35 10 10
v -5 0 10
v -5 10 10
v 10 0 10
v 10 10 10
v 30 0 10
v 30 10 10
v 45 0 10
v 45 10 10
v 25 35 -10
v 25 40 -10
v 40 38 -10
v 40 40 -10
v 45 35 -10
v 45 38 -10
v -60 10 -15
v -60 15 -15
v -60 35 -15
v -60 40 -15
v -50 0 -15
v -50 10 -15
v -45 5 -15
v -45 10 -15
v -40 5 -15
v -40 10 -15
v -35 0 -15
v -35 10 -15
v -5 0 -15
v -5 10 -15
v 0 5 -15
v 0 10 -15
v 5 5 -15
v 5 10 -15
v 10 0 -15
v 10 10 -15
v 20 10 -15
v 20 15 -15
v 20 35 -15
v 20 40 -15
v 25 10 -15
v 25 35 -15
v 30 0 -15
v 30 10 -15
v 30 15 -15
v 35 5 -15
v 35 10 -15
v 40 5 -15
v 40 10 -15
v 45 0 -15
v 45 10 -15
v 45 15 -15
v 45 20 -15
v 45 30 -15
v 50 10 -15
v 50 20 -15
v 60 10 -15
v 60 20 -15
v 60 30 -15
v 60 35 -15
v 45 10 -20
v 45 20 -20
v 50 10 -20
v 50 20 -20
v -50 0 15
v -35 0 15
v -5 0 15
v 10 0 15
v 30 0 15
v 45 0 15
v -50 0 10
v -35 0 10
v -5 0 10
v 10 0 10
v 30 0 10
v 45 0 10
v -50 0 -10
v -35 0 -10
v -5 0 -10
v 10 0 -10
v 30 0 -10
v 45 0 -10
v -50 0 -15
v -35 0 -15
v -5 0 -15
v 10 0 -15
v 30 0 -15
v 45 0 -15
v 45 10 20
v 50 10 20
v -60 10 15
v -50 10 15
v -35 10 15
v -5 10 15
v 10 10 15
v 20 10 15
v 25 10 15
v 30 10 15
v 45 10 15
v 50 10 15
v 60 10 15
v -59 10 13
v -50 10 13
v -35 10 13
v -5 10 13
v 10 10 13
v 20 10 13
v -50 10 10
v -35 10 10
v -5 10 10
v 10 10 10
v 30 10 10
v 45 10 10
v 59 10 10
v 60 10 10
v 59 10 5
v 60 10 5
v 59 10 -5
v 60 10 -5
v -50 10 -10
v -35 10 -10
v -5 10 -10
v 10 10 -10
v 30 10 -10
v 45 10 -10
v 59 10 -10
v 60 10 -10
v -59 10 -14
v -50 10 -14
v -35 10 -14
v -5 10 -14
v 10 10 -14
v 20 10 -14
v -60 10 -15
v -50 10 -15
v -35 10 -15
v -5 10 -15
v 10 10 -15
v 20 10 -15
v 25 10 -15
v 30 10 -15
v 45 10 -15
v 50 10 -15
v 60 10 -15
v 45 10 -20
v 50 10 -20
v 45 20 20
v 50 20 20
v 45 20 15
v 50 20 15
v 45 20 -15
v 50 20 -15
v 45 20 -20
v 50 20 -20
v 25 35 15
v 60 35 15
v 25 35 10
v 45 35 10
v 25 35 -10
v 45 35 -10
v 25 35 -15
v 60 35 -15
v 40 38 10
v 45 38 10
v 40 38 -10
v 45 38 -10
v -60 40 15
v 20 40 15
v -59 40 14
v 20 40 14
v 25 40 10
v 40 40 10
v 25 40 -10
v 40 40 -10
v -59 40 -14
v 20 40 -14
v -60 40 -15
v 20 40 -15

# faces
f 3/3/1 2/3/1 1/3/1
f 4/3/1 2/3/1 3/3/1
f 5/2/1 4/2/1 3/2/1
f 6/2/1 4/2/1 5/2/1
f 7/3/1 6/3/1 5/3/1
f 8/3/1 6/3/1 7/3/1
f 13/6/1 10/6/1 9/6/1
f 14/6/1 10/6/1 13/6/1
f 15/6/1 10/6/1 14/6/1
f 16/6/1 12/6/1 11/6/1
f 17/6/1 12/6/1 16/6/1
f 18/6/1 12/6/1 17/6/1
f 23/6/1 20/6/1 19/6/1
f 24/6/1 20/6/1 23/6/1
f 25/6/1 20/6/1 24/6/1
f 26/6/1 22/6/1 21/6/1
f 27/6/1 22/6/1 26/6/1
f 28/6/1 22/6/1 27/6/1
f 31/4/1 30/4/1 29/4/1
f 32/4/1 30/4/1 31/4/1
f 33/4/1 30/4/1 32/4/1
f 34/4/1 30/4/1 33/4/1
f 35/2/1 33/2/1 32/2/1
f 36/2/1 33/2/1 35/2/1
f 41/6/1 38/6/1 37/6/1
f 42/6/1 38/6/1 41/6/1
f 43/6/1 40/6/1 39/6/1
f 44/6/1 40/6/1 43/6/1
f 49/4/1 46/4/1 45/4/1
f 50/4/1 48/4/1 47/4/1
f 51/4/1 49/4/1 45/4/1
f 52/4/1 49/4/1 51/4/1
f 53/4/1 48/4/1 50/4/1
f 54/4/1 48/4/1 53/4/1
f 55/6/2 56/6/2 59/6/2
f 59/6/2 56/6/2 60/6/2
f 60/6/2 56/6/2 61/6/2
f 57/6/2 58/6/2 62/6/2
f 62/6/2 58/6/2 63/6/2
f 63/6/2 58/6/2 64/6/2
f 65/6/2 66/6/2 69/6/2
f 69/6/2 66/6/2 70/6/2
f 70/6/2 66/6/2 71/6/2
f 67/6/2 68/6/2 72/6/2
f 72/6/2 68/6/2 73/6/2
f 73/6/2 68/6/2 74/6/2
f 75/3/2 76/3/2 79/3/2
f 76/2/2 77/2/2 80/2/2
f 79/3/2 76/3/2 80/3/2
f 77/3/2 78/3/2 81/3/2
f 80/2/2 77/2/2 81/2/2
f 81/3/2 78/3/2 82/3/2
f 79/2/2 80/2/2 83/2/2
f 80/2/2 81/2/2 83/2/2
f 81/2/2 82/2/2 83/2/2
f 83/2/2 82/2/2 84/2/2
f 84/2/2 82/2/2 85/2/2
f 85/2/2 82/2/2 86/2/2
f 83/3/2 84/3/2 87/3/2
f 84/2/2 85/2/2 88/2/2
f 87/3/2 84/3/2 88/3/2
f 85/3/2 86/3/2 89/3/2
f 88/2/2 85/2/2 89/2/2
f 89/3/2 86/3/2 90/3/2
f 91/2/2 92/2/2 93/2/2
f 93/2/2 92/2/2 94/2/2
f 95/6/2 96/6/2 99/6/2
f 99/6/2 96/6/2 100/6/2
f 97/6/2 98/6/2 101/6/2
f 101/6/2 98/6/2 102/6/2
f 103/2/2 104/2/2 105/2/2
f 105/2/2 104/2/2 106/2/2
f 107/4/2 108/4/2 111/4/2
f 111/4/2 108/4/2 112/4/2
f 109/4/2 110/4/2 113/4/2
f 113/4/2 110/4/2 114/4/2
f 115/4/2 116/4/2 121/4/2
f 116/1/2 117/1/2 121/1/2
f 117/4/2 118/4/2 122/4/2
f 121/1/2 117/1/2 122/1/2
f 118/1/2 119/1/2 123/1/2
f 122/4/2 118/4/2 123/4/2
f 119/4/2 120/4/2 124/4/2
f 123/1/2 119/1/2 124/1/2
f 122/4/2 123/4/2 125/4/2
f 121/4/2 122/4/2 125/4/2
f 123/4/2 124/4/2 125/4/2
f 115/4/2 121/4/2 125/4/2
f 124/4/2 120/4/2 126/4/2
f 125/4/2 124/4/2 126/4/2
f 125/5/2 126/5/2 127/5/2
f 127/5/2 126/5/2 128/5/2
f 127/4/2 128/4/2 129/4/2
f 129/4/2 128/4/2 130/4/2
f 133/4/3 132/4/3 131/4/3
f 134/4/3 132/4/3 133/4/3
f 140/3/3 136/3/3 135/3/3
f 141/6/3 140/6/3 139/6/3
f 142/3/3 136/3/3 140/3/3
f 142/6/3 140/6/3 141/6/3
f 143/6/3 141/6/3 139/6/3
f 143/2/3 142/2/3 141/2/3
f 144/3/3 136/3/3 142/3/3
f 144/2/3 142/2/3 143/2/3
f 145/6/3 143/6/3 139/6/3
f 145/6/3 144/6/3 143/6/3
f 146/3/3 136/3/3 144/3/3
f 146/6/3 144/6/3 145/6/3
f 148/3/3 136/3/3 146/3/3
f 149/6/3 148/6/3 147/6/3
f 150/3/3 136/3/3 148/3/3
f 150/6/3 148/6/3 149/6/3
f 151/6/3 149/6/3 147/6/3
f 151/2/3 150/2/3 149/2/3
f 152/3/3 136/3/3 150/3/3
f 152/2/3 150/2/3 151/2/3
f 153/6/3 151/6/3 147/6/3
f 153/6/3 152/6/3 151/6/3
f 154/3/3 136/3/3 152/3/3
f 154/6/3 152/6/3 153/6/3
f 155/3/3 136/3/3 154/3/3
f 156/2/3 137/2/3 136/2/3
f 156/3/3 136/3/3 155/3/3
f 157/3/3 138/3/3 137/3/3
f 157/2/3 137/2/3 156/2/3
f 158/3/3 138/3/3 157/3/3
f 162/4/3 160/4/3 159/4/3
f 163/4/3 160/4/3 162/4/3
f 164/6/3 162/6/3 161/6/3
f 164/6/3 163/6/3 162/6/3
f 165/6/3 163/6/3 164/6/3
f 166/6/3 164/6/3 161/6/3
f 166/2/3 165/2/3 164/2/3
f 167/6/3 163/6/3 165/6/3
f 167/2/3 165/2/3 166/2/3
f 168/6/3 166/6/3 161/6/3
f 168/6/3 167/6/3 166/6/3
f 169/6/3 163/6/3 167/6/3
f 169/6/3 167/6/3 168/6/3
f 170/4/3 160/4/3 163/4/3
f 170/6/3 163/6/3 169/6/3
f 171/4/3 160/4/3 170/4/3
f 172/4/3 160/4/3 171/4/3
f 174/5/3 172/5/3 171/5/3
f 175/4/3 174/4/3 173/4/3
f 176/5/3 172/5/3 174/5/3
f 176/4/3 174/4/3 175/4/3
f 177/4/3 160/4/3 172/4/3
f 177/5/3 172/5/3 176/5/3
f 178/4/3 160/4/3 177/4/3
f 181/2/3 180/2/3 179/2/3
f 182/2/3 180/2/3 181/2/3
f 183/2/3 181/2/3 179/2/3
f 184/2/3 181/2/3 183/2/3
f 187/6/3 186/6/3 185/6/3
f 188/6/3 186/6/3 187/6/3
f 191/6/3 190/6/3 189/6/3
f 192/6/3 190/6/3 191/6/3
f 195/6/3 194/6/3 193/6/3
f 196/6/3 194/6/3 195/6/3
f 197/6/4 198/6/4 199/6/4
f 199/6/4 198/6/4 200/6/4
f 201/6/4 202/6/4 203/6/4
f 203/6/4 202/6/4 204/6/4
f 205/6/4 206/6/4 207/6/4
f 207/6/4 206/6/4 208/6/4
f 209/2/4 210/2/4 211/2/4
f 211/2/4 210/2/4 212/2/4
f 209/2/4 211/2/4 213/2/4
f 213/2/4 211/2/4 214/2/4
f 215/3/4 216/3/4 220/3/4
f 219/6/4 220/6/4 221/6/4
f 220/3/4 216/3/4 222/3/4
f 221/6/4 220/6/4 222/6/4
f 219/6/4 221/6/4 223/6/4
f 221/2/4 222/2/4 223/2/4
f 222/3/4 216/3/4 224/3/4
f 223/2/4 222/2/4 224/2/4
f 219/6/4 223/6/4 225/6/4
f 223/6/4 224/6/4 225/6/4
f 224/3/4 216/3/4 226/3/4
f 225/6/4 224/6/4 226/6/4
f 226/3/4 216/3/4 228/3/4
f 227/6/4 228/6/4 229/6/4
f 228/3/4 216/3/4 230/3/4
f 229/6/4 228/6/4 230/6/4
f 227/6/4 229/6/4 231/6/4
f 229/2/4 230/2/4 231/2/4
f 230/3/4 216/3/4 232/3/4
f 231/2/4 230/2/4 232/2/4
f 227/6/4 231/6/4 233/6/4
f 231/6/4 232/6/4 233/6/4
f 232/3/4 216/3/4 234/3/4
f 233/6/4 232/6/4 234/6/4
f 234/3/4 216/3/4 235/3/4
f 216/2/4 217/2/4 236/2/4
f 235/3/4 216/3/4 236/3/4
f 217/3/4 218/3/4 237/3/4
f 236/2/4 217/2/4 237/2/4
f 237/3/4 218/3/4 238/3/4
f 239/4/4 240/4/4 242/4/4
f 242/4/4 240/4/4 243/4/4
f 241/6/4 242/6/4 244/6/4
f 242/6/4 243/6/4 244/6/4
f 244/6/4 243/6/4 245/6/4
f 241/6/4 244/6/4 246/6/4
f 244/2/4 245/2/4 246/2/4
f 245/6/4 243/6/4 247/6/4
f 246/2/4 245/2/4 247/2/4
f 241/6/4 246/6/4 248/6/4
f 246/6/4 247/6/4 248/6/4
f 247/6/4 243/6/4 249/6/4
f 248/6/4 247/6/4 249/6/4
f 243/4/4 240/4/4 250/4/4
f 249/6/4 243/6/4 250/6/4
f 250/4/4 240/4/4 251/4/4
f 251/4/4 240/4/4 252/4/4
f 251/5/4 252/5/4 254/5/4
f 253/4/4 254/4/4 255/4/4
f 254/5/4 252/5/4 256/5/4
f 255/4/4 254/4/4 256/4/4
f 252/4/4 240/4/4 257/4/4
f 256/5/4 252/5/4 257/5/4
f 257/4/4 240/4/4 258/4/4
f 259/4/4 260/4/4 261/4/4
f 261/4/4 260/4/4 262/4/4
f 269/6/5 264/6/5 263/6/5
f 270/6/5 264/6/5 269/6/5
f 271/6/5 266/6/5 265/6/5
f 272/6/5 266/6/5 271/6/5
f 273/6/5 268/6/5 267/6/5
f 274/6/5 268/6/5 273/6/5
f 281/6/5 276/6/5 275/6/5
f 282/6/5 276/6/5 281/6/5
f 283/6/5 278/6/5 277/6/5
f 284/6/5 278/6/5 283/6/5
f 285/6/5 280/6/5 279/6/5
f 286/6/5 280/6/5 285/6/5
f 297/4/5 288/4/5 287/4/5
f 298/4/5 288/4/5 297/4/5
f 300/3/5 290/3/5 289/3/5
f 301/3/5 290/3/5 300/3/5
f 302/3/5 292/3/5 291/3/5
f 303/3/5 292/3/5 302/3/5
f 304/3/5 294/3/5 293/3/5
f 305/3/5 294/3/5 304/3/5
f 306/2/5 301/2/5 300/2/5
f 307/2/5 303/2/5 302/2/5
f 308/2/5 303/2/5 307/2/5
f 309/2/5 305/2/5 304/2/5
f 310/4/5 296/4/5 295/4/5
f 311/4/5 299/4/5 298/4/5
f 311/4/5 298/4/5 297/4/5
f 312/4/5 299/4/5 311/4/5
f 313/4/5 299/4/5 312/4/5
f 314/4/5 311/4/5 310/4/5
f 314/4/5 312/4/5 311/4/5
f 314/1/5 313/1/5 312/1/5
f 315/1/5 313/1/5 314/1/5
f 316/4/5 314/4/5 310/4/5
f 316/4/5 315/4/5 314/4/5
f 317/4/5 315/4/5 316/4/5
f 318/2/5 309/2/5 308/2/5
f 318/2/5 306/2/5 300/2/5
f 318/2/5 308/2/5 307/2/5
f 318/2/5 307/2/5 306/2/5
f 319/2/5 309/2/5 318/2/5
f 320/2/5 309/2/5 319/2/5
f 321/2/5 305/2/5 309/2/5
f 321/2/5 309/2/5 320/2/5
f 322/4/5 310/4/5 295/4/5
f 322/4/5 316/4/5 310/4/5
f 323/4/5 316/4/5 322/4/5
f 324/1/5 317/1/5 316/1/5
f 324/4/5 316/4/5 323/4/5
f 325/1/5 317/1/5 324/1/5
f 326/3/5 300/3/5 289/3/5
f 326/2/5 318/2/5 300/2/5
f 327/2/5 318/2/5 326/2/5
f 328/2/5 320/2/5 319/2/5
f 329/2/5 320/2/5 328/2/5
f 330/2/5 305/2/5 321/2/5
f 331/2/5 305/2/5 330/2/5
f 332/3/5 327/3/5 326/3/5
f 332/3/5 326/3/5 289/3/5
f 333/3/5 327/3/5 332/3/5
f 334/3/5 329/3/5 328/3/5
f 335/3/5 329/3/5 334/3/5
f 336/3/5 331/3/5 330/3/5
f 337/3/5 331/3/5 336/3/5
f 338/4/5 322/4/5 295/4/5
f 339/4/5 322/4/5 338/4/5
f 340/4/5 325/4/5 324/4/5
f 340/4/5 324/4/5 323/4/5
f 341/4/5 325/4/5 340/4/5
f 342/4/5 325/4/5 341/4/5
f 343/4/5 341/4/5 340/4/5
f 344/4/5 341/4/5 343/4/5
f 345/4/6 346/4/6 347/4/6
f 347/4/6 346/4/6 348/4/6
f 349/4/6 350/4/6 351/4/6
f 351/4/6 350/4/6 352/4/6
f 353/4/6 354/4/6 355/4/6
f 355/4/6 354/4/6 356/4/6
f 356/4/6 354/4/6 358/4/6
f 357/4/6 358/4/6 359/4/6
f 358/4/6 354/4/6 360/4/6
f 359/4/6 358/4/6 360/4/6
f 361/2/6 362/2/6 363/2/6
f 363/2/6 362/2/6 364/2/6
f 365/3/6 366/3/6 367/3/6
f 367/3/6 366/3/6 368/3/6
f 369/2/6 370/2/6 371/2/6
f 371/2/6 370/2/6 372/2/6
f 365/3/6 367/3/6 373/3/6
f 367/2/6 368/2/6 373/2/6
f 373/2/6 368/2/6 374/2/6
f 365/3/6 373/3/6 375/3/6
f 373/3/6 374/3/6 375/3/6
f 375/3/6 374/3/6 376/3/6
