# MagicaVoxel @ Ephtracy

# group
g RoadBackwardStripeWinter

# material
mtllib RoadBackwardStripeWinter.mtl
usemtl palette

# normals
vn -1 0 0
vn 1 0 0
vn 0 0 1
vn 0 0 -1
vn 0 -1 0
vn 0 1 0

# texcoords
vt 0.916016 0.5
vt 0.939453 0.5
vt 0.966797 0.5

# verts
v -20 0 20
v -20 0 -20
v -20 7 -17
v -20 7 -20
v -20 8 20
v -20 8 -17
v -20 8 -20
v -17 8 18
v -17 8 10
v -17 8 6
v -17 8 -9
v -17 9 18
v -17 9 10
v -17 9 6
v -17 9 -9
v -8 8 -5
v -8 8 -14
v -8 9 -5
v -8 9 -14
v -5 8 13
v -5 8 1
v -5 9 13
v -5 9 1
v 8 8 16
v 8 8 5
v 8 9 16
v 8 9 5
v 11 8 -1
v 11 8 -15
v 11 9 -1
v 11 9 -15
v -14 8 6
v -14 8 -9
v -14 9 6
v -14 9 -9
v -9 8 18
v -9 8 10
v -9 9 18
v -9 9 10
v 3 8 13
v 3 8 1
v 3 9 13
v 3 9 1
v 6 8 -5
v 6 8 -14
v 6 9 -5
v 6 9 -14
v 16 8 16
v 16 8 5
v 16 9 16
v 16 9 5
v 17 8 -1
v 17 8 -15
v 17 9 -1
v 17 9 -15
v 20 0 20
v 20 0 -20
v 20 7 -17
v 20 7 -20
v 20 8 20
v 20 8 -17
v 20 8 -20
v -20 0 20
v -20 8 20
v 20 0 20
v 20 8 20
v -17 8 18
v -17 9 18
v -9 8 18
v -9 9 18
v 8 8 16
v 8 9 16
v 16 8 16
v 16 9 16
v -5 8 13
v -5 9 13
v 3 8 13
v 3 9 13
v -17 8 6
v -17 9 6
v -14 8 6
v -14 9 6
v 11 8 -1
v 11 9 -1
v 17 8 -1
v 17 9 -1
v -8 8 -5
v -8 9 -5
v 6 8 -5
v 6 9 -5
v -17 8 10
v -17 9 10
v -9 8 10
v -9 9 10
v 8 8 5
v 8 9 5
v 16 8 5
v 16 9 5
v -5 8 1
v -5 9 1
v 3 8 1
v 3 9 1
v -17 8 -9
v -17 9 -9
v -14 8 -9
v -14 9 -9
v -8 8 -14
v -8 9 -14
v 6 8 -14
v 6 9 -14
v 11 8 -15
v 11 9 -15
v 17 8 -15
v 17 9 -15
v -20 0 -20
v -20 7 -20
v -20 8 -20
v 20 0 -20
v 20 7 -20
v 20 8 -20
v -20 0 20
v 20 0 20
v -20 0 -20
v 20 0 -20
v -20 8 20
v 20 8 20
v -17 8 18
v -9 8 18
v 8 8 16
v 16 8 16
v -5 8 13
v 3 8 13
v -17 8 10
v -9 8 10
v -17 8 6
v -14 8 6
v 8 8 5
v 16 8 5
v -5 8 1
v 3 8 1
v 11 8 -1
v 17 8 -1
v -8 8 -5
v 6 8 -5
v -17 8 -9
v -14 8 -9
v -8 8 -14
v 6 8 -14
v 11 8 -15
v 17 8 -15
v -20 8 -17
v 20 8 -17
v -20 8 -20
v 20 8 -20
v -17 9 18
v -9 9 18
v 8 9 16
v 16 9 16
v -5 9 13
v 3 9 13
v -17 9 10
v -9 9 10
v -17 9 6
v -14 9 6
v 8 9 5
v 16 9 5
v -5 9 1
v 3 9 1
v 11 9 -1
v 17 9 -1
v -8 9 -5
v 6 9 -5
v -17 9 -9
v -14 9 -9
v -8 9 -14
v 6 9 -14
v 11 9 -15
v 17 9 -15

# faces
f 3/2/1 2/2/1 1/2/1
f 4/2/1 2/2/1 3/2/1
f 5/2/1 3/2/1 1/2/1
f 6/3/1 4/3/1 3/3/1
f 6/2/1 3/2/1 5/2/1
f 7/3/1 4/3/1 6/3/1
f 12/1/1 9/1/1 8/1/1
f 13/1/1 9/1/1 12/1/1
f 14/1/1 11/1/1 10/1/1
f 15/1/1 11/1/1 14/1/1
f 18/1/1 17/1/1 16/1/1
f 19/1/1 17/1/1 18/1/1
f 22/1/1 21/1/1 20/1/1
f 23/1/1 21/1/1 22/1/1
f 26/1/1 25/1/1 24/1/1
f 27/1/1 25/1/1 26/1/1
f 30/1/1 29/1/1 28/1/1
f 31/1/1 29/1/1 30/1/1
f 32/1/2 33/1/2 34/1/2
f 34/1/2 33/1/2 35/1/2
f 36/1/2 37/1/2 38/1/2
f 38/1/2 37/1/2 39/1/2
f 40/1/2 41/1/2 42/1/2
f 42/1/2 41/1/2 43/1/2
f 44/1/2 45/1/2 46/1/2
f 46/1/2 45/1/2 47/1/2
f 48/1/2 49/1/2 50/1/2
f 50/1/2 49/1/2 51/1/2
f 52/1/2 53/1/2 54/1/2
f 54/1/2 53/1/2 55/1/2
f 56/2/2 57/2/2 58/2/2
f 58/2/2 57/2/2 59/2/2
f 56/2/2 58/2/2 60/2/2
f 58/3/2 59/3/2 61/3/2
f 60/2/2 58/2/2 61/2/2
f 61/3/2 59/3/2 62/3/2
f 65/2/3 64/2/3 63/2/3
f 66/2/3 64/2/3 65/2/3
f 69/1/3 68/1/3 67/1/3
f 70/1/3 68/1/3 69/1/3
f 73/1/3 72/1/3 71/1/3
f 74/1/3 72/1/3 73/1/3
f 77/1/3 76/1/3 75/1/3
f 78/1/3 76/1/3 77/1/3
f 81/1/3 80/1/3 79/1/3
f 82/1/3 80/1/3 81/1/3
f 85/1/3 84/1/3 83/1/3
f 86/1/3 84/1/3 85/1/3
f 89/1/3 88/1/3 87/1/3
f 90/1/3 88/1/3 89/1/3
f 91/1/4 92/1/4 93/1/4
f 93/1/4 92/1/4 94/1/4
f 95/1/4 96/1/4 97/1/4
f 97/1/4 96/1/4 98/1/4
f 99/1/4 100/1/4 101/1/4
f 101/1/4 100/1/4 102/1/4
f 103/1/4 104/1/4 105/1/4
f 105/1/4 104/1/4 106/1/4
f 107/1/4 108/1/4 109/1/4
f 109/1/4 108/1/4 110/1/4
f 111/1/4 112/1/4 113/1/4
f 113/1/4 112/1/4 114/1/4
f 115/2/4 116/2/4 118/2/4
f 116/3/4 117/3/4 119/3/4
f 118/2/4 116/2/4 119/2/4
f 119/3/4 117/3/4 120/3/4
f 123/2/5 122/2/5 121/2/5
f 124/2/5 122/2/5 123/2/5
f 125/2/6 126/2/6 127/2/6
f 127/2/6 126/2/6 128/2/6
f 128/2/6 126/2/6 129/2/6
f 129/2/6 126/2/6 130/2/6
f 128/2/6 129/2/6 131/2/6
f 131/2/6 129/2/6 132/2/6
f 125/2/6 127/2/6 133/2/6
f 128/2/6 131/2/6 134/2/6
f 125/2/6 133/2/6 135/2/6
f 133/2/6 134/2/6 135/2/6
f 135/2/6 134/2/6 136/2/6
f 132/2/6 129/2/6 137/2/6
f 130/2/6 126/2/6 138/2/6
f 136/2/6 134/2/6 139/2/6
f 134/2/6 131/2/6 139/2/6
f 137/2/6 138/2/6 140/2/6
f 132/2/6 137/2/6 140/2/6
f 140/2/6 138/2/6 141/2/6
f 139/2/6 140/2/6 141/2/6
f 138/2/6 126/2/6 142/2/6
f 141/2/6 138/2/6 142/2/6
f 136/2/6 139/2/6 143/2/6
f 139/2/6 141/2/6 143/2/6
f 143/2/6 141/2/6 144/2/6
f 125/2/6 135/2/6 145/2/6
f 136/2/6 143/2/6 146/2/6
f 146/2/6 143/2/6 147/2/6
f 145/2/6 146/2/6 147/2/6
f 144/2/6 141/2/6 148/2/6
f 148/2/6 141/2/6 149/2/6
f 147/2/6 148/2/6 149/2/6
f 142/2/6 126/2/6 150/2/6
f 147/2/6 149/2/6 151/2/6
f 149/2/6 150/2/6 151/2/6
f 145/2/6 147/2/6 151/2/6
f 125/2/6 145/2/6 151/2/6
f 150/2/6 126/2/6 152/2/6
f 151/2/6 150/2/6 152/2/6
f 151/3/6 152/3/6 153/3/6
f 153/3/6 152/3/6 154/3/6
f 155/1/6 156/1/6 161/1/6
f 161/1/6 156/1/6 162/1/6
f 157/1/6 158/1/6 165/1/6
f 165/1/6 158/1/6 166/1/6
f 159/1/6 160/1/6 167/1/6
f 167/1/6 160/1/6 168/1/6
f 163/1/6 164/1/6 173/1/6
f 173/1/6 164/1/6 174/1/6
f 171/1/6 172/1/6 175/1/6
f 175/1/6 172/1/6 176/1/6
f 169/1/6 170/1/6 177/1/6
f 177/1/6 170/1/6 178/1/6
