# MagicaVoxel @ Ephtracy

# group
g RoadBothStripeWinter

# material
mtllib RoadBothStripeWinter.mtl
usemtl palette

# normals
vn -1 0 0
vn 1 0 0
vn 0 0 1
vn 0 0 -1
vn 0 -1 0
vn 0 1 0

# texcoords
vt 0.916016 0.5
vt 0.939453 0.5
vt 0.966797 0.5

# verts
v -20 0 20
v -20 0 -20
v -20 7 20
v -20 7 17
v -20 7 -17
v -20 7 -20
v -20 8 20
v -20 8 17
v -20 8 -17
v -20 8 -20
v -17 8 18
v -17 8 17
v -17 8 10
v -17 8 6
v -17 8 -9
v -17 9 18
v -17 9 10
v -17 9 6
v -17 9 -9
v -8 8 -5
v -8 8 -14
v -8 9 -5
v -8 9 -14
v -5 8 13
v -5 8 1
v -5 9 13
v -5 9 1
v 8 8 16
v 8 8 5
v 8 9 16
v 8 9 5
v 11 8 -1
v 11 8 -15
v 11 9 -1
v 11 9 -15
v -14 8 6
v -14 8 -9
v -14 9 6
v -14 9 -9
v -9 8 18
v -9 8 17
v -9 8 10
v -9 9 18
v -9 9 10
v 3 8 13
v 3 8 1
v 3 9 13
v 3 9 1
v 6 8 -5
v 6 8 -14
v 6 9 -5
v 6 9 -14
v 16 8 16
v 16 8 5
v 16 9 16
v 16 9 5
v 17 8 -1
v 17 8 -15
v 17 9 -1
v 17 9 -15
v 20 0 20
v 20 0 -20
v 20 7 20
v 20 7 17
v 20 7 -17
v 20 7 -20
v 20 8 20
v 20 8 17
v 20 8 -17
v 20 8 -20
v -20 0 20
v -20 7 20
v -20 8 20
v 20 0 20
v 20 7 20
v 20 8 20
v -17 8 18
v -17 9 18
v -9 8 18
v -9 9 18
v 8 8 16
v 8 9 16
v 16 8 16
v 16 9 16
v -5 8 13
v -5 9 13
v 3 8 13
v 3 9 13
v -17 8 6
v -17 9 6
v -14 8 6
v -14 9 6
v 11 8 -1
v 11 9 -1
v 17 8 -1
v 17 9 -1
v -8 8 -5
v -8 9 -5
v 6 8 -5
v 6 9 -5
v -17 8 10
v -17 9 10
v -9 8 10
v -9 9 10
v 8 8 5
v 8 9 5
v 16 8 5
v 16 9 5
v -5 8 1
v -5 9 1
v 3 8 1
v 3 9 1
v -17 8 -9
v -17 9 -9
v -14 8 -9
v -14 9 -9
v -8 8 -14
v -8 9 -14
v 6 8 -14
v 6 9 -14
v 11 8 -15
v 11 9 -15
v 17 8 -15
v 17 9 -15
v -20 0 -20
v -20 7 -20
v -20 8 -20
v 20 0 -20
v 20 7 -20
v 20 8 -20
v -20 0 20
v 20 0 20
v -20 0 -20
v 20 0 -20
v -20 8 20
v 20 8 20
v -17 8 18
v -9 8 18
v -20 8 17
v -17 8 17
v -9 8 17
v 20 8 17
v 8 8 16
v 16 8 16
v -5 8 13
v 3 8 13
v -17 8 10
v -9 8 10
v -17 8 6
v -14 8 6
v 8 8 5
v 16 8 5
v -5 8 1
v 3 8 1
v 11 8 -1
v 17 8 -1
v -8 8 -5
v 6 8 -5
v -17 8 -9
v -14 8 -9
v -8 8 -14
v 6 8 -14
v 11 8 -15
v 17 8 -15
v -20 8 -17
v 20 8 -17
v -20 8 -20
v 20 8 -20
v -17 9 18
v -9 9 18
v 8 9 16
v 16 9 16
v -5 9 13
v 3 9 13
v -17 9 10
v -9 9 10
v -17 9 6
v -14 9 6
v 8 9 5
v 16 9 5
v -5 9 1
v 3 9 1
v 11 9 -1
v 17 9 -1
v -8 9 -5
v 6 9 -5
v -17 9 -9
v -14 9 -9
v -8 9 -14
v 6 9 -14
v 11 9 -15
v 17 9 -15

# faces
f 3/2/1 2/2/1 1/2/1
f 4/2/1 2/2/1 3/2/1
f 5/2/1 2/2/1 4/2/1
f 6/2/1 2/2/1 5/2/1
f 7/3/1 4/3/1 3/3/1
f 8/2/1 5/2/1 4/2/1
f 8/3/1 4/3/1 7/3/1
f 9/3/1 6/3/1 5/3/1
f 9/2/1 5/2/1 8/2/1
f 10/3/1 6/3/1 9/3/1
f 16/1/1 12/1/1 11/1/1
f 16/1/1 13/1/1 12/1/1
f 17/1/1 13/1/1 16/1/1
f 18/1/1 15/1/1 14/1/1
f 19/1/1 15/1/1 18/1/1
f 22/1/1 21/1/1 20/1/1
f 23/1/1 21/1/1 22/1/1
f 26/1/1 25/1/1 24/1/1
f 27/1/1 25/1/1 26/1/1
f 30/1/1 29/1/1 28/1/1
f 31/1/1 29/1/1 30/1/1
f 34/1/1 33/1/1 32/1/1
f 35/1/1 33/1/1 34/1/1
f 36/1/2 37/1/2 38/1/2
f 38/1/2 37/1/2 39/1/2
f 40/1/2 41/1/2 43/1/2
f 41/1/2 42/1/2 43/1/2
f 43/1/2 42/1/2 44/1/2
f 45/1/2 46/1/2 47/1/2
f 47/1/2 46/1/2 48/1/2
f 49/1/2 50/1/2 51/1/2
f 51/1/2 50/1/2 52/1/2
f 53/1/2 54/1/2 55/1/2
f 55/1/2 54/1/2 56/1/2
f 57/1/2 58/1/2 59/1/2
f 59/1/2 58/1/2 60/1/2
f 61/2/2 62/2/2 63/2/2
f 63/2/2 62/2/2 64/2/2
f 64/2/2 62/2/2 65/2/2
f 65/2/2 62/2/2 66/2/2
f 63/3/2 64/3/2 67/3/2
f 64/2/2 65/2/2 68/2/2
f 67/3/2 64/3/2 68/3/2
f 65/3/2 66/3/2 69/3/2
f 68/2/2 65/2/2 69/2/2
f 69/3/2 66/3/2 70/3/2
f 74/2/3 72/2/3 71/2/3
f 75/3/3 73/3/3 72/3/3
f 75/2/3 72/2/3 74/2/3
f 76/3/3 73/3/3 75/3/3
f 79/1/3 78/1/3 77/1/3
f 80/1/3 78/1/3 79/1/3
f 83/1/3 82/1/3 81/1/3
f 84/1/3 82/1/3 83/1/3
f 87/1/3 86/1/3 85/1/3
f 88/1/3 86/1/3 87/1/3
f 91/1/3 90/1/3 89/1/3
f 92/1/3 90/1/3 91/1/3
f 95/1/3 94/1/3 93/1/3
f 96/1/3 94/1/3 95/1/3
f 99/1/3 98/1/3 97/1/3
f 100/1/3 98/1/3 99/1/3
f 101/1/4 102/1/4 103/1/4
f 103/1/4 102/1/4 104/1/4
f 105/1/4 106/1/4 107/1/4
f 107/1/4 106/1/4 108/1/4
f 109/1/4 110/1/4 111/1/4
f 111/1/4 110/1/4 112/1/4
f 113/1/4 114/1/4 115/1/4
f 115/1/4 114/1/4 116/1/4
f 117/1/4 118/1/4 119/1/4
f 119/1/4 118/1/4 120/1/4
f 121/1/4 122/1/4 123/1/4
f 123/1/4 122/1/4 124/1/4
f 125/2/4 126/2/4 128/2/4
f 126/3/4 127/3/4 129/3/4
f 128/2/4 126/2/4 129/2/4
f 129/3/4 127/3/4 130/3/4
f 133/2/5 132/2/5 131/2/5
f 134/2/5 132/2/5 133/2/5
f 135/3/6 136/3/6 137/3/6
f 137/3/6 136/3/6 138/3/6
f 135/3/6 137/3/6 139/3/6
f 139/3/6 137/3/6 140/3/6
f 138/3/6 136/3/6 141/3/6
f 141/3/6 136/3/6 142/3/6
f 141/2/6 142/2/6 143/2/6
f 143/2/6 142/2/6 144/2/6
f 141/2/6 143/2/6 145/2/6
f 145/2/6 143/2/6 146/2/6
f 139/2/6 140/2/6 147/2/6
f 141/2/6 145/2/6 148/2/6
f 139/2/6 147/2/6 149/2/6
f 147/2/6 148/2/6 149/2/6
f 149/2/6 148/2/6 150/2/6
f 146/2/6 143/2/6 151/2/6
f 144/2/6 142/2/6 152/2/6
f 150/2/6 148/2/6 153/2/6
f 148/2/6 145/2/6 153/2/6
f 151/2/6 152/2/6 154/2/6
f 146/2/6 151/2/6 154/2/6
f 154/2/6 152/2/6 155/2/6
f 153/2/6 154/2/6 155/2/6
f 152/2/6 142/2/6 156/2/6
f 155/2/6 152/2/6 156/2/6
f 150/2/6 153/2/6 157/2/6
f 153/2/6 155/2/6 157/2/6
f 157/2/6 155/2/6 158/2/6
f 139/2/6 149/2/6 159/2/6
f 150/2/6 157/2/6 160/2/6
f 160/2/6 157/2/6 161/2/6
f 159/2/6 160/2/6 161/2/6
f 158/2/6 155/2/6 162/2/6
f 162/2/6 155/2/6 163/2/6
f 161/2/6 162/2/6 163/2/6
f 156/2/6 142/2/6 164/2/6
f 161/2/6 163/2/6 165/2/6
f 163/2/6 164/2/6 165/2/6
f 159/2/6 161/2/6 165/2/6
f 139/2/6 159/2/6 165/2/6
f 164/2/6 142/2/6 166/2/6
f 165/2/6 164/2/6 166/2/6
f 165/3/6 166/3/6 167/3/6
f 167/3/6 166/3/6 168/3/6
f 169/1/6 170/1/6 175/1/6
f 175/1/6 170/1/6 176/1/6
f 171/1/6 172/1/6 179/1/6
f 179/1/6 172/1/6 180/1/6
f 173/1/6 174/1/6 181/1/6
f 181/1/6 174/1/6 182/1/6
f 177/1/6 178/1/6 187/1/6
f 187/1/6 178/1/6 188/1/6
f 185/1/6 186/1/6 189/1/6
f 189/1/6 186/1/6 190/1/6
f 183/1/6 184/1/6 191/1/6
f 191/1/6 184/1/6 192/1/6
