# MagicaVoxel @ Ephtracy

# group
g TreeWinter

# material
mtllib TreeWinter.mtl
usemtl palette

# normals
vn -1 0 0
vn 1 0 0
vn 0 0 1
vn 0 0 -1
vn 0 -1 0
vn 0 1 0

# texcoords
vt 0.224609 0.5
vt 0.560547 0.5
vt 0.626953 0.5
vt 0.912109 0.5
vt 0.916016 0.5

# verts
v -16 30 -3
v -16 30 -12
v -16 39 -3
v -16 39 -12
v -16 41 9
v -16 41 -2
v -16 45 -8
v -16 45 -15
v -16 54 9
v -16 54 -2
v -16 60 -8
v -16 60 -15
v -15 24 15
v -15 24 -15
v -15 30 15
v -15 30 -3
v -15 30 -12
v -15 30 -15
v -15 35 15
v -15 35 -3
v -15 35 -12
v -15 35 -15
v -15 39 -3
v -15 39 -12
v -15 40 15
v -15 40 -15
v -15 41 9
v -15 41 -2
v -15 45 15
v -15 45 9
v -15 45 -2
v -15 45 -8
v -15 45 -15
v -15 50 15
v -15 50 9
v -15 50 -2
v -15 50 -8
v -15 54 9
v -15 54 -2
v -15 55 15
v -15 55 -8
v -15 60 15
v -15 60 -8
v -15 60 -15
v -15 61 15
v -15 61 -15
v -13 47 16
v -13 47 15
v -13 50 15
v -13 55 15
v -13 60 16
v -13 60 15
v -11 32 16
v -11 32 15
v -11 35 15
v -11 40 15
v -11 42 16
v -11 42 15
v -10 40 -15
v -10 40 -16
v -10 45 -15
v -10 50 -15
v -10 55 -15
v -10 60 -15
v -10 60 -16
v -5 0 5
v -5 0 -5
v -5 24 5
v -5 24 -5
v 0 43 16
v 0 43 15
v 0 45 15
v 0 50 15
v 0 55 15
v 0 60 16
v 0 60 15
v 1 45 -15
v 1 45 -16
v 1 50 -15
v 1 55 -15
v 1 60 -15
v 1 60 -16
v 2 35 -15
v 2 35 -16
v 2 40 -15
v 2 43 -15
v 2 43 -16
v -4 47 16
v -4 47 15
v -4 50 15
v -4 55 15
v -4 60 16
v -4 60 15
v -2 32 16
v -2 32 15
v -2 35 15
v -2 40 15
v -2 40 -15
v -2 40 -16
v -2 42 16
v -2 42 15
v -2 45 -15
v -2 50 -15
v -2 55 -15
v -2 60 -15
v -2 60 -16
v 5 0 5
v 5 0 -5
v 5 24 5
v 5 24 -5
v 11 35 -15
v 11 35 -16
v 11 40 -15
v 11 43 16
v 11 43 15
v 11 43 -15
v 11 43 -16
v 11 45 15
v 11 45 -15
v 11 45 -16
v 11 50 15
v 11 50 -15
v 11 55 15
v 11 55 -15
v 11 60 16
v 11 60 15
v 11 60 -15
v 11 60 -16
v 15 24 15
v 15 24 -15
v 15 29 12
v 15 29 6
v 15 30 15
v 15 30 12
v 15 30 6
v 15 30 -15
v 15 33 4
v 15 33 -5
v 15 35 15
v 15 35 12
v 15 35 6
v 15 35 4
v 15 35 -5
v 15 35 -15
v 15 37 12
v 15 37 6
v 15 40 15
v 15 40 4
v 15 40 -5
v 15 40 -15
v 15 41 4
v 15 41 -5
v 15 42 10
v 15 42 5
v 15 45 15
v 15 45 10
v 15 45 5
v 15 45 2
v 15 45 -10
v 15 45 -15
v 15 50 15
v 15 50 10
v 15 50 5
v 15 50 2
v 15 50 -10
v 15 50 -15
v 15 51 10
v 15 51 5
v 15 55 15
v 15 55 10
v 15 55 2
v 15 55 -10
v 15 55 -15
v 15 60 15
v 15 60 10
v 15 60 2
v 15 60 -10
v 15 60 -15
v 15 61 15
v 15 61 -15
v 16 29 12
v 16 29 6
v 16 33 4
v 16 33 -5
v 16 37 12
v 16 37 6
v 16 41 4
v 16 41 -5
v 16 42 10
v 16 42 5
v 16 45 2
v 16 45 -10
v 16 51 10
v 16 51 5
v 16 55 15
v 16 55 10
v 16 60 15
v 16 60 10
v 16 60 2
v 16 60 -10
v -13 47 16
v -13 60 16
v -11 32 16
v -11 42 16
v -4 47 16
v -4 60 16
v -2 32 16
v -2 42 16
v 0 43 16
v 0 60 16
v 11 43 16
v 11 60 16
v -15 24 15
v -15 30 15
v -15 35 15
v -15 40 15
v -15 45 15
v -15 50 15
v -15 55 15
v -15 60 15
v -15 61 15
v -13 47 15
v -13 50 15
v -13 55 15
v -13 60 15
v -11 32 15
v -11 35 15
v -11 40 15
v -11 42 15
v -4 47 15
v -4 50 15
v -4 55 15
v -4 60 15
v -2 32 15
v -2 35 15
v -2 40 15
v -2 42 15
v 0 43 15
v 0 45 15
v 0 50 15
v 0 55 15
v 0 60 15
v 11 43 15
v 11 45 15
v 11 50 15
v 11 55 15
v 11 60 15
v 15 24 15
v 15 30 15
v 15 35 15
v 15 40 15
v 15 45 15
v 15 50 15
v 15 55 15
v 15 60 15
v 15 61 15
v 16 55 15
v 16 60 15
v 15 29 12
v 15 30 12
v 15 35 12
v 15 37 12
v 16 29 12
v 16 37 12
v 15 42 10
v 15 45 10
v 15 50 10
v 15 51 10
v 16 42 10
v 16 51 10
v -16 41 9
v -16 54 9
v -15 41 9
v -15 45 9
v -15 50 9
v -15 54 9
v -5 0 5
v -5 24 5
v 5 0 5
v 5 24 5
v 15 33 4
v 15 35 4
v 15 40 4
v 15 41 4
v 16 33 4
v 16 41 4
v 15 45 2
v 15 50 2
v 15 55 2
v 15 60 2
v 16 45 2
v 16 60 2
v -16 30 -3
v -16 39 -3
v -15 30 -3
v -15 35 -3
v -15 39 -3
v -16 45 -8
v -16 60 -8
v -15 45 -8
v -15 50 -8
v -15 55 -8
v -15 60 -8
v 15 55 10
v 15 60 10
v 16 55 10
v 16 60 10
v 15 29 6
v 15 30 6
v 15 35 6
v 15 37 6
v 16 29 6
v 16 37 6
v 15 42 5
v 15 45 5
v 15 50 5
v 15 51 5
v 16 42 5
v 16 51 5
v -16 41 -2
v -16 54 -2
v -15 41 -2
v -15 45 -2
v -15 50 -2
v -15 54 -2
v -5 0 -5
v -5 24 -5
v 5 0 -5
v 5 24 -5
v 15 33 -5
v 15 35 -5
v 15 40 -5
v 15 41 -5
v 16 33 -5
v 16 41 -5
v 15 45 -10
v 15 50 -10
v 15 55 -10
v 15 60 -10
v 16 45 -10
v 16 60 -10
v -16 30 -12
v -16 39 -12
v -15 30 -12
v -15 35 -12
v -15 39 -12
v -16 45 -15
v -16 60 -15
v -15 24 -15
v -15 30 -15
v -15 35 -15
v -15 40 -15
v -15 45 -15
v -15 50 -15
v -15 55 -15
v -15 60 -15
v -15 61 -15
v -10 40 -15
v -10 45 -15
v -10 50 -15
v -10 55 -15
v -10 60 -15
v -2 40 -15
v -2 45 -15
v -2 50 -15
v -2 55 -15
v -2 60 -15
v 1 45 -15
v 1 50 -15
v 1 55 -15
v 1 60 -15
v 2 35 -15
v 2 40 -15
v 2 43 -15
v 11 35 -15
v 11 40 -15
v 11 43 -15
v 11 45 -15
v 11 50 -15
v 11 55 -15
v 11 60 -15
v 15 24 -15
v 15 30 -15
v 15 35 -15
v 15 40 -15
v 15 45 -15
v 15 50 -15
v 15 55 -15
v 15 60 -15
v 15 61 -15
v -10 40 -16
v -10 60 -16
v -2 40 -16
v -2 60 -16
v 1 45 -16
v 1 60 -16
v 2 35 -16
v 2 43 -16
v 11 35 -16
v 11 43 -16
v 11 45 -16
v 11 60 -16
v -5 0 5
v 5 0 5
v -5 0 -5
v 5 0 -5
v -15 24 15
v 15 24 15
v -5 24 5
v 5 24 5
v -5 24 -5
v 5 24 -5
v -15 24 -15
v 15 24 -15
v 15 29 12
v 16 29 12
v 15 29 6
v 16 29 6
v -16 30 -3
v -15 30 -3
v -16 30 -12
v -15 30 -12
v -11 32 16
v -2 32 16
v -11 32 15
v -2 32 15
v 15 33 4
v 16 33 4
v 15 33 -5
v 16 33 -5
v 2 35 -15
v 11 35 -15
v 2 35 -16
v 11 35 -16
v -10 40 -15
v -2 40 -15
v -10 40 -16
v -2 40 -16
v -16 41 9
v -15 41 9
v -16 41 -2
v -15 41 -2
v 15 42 10
v 16 42 10
v 15 42 5
v 16 42 5
v 0 43 16
v 11 43 16
v 0 43 15
v 11 43 15
v 15 45 2
v 16 45 2
v -16 45 -8
v -15 45 -8
v 15 45 -10
v 16 45 -10
v -16 45 -15
v -15 45 -15
v 1 45 -15
v 11 45 -15
v 1 45 -16
v 11 45 -16
v -13 47 16
v -4 47 16
v -13 47 15
v -4 47 15
v 15 55 15
v 16 55 15
v 15 55 10
v 16 55 10
v 15 37 12
v 16 37 12
v 15 37 6
v 16 37 6
v -16 39 -3
v -15 39 -3
v -16 39 -12
v -15 39 -12
v 15 41 4
v 16 41 4
v 15 41 -5
v 16 41 -5
v -11 42 16
v -2 42 16
v -11 42 15
v -2 42 15
v 2 43 -15
v 11 43 -15
v 2 43 -16
v 11 43 -16
v 15 51 10
v 16 51 10
v 15 51 5
v 16 51 5
v -16 54 9
v -15 54 9
v -16 54 -2
v -15 54 -2
v -13 60 16
v -4 60 16
v 0 60 16
v 11 60 16
v -13 60 15
v -4 60 15
v 0 60 15
v 11 60 15
v 15 60 15
v 16 60 15
v 15 60 10
v 16 60 10
v 15 60 2
v 16 60 2
v -16 60 -8
v -15 60 -8
v 15 60 -10
v 16 60 -10
v -16 60 -15
v -15 60 -15
v -10 60 -15
v -2 60 -15
v 1 60 -15
v 11 60 -15
v -10 60 -16
v -2 60 -16
v 1 60 -16
v 11 60 -16
v -15 61 15
v 15 61 15
v -15 61 -15
v 15 61 -15

# faces
f 3/5/1 2/5/1 1/5/1
f 4/5/1 2/5/1 3/5/1
f 9/5/1 6/5/1 5/5/1
f 10/5/1 6/5/1 9/5/1
f 11/5/1 8/5/1 7/5/1
f 12/5/1 8/5/1 11/5/1
f 15/3/1 14/3/1 13/3/1
f 16/3/1 14/3/1 15/3/1
f 17/3/1 14/3/1 16/3/1
f 18/3/1 14/3/1 17/3/1
f 19/2/1 16/2/1 15/2/1
f 20/2/1 16/2/1 19/2/1
f 21/2/1 18/2/1 17/2/1
f 22/2/1 18/2/1 21/2/1
f 23/3/1 20/3/1 19/3/1
f 24/3/1 22/3/1 21/3/1
f 25/3/1 23/3/1 19/3/1
f 25/3/1 24/3/1 23/3/1
f 26/3/1 22/3/1 24/3/1
f 26/3/1 24/3/1 25/3/1
f 27/2/1 26/2/1 25/2/1
f 28/2/1 26/2/1 27/2/1
f 29/2/1 27/2/1 25/2/1
f 30/2/1 27/2/1 29/2/1
f 31/2/1 26/2/1 28/2/1
f 32/2/1 26/2/1 31/2/1
f 33/2/1 26/2/1 32/2/1
f 34/3/1 30/3/1 29/3/1
f 35/3/1 30/3/1 34/3/1
f 36/3/1 32/3/1 31/3/1
f 37/3/1 32/3/1 36/3/1
f 38/2/1 35/2/1 34/2/1
f 39/2/1 37/2/1 36/2/1
f 40/2/1 38/2/1 34/2/1
f 40/2/1 39/2/1 38/2/1
f 41/2/1 37/2/1 39/2/1
f 41/2/1 39/2/1 40/2/1
f 42/3/1 41/3/1 40/3/1
f 43/3/1 41/3/1 42/3/1
f 45/5/1 43/5/1 42/5/1
f 45/5/1 44/5/1 43/5/1
f 46/5/1 44/5/1 45/5/1
f 49/5/1 48/5/1 47/5/1
f 50/5/1 49/5/1 47/5/1
f 51/5/1 50/5/1 47/5/1
f 52/5/1 50/5/1 51/5/1
f 55/5/1 54/5/1 53/5/1
f 56/5/1 55/5/1 53/5/1
f 57/5/1 56/5/1 53/5/1
f 58/5/1 56/5/1 57/5/1
f 61/5/1 60/5/1 59/5/1
f 62/5/1 60/5/1 61/5/1
f 63/5/1 60/5/1 62/5/1
f 64/5/1 60/5/1 63/5/1
f 65/5/1 60/5/1 64/5/1
f 68/1/1 67/1/1 66/1/1
f 69/1/1 67/1/1 68/1/1
f 72/5/1 71/5/1 70/5/1
f 73/5/1 72/5/1 70/5/1
f 74/5/1 73/5/1 70/5/1
f 75/5/1 74/5/1 70/5/1
f 76/5/1 74/5/1 75/5/1
f 79/5/1 78/5/1 77/5/1
f 80/5/1 78/5/1 79/5/1
f 81/5/1 78/5/1 80/5/1
f 82/5/1 78/5/1 81/5/1
f 85/5/1 84/5/1 83/5/1
f 86/5/1 84/5/1 85/5/1
f 87/5/1 84/5/1 86/5/1
f 88/5/2 89/5/2 90/5/2
f 88/5/2 90/5/2 91/5/2
f 88/5/2 91/5/2 92/5/2
f 92/5/2 91/5/2 93/5/2
f 94/5/2 95/5/2 96/5/2
f 94/5/2 96/5/2 97/5/2
f 94/5/2 97/5/2 100/5/2
f 100/5/2 97/5/2 101/5/2
f 98/5/2 99/5/2 102/5/2
f 102/5/2 99/5/2 103/5/2
f 103/5/2 99/5/2 104/5/2
f 104/5/2 99/5/2 105/5/2
f 105/5/2 99/5/2 106/5/2
f 107/1/2 108/1/2 109/1/2
f 109/1/2 108/1/2 110/1/2
f 111/5/2 112/5/2 113/5/2
f 113/5/2 112/5/2 116/5/2
f 116/5/2 112/5/2 117/5/2
f 114/5/2 115/5/2 118/5/2
f 114/5/2 118/5/2 121/5/2
f 119/5/2 120/5/2 122/5/2
f 114/5/2 121/5/2 123/5/2
f 122/5/2 120/5/2 124/5/2
f 114/5/2 123/5/2 125/5/2
f 125/5/2 123/5/2 126/5/2
f 124/5/2 120/5/2 127/5/2
f 127/5/2 120/5/2 128/5/2
f 129/3/2 130/3/2 131/3/2
f 131/3/2 130/3/2 132/3/2
f 129/3/2 131/3/2 133/3/2
f 133/3/2 131/3/2 134/3/2
f 132/3/2 130/3/2 135/3/2
f 135/3/2 130/3/2 136/3/2
f 135/2/2 136/2/2 137/2/2
f 137/2/2 136/2/2 138/2/2
f 133/2/2 134/2/2 139/2/2
f 139/2/2 134/2/2 140/2/2
f 135/2/2 137/2/2 141/2/2
f 141/2/2 137/2/2 142/2/2
f 138/2/2 136/2/2 143/2/2
f 143/2/2 136/2/2 144/2/2
f 139/3/2 140/3/2 145/3/2
f 141/3/2 142/3/2 146/3/2
f 139/3/2 145/3/2 147/3/2
f 145/3/2 146/3/2 147/3/2
f 146/3/2 142/3/2 148/3/2
f 147/3/2 146/3/2 148/3/2
f 143/3/2 144/3/2 149/3/2
f 149/3/2 144/3/2 150/3/2
f 147/2/2 148/2/2 151/2/2
f 149/2/2 150/2/2 152/2/2
f 147/2/2 151/2/2 153/2/2
f 151/2/2 152/2/2 153/2/2
f 153/2/2 152/2/2 154/2/2
f 147/2/2 153/2/2 155/2/2
f 155/2/2 153/2/2 156/2/2
f 154/2/2 152/2/2 157/2/2
f 157/2/2 152/2/2 158/2/2
f 152/2/2 150/2/2 159/2/2
f 158/2/2 152/2/2 159/2/2
f 159/2/2 150/2/2 160/2/2
f 155/3/2 156/3/2 161/3/2
f 161/3/2 156/3/2 162/3/2
f 157/3/2 158/3/2 163/3/2
f 163/3/2 158/3/2 164/3/2
f 159/3/2 160/3/2 165/3/2
f 165/3/2 160/3/2 166/3/2
f 161/2/2 162/2/2 167/2/2
f 163/2/2 164/2/2 168/2/2
f 161/2/2 167/2/2 169/2/2
f 167/2/2 168/2/2 169/2/2
f 169/2/2 168/2/2 170/2/2
f 168/2/2 164/2/2 171/2/2
f 170/2/2 168/2/2 171/2/2
f 165/2/2 166/2/2 172/2/2
f 172/2/2 166/2/2 173/2/2
f 170/3/2 171/3/2 175/3/2
f 175/3/2 171/3/2 176/3/2
f 172/3/2 173/3/2 177/3/2
f 177/3/2 173/3/2 178/3/2
f 175/5/2 176/5/2 179/5/2
f 174/5/2 175/5/2 179/5/2
f 177/5/2 178/5/2 179/5/2
f 176/5/2 177/5/2 179/5/2
f 179/5/2 178/5/2 180/5/2
f 181/5/2 182/5/2 185/5/2
f 185/5/2 182/5/2 186/5/2
f 183/5/2 184/5/2 187/5/2
f 187/5/2 184/5/2 188/5/2
f 189/5/2 190/5/2 193/5/2
f 193/5/2 190/5/2 194/5/2
f 195/5/2 196/5/2 197/5/2
f 197/5/2 196/5/2 198/5/2
f 191/5/2 192/5/2 199/5/2
f 199/5/2 192/5/2 200/5/2
f 205/5/3 202/5/3 201/5/3
f 206/5/3 202/5/3 205/5/3
f 207/5/3 204/5/3 203/5/3
f 208/5/3 204/5/3 207/5/3
f 211/5/3 210/5/3 209/5/3
f 212/5/3 210/5/3 211/5/3
f 222/3/3 218/3/3 217/3/3
f 223/2/3 219/2/3 218/2/3
f 223/3/3 218/3/3 222/3/3
f 224/3/3 220/3/3 219/3/3
f 224/2/3 219/2/3 223/2/3
f 225/5/3 221/5/3 220/5/3
f 225/3/3 220/3/3 224/3/3
f 226/2/3 215/2/3 214/2/3
f 227/3/3 216/3/3 215/3/3
f 227/2/3 215/2/3 226/2/3
f 228/2/3 217/2/3 216/2/3
f 228/3/3 216/3/3 227/3/3
f 229/2/3 217/2/3 228/2/3
f 230/3/3 222/3/3 217/3/3
f 233/5/3 221/5/3 225/5/3
f 234/2/3 226/2/3 214/2/3
f 237/2/3 217/2/3 229/2/3
f 238/2/3 217/2/3 237/2/3
f 238/2/3 237/2/3 236/2/3
f 239/3/3 230/3/3 217/3/3
f 239/2/3 217/2/3 238/2/3
f 239/3/3 231/3/3 230/3/3
f 240/2/3 232/2/3 231/2/3
f 240/3/3 231/3/3 239/3/3
f 241/3/3 233/3/3 232/3/3
f 241/2/3 232/2/3 240/2/3
f 242/5/3 221/5/3 233/5/3
f 242/3/3 233/3/3 241/3/3
f 243/2/3 238/2/3 236/2/3
f 247/5/3 221/5/3 242/5/3
f 248/3/3 214/3/3 213/3/3
f 249/2/3 235/2/3 234/2/3
f 249/3/3 214/3/3 248/3/3
f 249/2/3 234/2/3 214/2/3
f 250/3/3 236/3/3 235/3/3
f 250/2/3 235/2/3 249/2/3
f 251/2/3 243/2/3 236/2/3
f 251/3/3 236/3/3 250/3/3
f 251/2/3 244/2/3 243/2/3
f 252/3/3 245/3/3 244/3/3
f 252/2/3 244/2/3 251/2/3
f 253/2/3 246/2/3 245/2/3
f 253/3/3 245/3/3 252/3/3
f 254/3/3 247/3/3 246/3/3
f 254/2/3 246/2/3 253/2/3
f 255/5/3 221/5/3 247/5/3
f 255/3/3 247/3/3 254/3/3
f 256/5/3 221/5/3 255/5/3
f 257/5/3 255/5/3 254/5/3
f 258/5/3 255/5/3 257/5/3
f 263/5/3 260/5/3 259/5/3
f 263/5/3 262/5/3 261/5/3
f 263/5/3 261/5/3 260/5/3
f 264/5/3 262/5/3 263/5/3
f 269/5/3 266/5/3 265/5/3
f 269/5/3 268/5/3 267/5/3
f 269/5/3 267/5/3 266/5/3
f 270/5/3 268/5/3 269/5/3
f 273/5/3 272/5/3 271/5/3
f 274/5/3 272/5/3 273/5/3
f 275/5/3 272/5/3 274/5/3
f 276/5/3 272/5/3 275/5/3
f 279/1/3 278/1/3 277/1/3
f 280/1/3 278/1/3 279/1/3
f 285/5/3 282/5/3 281/5/3
f 285/5/3 284/5/3 283/5/3
f 285/5/3 283/5/3 282/5/3
f 286/5/3 284/5/3 285/5/3
f 291/5/3 288/5/3 287/5/3
f 291/5/3 290/5/3 289/5/3
f 291/5/3 289/5/3 288/5/3
f 292/5/3 290/5/3 291/5/3
f 295/5/3 294/5/3 293/5/3
f 296/5/3 294/5/3 295/5/3
f 297/5/3 294/5/3 296/5/3
f 300/5/3 299/5/3 298/5/3
f 301/5/3 299/5/3 300/5/3
f 302/5/3 299/5/3 301/5/3
f 303/5/3 299/5/3 302/5/3
f 304/5/4 305/5/4 306/5/4
f 306/5/4 305/5/4 307/5/4
f 308/5/4 309/5/4 312/5/4
f 310/5/4 311/5/4 312/5/4
f 309/5/4 310/5/4 312/5/4
f 312/5/4 311/5/4 313/5/4
f 314/5/4 315/5/4 318/5/4
f 316/5/4 317/5/4 318/5/4
f 315/5/4 316/5/4 318/5/4
f 318/5/4 317/5/4 319/5/4
f 320/5/4 321/5/4 322/5/4
f 322/5/4 321/5/4 323/5/4
f 323/5/4 321/5/4 324/5/4
f 324/5/4 321/5/4 325/5/4
f 326/1/4 327/1/4 328/1/4
f 328/1/4 327/1/4 329/1/4
f 330/5/4 331/5/4 334/5/4
f 332/5/4 333/5/4 334/5/4
f 331/5/4 332/5/4 334/5/4
f 334/5/4 333/5/4 335/5/4
f 336/5/4 337/5/4 340/5/4
f 338/5/4 339/5/4 340/5/4
f 337/5/4 338/5/4 340/5/4
f 340/5/4 339/5/4 341/5/4
f 342/5/4 343/5/4 344/5/4
f 344/5/4 343/5/4 345/5/4
f 345/5/4 343/5/4 346/5/4
f 347/5/4 348/5/4 353/5/4
f 353/5/4 348/5/4 354/5/4
f 354/5/4 348/5/4 355/5/4
f 355/5/4 348/5/4 356/5/4
f 351/3/4 352/3/4 358/3/4
f 352/2/4 353/2/4 358/2/4
f 353/3/4 354/3/4 359/3/4
f 358/2/4 353/2/4 359/2/4
f 354/2/4 355/2/4 360/2/4
f 359/3/4 354/3/4 360/3/4
f 355/3/4 356/3/4 361/3/4
f 360/2/4 355/2/4 361/2/4
f 356/5/4 357/5/4 362/5/4
f 361/3/4 356/3/4 362/3/4
f 351/3/4 358/3/4 363/3/4
f 362/5/4 357/5/4 367/5/4
f 363/2/4 364/2/4 368/2/4
f 364/3/4 365/3/4 368/3/4
f 365/2/4 366/2/4 369/2/4
f 368/3/4 365/3/4 369/3/4
f 366/3/4 367/3/4 370/3/4
f 369/2/4 366/2/4 370/2/4
f 367/5/4 357/5/4 371/5/4
f 370/3/4 367/3/4 371/3/4
f 350/2/4 351/2/4 372/2/4
f 351/3/4 363/3/4 372/3/4
f 363/2/4 368/2/4 373/2/4
f 372/3/4 363/3/4 373/3/4
f 373/2/4 368/2/4 374/2/4
f 350/2/4 372/2/4 375/2/4
f 374/2/4 368/2/4 377/2/4
f 377/2/4 368/2/4 378/2/4
f 371/5/4 357/5/4 381/5/4
f 349/3/4 350/3/4 382/3/4
f 350/2/4 375/2/4 383/2/4
f 382/3/4 350/3/4 383/3/4
f 375/3/4 376/3/4 384/3/4
f 383/2/4 375/2/4 384/2/4
f 376/2/4 377/2/4 385/2/4
f 384/3/4 376/3/4 385/3/4
f 377/2/4 378/2/4 385/2/4
f 378/3/4 379/3/4 386/3/4
f 385/2/4 378/2/4 386/2/4
f 379/2/4 380/2/4 387/2/4
f 386/3/4 379/3/4 387/3/4
f 380/3/4 381/3/4 388/3/4
f 387/2/4 380/2/4 388/2/4
f 381/5/4 357/5/4 389/5/4
f 388/3/4 381/3/4 389/3/4
f 389/5/4 357/5/4 390/5/4
f 391/5/4 392/5/4 393/5/4
f 393/5/4 392/5/4 394/5/4
f 397/5/4 398/5/4 399/5/4
f 399/5/4 398/5/4 400/5/4
f 395/5/4 396/5/4 401/5/4
f 401/5/4 396/5/4 402/5/4
f 405/1/5 404/1/5 403/1/5
f 406/1/5 404/1/5 405/1/5
f 409/3/5 408/3/5 407/3/5
f 410/3/5 408/3/5 409/3/5
f 411/3/5 409/3/5 407/3/5
f 412/3/5 408/3/5 410/3/5
f 413/3/5 411/3/5 407/3/5
f 413/3/5 412/3/5 411/3/5
f 414/3/5 408/3/5 412/3/5
f 414/3/5 412/3/5 413/3/5
f 417/5/5 416/5/5 415/5/5
f 418/5/5 416/5/5 417/5/5
f 421/5/5 420/5/5 419/5/5
f 422/5/5 420/5/5 421/5/5
f 425/5/5 424/5/5 423/5/5
f 426/5/5 424/5/5 425/5/5
f 429/5/5 428/5/5 427/5/5
f 430/5/5 428/5/5 429/5/5
f 433/5/5 432/5/5 431/5/5
f 434/5/5 432/5/5 433/5/5
f 437/5/5 436/5/5 435/5/5
f 438/5/5 436/5/5 437/5/5
f 441/5/5 440/5/5 439/5/5
f 442/5/5 440/5/5 441/5/5
f 445/5/5 444/5/5 443/5/5
f 446/5/5 444/5/5 445/5/5
f 449/5/5 448/5/5 447/5/5
f 450/5/5 448/5/5 449/5/5
f 455/5/5 452/5/5 451/5/5
f 456/5/5 452/5/5 455/5/5
f 457/5/5 454/5/5 453/5/5
f 458/5/5 454/5/5 457/5/5
f 461/5/5 460/5/5 459/5/5
f 462/5/5 460/5/5 461/5/5
f 465/5/5 464/5/5 463/5/5
f 466/5/5 464/5/5 465/5/5
f 469/5/5 468/5/5 467/5/5
f 470/5/5 468/5/5 469/5/5
f 471/5/6 472/5/6 473/5/6
f 473/5/6 472/5/6 474/5/6
f 475/5/6 476/5/6 477/5/6
f 477/5/6 476/5/6 478/5/6
f 479/5/6 480/5/6 481/5/6
f 481/5/6 480/5/6 482/5/6
f 483/5/6 484/5/6 485/5/6
f 485/5/6 484/5/6 486/5/6
f 487/5/6 488/5/6 489/5/6
f 489/5/6 488/5/6 490/5/6
f 491/5/6 492/5/6 493/5/6
f 493/5/6 492/5/6 494/5/6
f 495/5/6 496/5/6 497/5/6
f 497/5/6 496/5/6 498/5/6
f 499/5/6 500/5/6 503/5/6
f 503/5/6 500/5/6 504/5/6
f 501/5/6 502/5/6 505/5/6
f 505/5/6 502/5/6 506/5/6
f 507/5/6 508/5/6 509/5/6
f 509/5/6 508/5/6 510/5/6
f 511/5/6 512/5/6 515/5/6
f 515/5/6 512/5/6 516/5/6
f 513/5/6 514/5/6 517/5/6
f 517/5/6 514/5/6 518/5/6
f 519/5/6 520/5/6 523/5/6
f 523/5/6 520/5/6 524/5/6
f 521/5/6 522/5/6 525/5/6
f 525/5/6 522/5/6 526/5/6
f 527/5/6 528/5/6 529/5/6
f 529/5/6 528/5/6 530/5/6
