# MagicaVoxel @ Ephtracy

# group
g TrunkSmallWinter

# material
mtllib TrunkSmallWinter.mtl
usemtl palette

# normals
vn -1 0 0
vn 1 0 0
vn 0 0 1
vn 0 0 -1
vn 0 -1 0
vn 0 1 0

# texcoords
vt 0.00195313 0.5
vt 0.00585938 0.5
vt 0.0332031 0.5
vt 0.916016 0.5

# verts
v -20 0 10
v -20 0 -10
v -20 16 10
v -20 16 3
v -20 16 -4
v -20 16 -10
v -20 17 3
v -20 17 -4
v -15 16 7
v -15 16 -1
v -15 17 7
v -15 17 -1
v -13 10 -10
v -13 10 -11
v -13 16 -7
v -13 16 -8
v -13 16 -10
v -13 17 -7
v -13 17 -11
v -11 8 11
v -11 8 10
v -11 15 10
v -11 16 10
v -11 16 9
v -11 17 11
v -11 17 9
v -7 16 2
v -7 16 -3
v -7 16 -6
v -7 17 2
v -7 17 -6
v -1 7 11
v -1 7 10
v -1 16 10
v -1 16 8
v -1 17 11
v -1 17 8
v 1 16 -3
v 1 16 -10
v 1 17 -3
v 1 17 -10
v 7 16 6
v 7 16 -0
v 7 17 6
v 7 17 -0
v 10 11 -10
v 10 11 -11
v 10 14 -10
v 10 16 -5
v 10 16 -10
v 10 17 -5
v 10 17 -11
v 18 16 2
v 18 16 -5
v 18 17 2
v 18 17 -5
v -17 16 3
v -17 16 -4
v -17 17 3
v -17 17 -4
v -9 16 7
v -9 16 5
v -9 16 -1
v -9 17 7
v -9 17 -1
v -8 10 -10
v -8 10 -11
v -8 13 -10
v -8 16 -7
v -8 16 -8
v -8 16 -10
v -8 17 -7
v -8 17 -11
v -6 8 11
v -6 8 10
v -6 16 10
v -6 16 9
v -6 17 11
v -6 17 9
v -2 16 2
v -2 16 -0
v -2 16 -6
v -2 17 2
v -2 17 -6
v 4 7 11
v 4 7 10
v 4 16 10
v 4 16 8
v 4 17 11
v 4 17 8
v 8 16 -3
v 8 16 -10
v 8 17 -3
v 8 17 -10
v 14 11 -10
v 14 11 -11
v 14 16 6
v 14 16 2
v 14 16 -0
v 14 16 -5
v 14 16 -10
v 14 17 6
v 14 17 -0
v 14 17 -5
v 14 17 -11
v 20 0 10
v 20 0 -10
v 20 16 10
v 20 16 2
v 20 16 -5
v 20 16 -10
v 20 17 2
v 20 17 -5
v -11 8 11
v -11 17 11
v -6 8 11
v -6 17 11
v -1 7 11
v -1 17 11
v 4 7 11
v 4 17 11
v -20 0 10
v -20 16 10
v -16 0 10
v -16 16 10
v -15 15 10
v -15 16 10
v -11 8 10
v -11 15 10
v -11 16 10
v -6 8 10
v -6 16 10
v -1 7 10
v -1 16 10
v 4 7 10
v 4 16 10
v 16 0 10
v 16 16 10
v 20 0 10
v 20 16 10
v -15 16 7
v -15 17 7
v -9 16 7
v -9 17 7
v 7 16 6
v 7 17 6
v 14 16 6
v 14 17 6
v -20 16 3
v -20 17 3
v -17 16 3
v -17 17 3
v -7 16 2
v -7 17 2
v -2 16 2
v -2 17 2
v 18 16 2
v 18 17 2
v 20 16 2
v 20 17 2
v 1 16 -3
v 1 17 -3
v 8 16 -3
v 8 17 -3
v 10 16 -5
v 10 17 -5
v 14 16 -5
v 14 17 -5
v -13 16 -7
v -13 17 -7
v -8 16 -7
v -8 17 -7
v -11 16 9
v -11 17 9
v -8 16 9
v -6 16 9
v -6 17 9
v -1 16 8
v -1 17 8
v 4 16 8
v 4 17 8
v 7 16 -0
v 7 17 -0
v 8 16 -0
v 14 16 -0
v 14 17 -0
v -15 16 -1
v -15 17 -1
v -9 16 -1
v -9 17 -1
v -20 16 -4
v -20 17 -4
v -17 16 -4
v -17 17 -4
v 18 16 -5
v 18 17 -5
v 20 16 -5
v 20 17 -5
v -7 16 -6
v -7 17 -6
v -5 16 -6
v -2 16 -6
v -2 17 -6
v -20 0 -10
v -20 16 -10
v -16 0 -10
v -16 16 -10
v -13 10 -10
v -13 16 -10
v -12 7 -10
v -12 10 -10
v -8 10 -10
v -8 13 -10
v -8 16 -10
v -5 7 -10
v -5 13 -10
v 1 15 -10
v 1 16 -10
v 1 17 -10
v 2 9 -10
v 2 14 -10
v 7 1 -10
v 7 6 -10
v 8 15 -10
v 8 16 -10
v 8 17 -10
v 10 9 -10
v 10 11 -10
v 10 14 -10
v 10 16 -10
v 14 11 -10
v 14 16 -10
v 15 1 -10
v 15 6 -10
v 16 0 -10
v 16 16 -10
v 20 0 -10
v 20 16 -10
v -13 10 -11
v -13 17 -11
v -8 10 -11
v -8 17 -11
v 10 11 -11
v 10 17 -11
v 14 11 -11
v 14 17 -11
v -20 0 10
v -16 0 10
v 16 0 10
v 20 0 10
v -20 0 -10
v -16 0 -10
v 16 0 -10
v 20 0 -10
v -1 7 11
v 4 7 11
v -1 7 10
v 4 7 10
v -11 8 11
v -6 8 11
v -11 8 10
v -6 8 10
v -13 10 -10
v -12 10 -10
v -8 10 -10
v -13 10 -11
v -8 10 -11
v 10 11 -10
v 14 11 -10
v 10 11 -11
v 14 11 -11
v -20 16 10
v -16 16 10
v -15 16 10
v -11 16 10
v -6 16 10
v -1 16 10
v 4 16 10
v 16 16 10
v 20 16 10
v -11 16 9
v -8 16 9
v -6 16 9
v -1 16 8
v 4 16 8
v -15 16 7
v -9 16 7
v 7 16 6
v 14 16 6
v -9 16 5
v -8 16 5
v -2 16 5
v 6 16 5
v -20 16 3
v -17 16 3
v -7 16 2
v -2 16 2
v 14 16 2
v 16 16 2
v 18 16 2
v 20 16 2
v -2 16 -0
v 6 16 -0
v 7 16 -0
v 8 16 -0
v 14 16 -0
v -15 16 -1
v -9 16 -1
v -14 16 -3
v -7 16 -3
v 1 16 -3
v 8 16 -3
v 16 16 -3
v -20 16 -4
v -17 16 -4
v 10 16 -5
v 14 16 -5
v 18 16 -5
v 20 16 -5
v -7 16 -6
v -5 16 -6
v -2 16 -6
v -13 16 -7
v -8 16 -7
v -14 16 -8
v -13 16 -8
v -8 16 -8
v -5 16 -8
v -20 16 -10
v -16 16 -10
v -13 16 -10
v -8 16 -10
v 1 16 -10
v 8 16 -10
v 10 16 -10
v 14 16 -10
v 16 16 -10
v 20 16 -10
v -11 17 11
v -6 17 11
v -1 17 11
v 4 17 11
v -11 17 9
v -6 17 9
v -1 17 8
v 4 17 8
v -15 17 7
v -9 17 7
v 7 17 6
v 14 17 6
v -20 17 3
v -17 17 3
v -7 17 2
v -2 17 2
v 18 17 2
v 20 17 2
v 7 17 -0
v 14 17 -0
v -15 17 -1
v -9 17 -1
v 1 17 -3
v 8 17 -3
v -20 17 -4
v -17 17 -4
v 10 17 -5
v 14 17 -5
v 18 17 -5
v 20 17 -5
v -7 17 -6
v -2 17 -6
v -13 17 -7
v -8 17 -7
v 1 17 -10
v 8 17 -10
v -13 17 -11
v -8 17 -11
v 10 17 -11
v 14 17 -11

# faces
f 3/2/1 2/2/1 1/2/1
f 4/2/1 2/2/1 3/2/1
f 5/2/1 2/2/1 4/2/1
f 6/2/1 2/2/1 5/2/1
f 7/4/1 5/4/1 4/4/1
f 8/4/1 5/4/1 7/4/1
f 11/4/1 10/4/1 9/4/1
f 12/4/1 10/4/1 11/4/1
f 17/4/1 14/4/1 13/4/1
f 18/4/1 16/4/1 15/4/1
f 18/4/1 17/4/1 16/4/1
f 19/4/1 14/4/1 17/4/1
f 19/4/1 17/4/1 18/4/1
f 22/4/1 21/4/1 20/4/1
f 23/4/1 22/4/1 20/4/1
f 25/4/1 23/4/1 20/4/1
f 25/4/1 24/4/1 23/4/1
f 26/4/1 24/4/1 25/4/1
f 30/4/1 28/4/1 27/4/1
f 30/4/1 29/4/1 28/4/1
f 31/4/1 29/4/1 30/4/1
f 34/4/1 33/4/1 32/4/1
f 36/4/1 34/4/1 32/4/1
f 36/4/1 35/4/1 34/4/1
f 37/4/1 35/4/1 36/4/1
f 40/4/1 39/4/1 38/4/1
f 41/4/1 39/4/1 40/4/1
f 44/4/1 43/4/1 42/4/1
f 45/4/1 43/4/1 44/4/1
f 48/4/1 47/4/1 46/4/1
f 50/4/1 47/4/1 48/4/1
f 51/4/1 50/4/1 49/4/1
f 52/4/1 47/4/1 50/4/1
f 52/4/1 50/4/1 51/4/1
f 55/4/1 54/4/1 53/4/1
f 56/4/1 54/4/1 55/4/1
f 57/4/2 58/4/2 59/4/2
f 59/4/2 58/4/2 60/4/2
f 61/4/2 62/4/2 64/4/2
f 62/4/2 63/4/2 64/4/2
f 64/4/2 63/4/2 65/4/2
f 66/4/2 67/4/2 68/4/2
f 68/4/2 67/4/2 71/4/2
f 69/4/2 70/4/2 72/4/2
f 70/4/2 71/4/2 72/4/2
f 71/4/2 67/4/2 73/4/2
f 72/4/2 71/4/2 73/4/2
f 74/4/2 75/4/2 76/4/2
f 74/4/2 76/4/2 78/4/2
f 76/4/2 77/4/2 78/4/2
f 78/4/2 77/4/2 79/4/2
f 80/4/2 81/4/2 83/4/2
f 81/4/2 82/4/2 83/4/2
f 83/4/2 82/4/2 84/4/2
f 85/4/2 86/4/2 87/4/2
f 85/4/2 87/4/2 89/4/2
f 87/4/2 88/4/2 89/4/2
f 89/4/2 88/4/2 90/4/2
f 91/4/2 92/4/2 93/4/2
f 93/4/2 92/4/2 94/4/2
f 95/4/2 96/4/2 101/4/2
f 98/4/2 99/4/2 102/4/2
f 97/4/2 98/4/2 102/4/2
f 102/4/2 99/4/2 103/4/2
f 100/4/2 101/4/2 104/4/2
f 101/4/2 96/4/2 105/4/2
f 104/4/2 101/4/2 105/4/2
f 106/2/2 107/2/2 108/2/2
f 108/2/2 107/2/2 109/2/2
f 109/2/2 107/2/2 110/2/2
f 110/2/2 107/2/2 111/2/2
f 109/4/2 110/4/2 112/4/2
f 112/4/2 110/4/2 113/4/2
f 116/4/3 115/4/3 114/4/3
f 117/4/3 115/4/3 116/4/3
f 120/4/3 119/4/3 118/4/3
f 121/4/3 119/4/3 120/4/3
f 124/2/3 123/2/3 122/2/3
f 125/2/3 123/2/3 124/2/3
f 126/1/3 125/1/3 124/1/3
f 127/1/3 125/1/3 126/1/3
f 128/1/3 126/1/3 124/1/3
f 129/3/3 127/3/3 126/3/3
f 129/1/3 126/1/3 128/1/3
f 130/3/3 127/3/3 129/3/3
f 131/1/3 128/1/3 124/1/3
f 133/1/3 131/1/3 124/1/3
f 133/1/3 132/1/3 131/1/3
f 134/1/3 132/1/3 133/1/3
f 135/1/3 133/1/3 124/1/3
f 137/1/3 135/1/3 124/1/3
f 137/1/3 136/1/3 135/1/3
f 138/1/3 136/1/3 137/1/3
f 139/2/3 138/2/3 137/2/3
f 140/2/3 138/2/3 139/2/3
f 143/4/3 142/4/3 141/4/3
f 144/4/3 142/4/3 143/4/3
f 147/4/3 146/4/3 145/4/3
f 148/4/3 146/4/3 147/4/3
f 151/4/3 150/4/3 149/4/3
f 152/4/3 150/4/3 151/4/3
f 155/4/3 154/4/3 153/4/3
f 156/4/3 154/4/3 155/4/3
f 159/4/3 158/4/3 157/4/3
f 160/4/3 158/4/3 159/4/3
f 163/4/3 162/4/3 161/4/3
f 164/4/3 162/4/3 163/4/3
f 167/4/3 166/4/3 165/4/3
f 168/4/3 166/4/3 167/4/3
f 171/4/3 170/4/3 169/4/3
f 172/4/3 170/4/3 171/4/3
f 173/4/4 174/4/4 175/4/4
f 175/4/4 174/4/4 176/4/4
f 176/4/4 174/4/4 177/4/4
f 178/4/4 179/4/4 180/4/4
f 180/4/4 179/4/4 181/4/4
f 182/4/4 183/4/4 184/4/4
f 184/4/4 183/4/4 185/4/4
f 185/4/4 183/4/4 186/4/4
f 187/4/4 188/4/4 189/4/4
f 189/4/4 188/4/4 190/4/4
f 191/4/4 192/4/4 193/4/4
f 193/4/4 192/4/4 194/4/4
f 195/4/4 196/4/4 197/4/4
f 197/4/4 196/4/4 198/4/4
f 199/4/4 200/4/4 201/4/4
f 201/4/4 200/4/4 202/4/4
f 202/4/4 200/4/4 203/4/4
f 204/2/4 205/2/4 206/2/4
f 206/2/4 205/2/4 207/2/4
f 206/1/4 207/1/4 208/1/4
f 208/1/4 207/1/4 209/1/4
f 206/1/4 208/1/4 210/1/4
f 210/1/4 208/1/4 211/1/4
f 210/3/4 211/3/4 212/3/4
f 206/1/4 210/1/4 215/1/4
f 210/3/4 212/3/4 215/3/4
f 212/3/4 213/3/4 215/3/4
f 213/1/4 214/1/4 216/1/4
f 215/3/4 213/3/4 216/3/4
f 215/1/4 216/1/4 217/1/4
f 216/1/4 214/1/4 217/1/4
f 217/1/4 214/1/4 218/1/4
f 215/1/4 217/1/4 220/1/4
f 220/1/4 217/1/4 221/1/4
f 206/1/4 215/1/4 222/1/4
f 215/1/4 220/1/4 222/1/4
f 222/1/4 220/1/4 223/1/4
f 217/4/4 218/4/4 224/4/4
f 218/4/4 219/4/4 224/4/4
f 221/1/4 217/1/4 224/1/4
f 224/4/4 219/4/4 225/4/4
f 225/4/4 219/4/4 226/4/4
f 223/1/4 220/1/4 227/1/4
f 220/3/4 221/3/4 227/3/4
f 227/3/4 221/3/4 228/3/4
f 224/1/4 225/1/4 229/1/4
f 228/3/4 221/3/4 229/3/4
f 221/1/4 224/1/4 229/1/4
f 229/1/4 225/1/4 230/1/4
f 227/1/4 228/1/4 231/1/4
f 222/3/4 223/3/4 233/3/4
f 206/1/4 222/1/4 233/1/4
f 231/1/4 232/1/4 234/1/4
f 233/3/4 223/3/4 234/3/4
f 227/1/4 231/1/4 234/1/4
f 223/1/4 227/1/4 234/1/4
f 206/1/4 233/1/4 235/1/4
f 233/1/4 234/1/4 235/1/4
f 234/1/4 232/1/4 236/1/4
f 235/1/4 234/1/4 236/1/4
f 235/2/4 236/2/4 237/2/4
f 237/2/4 236/2/4 238/2/4
f 239/4/4 240/4/4 241/4/4
f 241/4/4 240/4/4 242/4/4
f 243/4/4 244/4/4 245/4/4
f 245/4/4 244/4/4 246/4/4
f 251/2/5 248/2/5 247/2/5
f 252/1/5 249/1/5 248/1/5
f 252/2/5 248/2/5 251/2/5
f 253/2/5 250/2/5 249/2/5
f 253/1/5 249/1/5 252/1/5
f 254/2/5 250/2/5 253/2/5
f 257/4/5 256/4/5 255/4/5
f 258/4/5 256/4/5 257/4/5
f 261/4/5 260/4/5 259/4/5
f 262/4/5 260/4/5 261/4/5
f 266/4/5 264/4/5 263/4/5
f 266/4/5 265/4/5 264/4/5
f 267/4/5 265/4/5 266/4/5
f 270/4/5 269/4/5 268/4/5
f 271/4/5 269/4/5 270/4/5
f 274/3/6 275/3/6 281/3/6
f 276/1/6 277/1/6 283/1/6
f 283/1/6 277/1/6 284/1/6
f 282/1/6 283/1/6 284/1/6
f 278/1/6 279/1/6 285/1/6
f 273/1/6 274/1/6 286/1/6
f 281/3/6 282/3/6 286/3/6
f 274/3/6 281/3/6 286/3/6
f 286/3/6 282/3/6 287/3/6
f 284/1/6 285/1/6 288/1/6
f 285/1/6 279/1/6 288/1/6
f 288/1/6 279/1/6 289/1/6
f 287/3/6 282/3/6 290/3/6
f 282/1/6 284/1/6 291/1/6
f 290/3/6 282/3/6 291/3/6
f 284/1/6 288/1/6 291/1/6
f 291/1/6 288/1/6 292/1/6
f 292/1/6 288/1/6 293/1/6
f 272/2/6 273/2/6 294/2/6
f 294/2/6 273/2/6 295/2/6
f 290/1/6 291/1/6 296/1/6
f 291/1/6 292/1/6 296/1/6
f 292/3/6 293/3/6 297/3/6
f 296/1/6 292/1/6 297/1/6
f 289/1/6 279/1/6 298/1/6
f 279/2/6 280/2/6 299/2/6
f 298/1/6 279/1/6 299/1/6
f 299/2/6 280/2/6 300/2/6
f 300/2/6 280/2/6 301/2/6
f 297/3/6 293/3/6 302/3/6
f 293/1/6 288/1/6 303/1/6
f 302/3/6 293/3/6 303/3/6
f 303/1/6 288/1/6 304/1/6
f 298/3/6 299/3/6 306/3/6
f 273/1/6 286/1/6 307/1/6
f 290/1/6 296/1/6 308/1/6
f 307/1/6 308/1/6 309/1/6
f 308/1/6 296/1/6 310/1/6
f 309/1/6 308/1/6 310/1/6
f 304/1/6 305/1/6 311/1/6
f 302/1/6 303/1/6 311/1/6
f 303/1/6 304/1/6 311/1/6
f 305/3/6 306/3/6 312/3/6
f 311/1/6 305/1/6 312/1/6
f 299/2/6 300/2/6 313/2/6
f 312/3/6 306/3/6 313/3/6
f 306/3/6 299/3/6 313/3/6
f 295/2/6 273/2/6 315/2/6
f 312/1/6 313/1/6 316/1/6
f 316/1/6 313/1/6 317/1/6
f 313/2/6 300/2/6 318/2/6
f 309/3/6 310/3/6 320/3/6
f 302/1/6 311/1/6 322/1/6
f 320/3/6 321/3/6 323/3/6
f 309/3/6 320/3/6 323/3/6
f 323/3/6 321/3/6 324/3/6
f 307/1/6 309/1/6 325/1/6
f 309/3/6 323/3/6 325/3/6
f 325/3/6 323/3/6 326/3/6
f 324/3/6 321/3/6 327/3/6
f 321/1/6 322/1/6 328/1/6
f 327/3/6 321/3/6 328/3/6
f 314/2/6 315/2/6 329/2/6
f 273/1/6 307/1/6 330/1/6
f 329/2/6 315/2/6 330/2/6
f 325/1/6 326/1/6 330/1/6
f 315/2/6 273/2/6 330/2/6
f 307/1/6 325/1/6 330/1/6
f 330/1/6 326/1/6 331/1/6
f 327/1/6 328/1/6 332/1/6
f 328/1/6 322/1/6 333/1/6
f 332/1/6 328/1/6 333/1/6
f 322/1/6 311/1/6 333/1/6
f 312/1/6 316/1/6 334/1/6
f 334/1/6 316/1/6 335/1/6
f 317/1/6 313/1/6 336/1/6
f 318/2/6 319/2/6 337/2/6
f 336/1/6 313/1/6 337/1/6
f 313/2/6 318/2/6 337/2/6
f 337/2/6 319/2/6 338/2/6
f 339/4/6 340/4/6 343/4/6
f 343/4/6 340/4/6 344/4/6
f 341/4/6 342/4/6 345/4/6
f 345/4/6 342/4/6 346/4/6
f 349/4/6 350/4/6 357/4/6
f 357/4/6 350/4/6 358/4/6
f 347/4/6 348/4/6 359/4/6
f 359/4/6 348/4/6 360/4/6
f 351/4/6 352/4/6 363/4/6
f 363/4/6 352/4/6 364/4/6
f 355/4/6 356/4/6 367/4/6
f 367/4/6 356/4/6 368/4/6
f 353/4/6 354/4/6 369/4/6
f 369/4/6 354/4/6 370/4/6
f 361/4/6 362/4/6 373/4/6
f 373/4/6 362/4/6 374/4/6
f 371/4/6 372/4/6 375/4/6
f 375/4/6 372/4/6 376/4/6
f 365/4/6 366/4/6 377/4/6
f 377/4/6 366/4/6 378/4/6
